<svg id="Layer_1" data-name="Layer 1" xmlns="http://www.w3.org/2000/svg" viewBox="0 0 523.06 100.59"><defs><style>.cls-1{fill:#00b050;}</style></defs><path class="cls-1" d="M384.1,30.51c.1-1.5.39-2.42.86-2.79a19.61,19.61,0,0,0,.15,5c.41,2.25,1.18,3.35,2.3,3.29.88.15,1.68-.57,2.43-2.16a13.63,13.63,0,0,1,2.7-3.95,5.16,5.16,0,0,1,3-1.72,1.85,1.85,0,0,1,1.59,1,8.24,8.24,0,0,0,.65,1.77,11.1,11.1,0,0,0,.9,1.52,2.13,2.13,0,0,0,2,.73h.94l0,4.09h-1.18A4.76,4.76,0,0,1,397.2,36,9.23,9.23,0,0,1,396,33.7a4.33,4.33,0,0,0-1.26-1.86c-.51-.42-1.3.1-2.37,1.53l-2.44,4.34c-.92,1.43-1.78,2.15-2.57,2.15q-3.35.16-3.45-7.42l.18-1.93Zm5.18-9.34a7.8,7.8,0,0,0,2.08-1.65,13.43,13.43,0,0,0,3.22,1.77l-2.31,2.44a5.87,5.87,0,0,1-1-.39,14.08,14.08,0,0,1-2.17-1.26c-.53.49-1.08,1-1.64,1.61l-1.68-.75-1.53-1,2.32-2.4a8.18,8.18,0,0,0,1.44,1A5.64,5.64,0,0,0,389.28,21.17Zm11.47,12h6a2.6,2.6,0,0,0-.91-1,3.37,3.37,0,0,0-1.21-.46,2.56,2.56,0,0,0-1,0c-.24.07-.38.06-.4,0a32.16,32.16,0,0,1,1.18-3.4,6.78,6.78,0,0,1,1.93-.7,9.09,9.09,0,0,1,2.94,0,4.73,4.73,0,0,1,2.8,1.21,2.14,2.14,0,0,1,.36,2.58,9.22,9.22,0,0,1-1,1.84h4.59v4.09h-4.77a3.26,3.26,0,0,1-1.53-.36,3.64,3.64,0,0,1-1.21-1.12,3.54,3.54,0,0,1-1.38,1.11,3.83,3.83,0,0,1-1.6.37h-4.82Zm23.3-5.5a3.48,3.48,0,0,1,1.29-.21,2.09,2.09,0,0,1,.54.23,2.56,2.56,0,0,1,.45.62,6.65,6.65,0,0,1,.31.83,12.87,12.87,0,0,1,.36,1.54c.12.65.26,1.72.4,3.21-.53.8-1.22,1.77-2.06,2.9A37.86,37.86,0,0,1,420.41,34a15.51,15.51,0,0,1-1.13,2.34,2.15,2.15,0,0,1-1,.73,4.65,4.65,0,0,1-1.6.24h-1.45V33.17h1.17q2.41,0,3.06-.81c.44-.57.89-1.19,1.35-1.85A9.32,9.32,0,0,1,422.07,29a7.92,7.92,0,0,1,1-.83A4.52,4.52,0,0,1,424.05,27.67Zm-.18,2.74a.9.9,0,0,0-.77-.12,2.1,2.1,0,0,0-.71.37,10.35,10.35,0,0,0,2.12,1.47,3.17,3.17,0,0,0-.64-1.72ZM431,19q.82,11,1.14,12.18a2.72,2.72,0,0,0,1.05,1.62,4,4,0,0,0,2.3.37v4.09H434a3.61,3.61,0,0,1-3.53-2.94q-.57-1.74-1.3-11.81ZM445,32.4a10.37,10.37,0,0,0-8.26-1A8.47,8.47,0,0,1,438,28.29a3,3,0,0,1,3-1.52A18,18,0,0,1,446.8,29a15.68,15.68,0,0,0,5.61,2.07c1.46.14,2.43.21,2.92.21l-1.91,3.27a14.57,14.57,0,0,0-6.2.32,9,9,0,0,0-3.09,1.27,8.34,8.34,0,0,1-4.23,1.14h-5.38V33.17h7A11.2,11.2,0,0,0,445,32.4Zm-2.17,11.12A5,5,0,0,1,440,41.28L442.51,39a14,14,0,0,0,2.7,2.25Z"/><path class="cls-1" d="M23.25,34.84a3,3,0,0,0,.42,1.08,1.55,1.55,0,0,0,.68.59,2.63,2.63,0,0,0,1.09.19,2,2,0,0,0,1.4-.47,1.88,1.88,0,0,0,.48-1.39,2.06,2.06,0,0,0-.2-1,2.18,2.18,0,0,0-.66-.75,9.83,9.83,0,0,0-1.4-.82,7.86,7.86,0,0,1-1.45-.88,3.12,3.12,0,0,1-.79-.94,2.45,2.45,0,0,1-.26-1.11A2.75,2.75,0,0,1,23,27.85a2.66,2.66,0,0,1,1.2-1A4.49,4.49,0,0,1,26,26.5a11,11,0,0,1,1.16.06,12.82,12.82,0,0,1,1.41.28V29h-.77a3.37,3.37,0,0,0-.45-1.07,1.47,1.47,0,0,0-.64-.53,2.52,2.52,0,0,0-1-.15,2.21,2.21,0,0,0-.91.18,1.51,1.51,0,0,0-.63.57,1.63,1.63,0,0,0-.24.9,2,2,0,0,0,.2.93,2.27,2.27,0,0,0,.62.71,7.4,7.4,0,0,0,1.25.73,11,11,0,0,1,1.55.93,3.27,3.27,0,0,1,.85,1,2.53,2.53,0,0,1,.31,1.28,3.23,3.23,0,0,1-.26,1.39,2.39,2.39,0,0,1-.71.91,2.91,2.91,0,0,1-1.09.52,5.53,5.53,0,0,1-1.39.16A11.62,11.62,0,0,1,22.47,37V34.84Zm11.52,1.31-.12,0a4.67,4.67,0,0,1-1.27,1,2.92,2.92,0,0,1-1.27.29,2.31,2.31,0,0,1-1-.23,1.61,1.61,0,0,1-.69-.65,1.91,1.91,0,0,1-.25-1,1.94,1.94,0,0,1,1.13-1.76,8.07,8.07,0,0,1,3.38-.72v-.51a3.93,3.93,0,0,0-.16-1.27A1.24,1.24,0,0,0,34,30.6a1.65,1.65,0,0,0-.89-.22,1.44,1.44,0,0,0-1,.32,2,2,0,0,0-.56,1h-1v-1a10.2,10.2,0,0,1,1.25-.57,6.17,6.17,0,0,1,1-.29,5,5,0,0,1,1-.11,2.63,2.63,0,0,1,1.24.25,1.55,1.55,0,0,1,.7.75A4,4,0,0,1,36,32.21v2.71c0,.38,0,.65,0,.81a2,2,0,0,0,.05.44.85.85,0,0,0,.11.33.57.57,0,0,0,.23.2,2.08,2.08,0,0,0,.5.18v.38H34.73Zm-.13-2.44a5.46,5.46,0,0,0-2.37.42,1.32,1.32,0,0,0-.79,1.22,1.24,1.24,0,0,0,.18.71.9.9,0,0,0,.45.35,2,2,0,0,0,1.61-.16,1.93,1.93,0,0,0,.68-.65,1.54,1.54,0,0,0,.24-.79Zm7.53-3.11H40.31v4.72a4.87,4.87,0,0,0,0,.78.88.88,0,0,0,.15.4.56.56,0,0,0,.26.22,1.8,1.8,0,0,0,.51.16v.38H38.09v-.38a2,2,0,0,0,.49-.18.54.54,0,0,0,.23-.22.94.94,0,0,0,.12-.38,5,5,0,0,0,0-.78V30.6H38v-.4l.39-.07.19-.08a.46.46,0,0,0,.15-.16.85.85,0,0,0,.12-.3A4.11,4.11,0,0,0,39,29a4.27,4.27,0,0,1,.31-1.37,2.48,2.48,0,0,1,.69-.91,2.74,2.74,0,0,1,1-.52,4,4,0,0,1,1.22-.16,5.09,5.09,0,0,1,1,.09v1.41h-.77a1.5,1.5,0,0,0-.35-.65.74.74,0,0,0-.55-.19,1.13,1.13,0,0,0-.44.07.92.92,0,0,0-.32.22,1.25,1.25,0,0,0-.25.39,2.43,2.43,0,0,0-.16.62,8.24,8.24,0,0,0,0,1v.81h1.86Zm6.3.84-2,5.86H45.34l-1.87-5.78a5.63,5.63,0,0,0-.3-.79,1.08,1.08,0,0,0-.26-.34,1,1,0,0,0-.44-.19v-.39h3.08v.39a1.32,1.32,0,0,0-.61.24.59.59,0,0,0-.16.46,2.37,2.37,0,0,0,0,.44,3.85,3.85,0,0,0,.14.53l1.22,4,2-6h1.1l1.7,6L52.36,32a3.71,3.71,0,0,0,.18-.57,1.88,1.88,0,0,0,.07-.5.73.73,0,0,0-.17-.51,1.12,1.12,0,0,0-.6-.26v-.39h2.72v.39a1.26,1.26,0,0,0-.33.11,1,1,0,0,0-.21.17,2.05,2.05,0,0,0-.24.35c-.08.16-.19.41-.32.74L51.21,37.3H50.16Zm11.39,4.71-.12,0a4.67,4.67,0,0,1-1.27,1,2.92,2.92,0,0,1-1.27.29,2.31,2.31,0,0,1-1-.23,1.61,1.61,0,0,1-.69-.65,1.81,1.81,0,0,1-.25-1,1.94,1.94,0,0,1,1.13-1.76,8.07,8.07,0,0,1,3.38-.72v-.51a3.93,3.93,0,0,0-.16-1.27,1.29,1.29,0,0,0-.49-.69,1.65,1.65,0,0,0-.89-.22,1.44,1.44,0,0,0-1,.32,2,2,0,0,0-.56,1h-1v-1a10.2,10.2,0,0,1,1.25-.57,6.17,6.17,0,0,1,1-.29,5,5,0,0,1,1-.11,2.63,2.63,0,0,1,1.24.25,1.55,1.55,0,0,1,.7.75,4,4,0,0,1,.23,1.53v2.71c0,.38,0,.65,0,.81a2,2,0,0,0,0,.44.85.85,0,0,0,.11.33.57.57,0,0,0,.23.2,2.08,2.08,0,0,0,.5.18v.38H59.82Zm-.13-2.44a5.46,5.46,0,0,0-2.37.42,1.3,1.3,0,0,0-.79,1.22,1.24,1.24,0,0,0,.18.71.9.9,0,0,0,.45.35,2,2,0,0,0,1.61-.16,1.93,1.93,0,0,0,.68-.65,1.54,1.54,0,0,0,.24-.79Zm3-3.51a1.66,1.66,0,0,0,.63-.21,1.15,1.15,0,0,0,.38-.41A2.07,2.07,0,0,0,63.9,29c.05-.25.11-.61.16-1.08h1.11v1.92h2.52v.79H65.17v3.47a9.5,9.5,0,0,0,.06,1.2,1.51,1.51,0,0,0,.24.7,1.05,1.05,0,0,0,.39.37,1.27,1.27,0,0,0,.56.11,1.41,1.41,0,0,0,.58-.13,2.48,2.48,0,0,0,.54-.37l.35.42a4.17,4.17,0,0,1-1,.78,2.31,2.31,0,0,1-1,.24,1.83,1.83,0,0,1-1.5-.6,2.87,2.87,0,0,1-.49-1.86V30.6H62.68Z"/><path class="cls-1" d="M76.66,37.26v-.38a2.59,2.59,0,0,0,.58-.17.59.59,0,0,0,.28-.26.83.83,0,0,0,.1-.45,2.39,2.39,0,0,0-.07-.57c0-.21-.1-.44-.17-.69l-.29-1H73.46l-.27.77a7.72,7.72,0,0,0-.26.87,2.22,2.22,0,0,0-.07.54.86.86,0,0,0,.24.68,1.26,1.26,0,0,0,.73.29v.38H70.5v-.38a1.14,1.14,0,0,0,.76-.5,5.15,5.15,0,0,0,.63-1.25l3.25-8.63h1.23L79,35.19a6.62,6.62,0,0,0,.33.93,1.48,1.48,0,0,0,.35.5,1.18,1.18,0,0,0,.55.26v.38Zm-3-4.2h3.25l-1.48-5Zm9.58,2.26a4.9,4.9,0,0,0,.06.93.71.71,0,0,0,.24.39,1.54,1.54,0,0,0,.57.24v.38H81v-.38a1.87,1.87,0,0,0,.54-.21.6.6,0,0,0,.22-.26,1.32,1.32,0,0,0,.09-.41,6.26,6.26,0,0,0,0-.68V28.79c0-.5,0-.84,0-1a3,3,0,0,0-.06-.5,1,1,0,0,0-.14-.33.55.55,0,0,0-.24-.18,2.23,2.23,0,0,0-.55-.14v-.41l1.87-.08h.47Z"/><path class="cls-1" d="M89,34.84a3,3,0,0,0,.42,1.08,1.55,1.55,0,0,0,.68.59,2.63,2.63,0,0,0,1.09.19,2,2,0,0,0,1.4-.47,1.88,1.88,0,0,0,.48-1.39,2.06,2.06,0,0,0-.2-1,2.18,2.18,0,0,0-.66-.75,9.83,9.83,0,0,0-1.4-.82,7.86,7.86,0,0,1-1.45-.88,3.12,3.12,0,0,1-.79-.94,2.45,2.45,0,0,1-.26-1.11,2.75,2.75,0,0,1,.41-1.51,2.66,2.66,0,0,1,1.2-1,4.49,4.49,0,0,1,1.81-.35,11,11,0,0,1,1.16.06,12.82,12.82,0,0,1,1.41.28V29h-.77a3.37,3.37,0,0,0-.45-1.07,1.47,1.47,0,0,0-.64-.53,2.52,2.52,0,0,0-1-.15,2.21,2.21,0,0,0-.91.18A1.51,1.51,0,0,0,90,28a1.63,1.63,0,0,0-.24.9,2,2,0,0,0,.2.93,2.27,2.27,0,0,0,.62.71,7.4,7.4,0,0,0,1.25.73,11,11,0,0,1,1.55.93,3.27,3.27,0,0,1,.85,1,2.53,2.53,0,0,1,.31,1.28,3.23,3.23,0,0,1-.26,1.39,2.39,2.39,0,0,1-.71.91,2.91,2.91,0,0,1-1.09.52,5.53,5.53,0,0,1-1.39.16A11.62,11.62,0,0,1,88.25,37V34.84Zm11.52,1.31-.12,0a4.67,4.67,0,0,1-1.27,1,2.92,2.92,0,0,1-1.27.29,2.31,2.31,0,0,1-1-.23,1.61,1.61,0,0,1-.69-.65,1.91,1.91,0,0,1-.25-1A1.94,1.94,0,0,1,97,33.79a8.07,8.07,0,0,1,3.38-.72v-.51a3.93,3.93,0,0,0-.16-1.27,1.24,1.24,0,0,0-.49-.69,1.65,1.65,0,0,0-.89-.22,1.44,1.44,0,0,0-1,.32,2,2,0,0,0-.56,1h-1v-1a10.2,10.2,0,0,1,1.25-.57,6.17,6.17,0,0,1,1-.29,5,5,0,0,1,1-.11,2.63,2.63,0,0,1,1.24.25,1.55,1.55,0,0,1,.7.75,4,4,0,0,1,.23,1.53v2.71c0,.38,0,.65,0,.81a2,2,0,0,0,0,.44.85.85,0,0,0,.11.33.57.57,0,0,0,.23.2,2.08,2.08,0,0,0,.5.18v.38h-2.14Zm-.13-2.44a5.46,5.46,0,0,0-2.37.42,1.32,1.32,0,0,0-.79,1.22,1.24,1.24,0,0,0,.18.71.9.9,0,0,0,.45.35,2,2,0,0,0,1.61-.16,1.93,1.93,0,0,0,.68-.65,1.54,1.54,0,0,0,.24-.79ZM108,30.6h-1.86v4.72a4.87,4.87,0,0,0,0,.78.88.88,0,0,0,.15.4.56.56,0,0,0,.26.22,1.8,1.8,0,0,0,.51.16v.38h-3.19v-.38a2,2,0,0,0,.49-.18.54.54,0,0,0,.23-.22.94.94,0,0,0,.12-.38,5,5,0,0,0,0-.78V30.6h-.94v-.4l.39-.07.19-.08a.46.46,0,0,0,.15-.16.85.85,0,0,0,.12-.3,4.11,4.11,0,0,0,.08-.56,4.27,4.27,0,0,1,.31-1.37,2.48,2.48,0,0,1,.69-.91,2.74,2.74,0,0,1,1-.52,4,4,0,0,1,1.22-.16,5.09,5.09,0,0,1,1,.09v1.41h-.77a1.5,1.5,0,0,0-.35-.65.74.74,0,0,0-.55-.19,1.13,1.13,0,0,0-.44.07.92.92,0,0,0-.32.22,1.25,1.25,0,0,0-.25.39,2.43,2.43,0,0,0-.16.62,8.24,8.24,0,0,0,0,1v.81H108Zm6.36.84-2,5.86h-1.09l-1.87-5.78a3.88,3.88,0,0,0-.3-.79.86.86,0,0,0-.69-.53v-.39h3.08v.39a1.32,1.32,0,0,0-.62.24.62.62,0,0,0-.16.46,2.37,2.37,0,0,0,0,.44c0,.15.08.33.14.53l1.22,4,2-6h1.1l1.69,6L118.21,32q.11-.3.18-.57a2.4,2.4,0,0,0,.07-.5.69.69,0,0,0-.18-.51,1.12,1.12,0,0,0-.6-.26v-.39h2.72v.39a1.17,1.17,0,0,0-.32.11.87.87,0,0,0-.22.17,1.62,1.62,0,0,0-.23.35,6.87,6.87,0,0,0-.32.74l-2.26,5.73h-1Zm11.39,4.71-.11,0a4.7,4.7,0,0,1-1.28,1,2.87,2.87,0,0,1-1.26.29,2.32,2.32,0,0,1-1-.23,1.61,1.61,0,0,1-.69-.65,1.9,1.9,0,0,1-.24-1,1.93,1.93,0,0,1,1.12-1.76,8.07,8.07,0,0,1,3.38-.72v-.51a4.27,4.27,0,0,0-.15-1.27,1.34,1.34,0,0,0-.49-.69,1.71,1.71,0,0,0-.9-.22,1.46,1.46,0,0,0-1,.32,2,2,0,0,0-.56,1h-1v-1a10.93,10.93,0,0,1,1.25-.57,6,6,0,0,1,1-.29,4.88,4.88,0,0,1,1-.11,2.6,2.6,0,0,1,1.24.25,1.55,1.55,0,0,1,.7.75,3.78,3.78,0,0,1,.23,1.53v2.71c0,.38,0,.65,0,.81a2.81,2.81,0,0,0,0,.44.85.85,0,0,0,.12.33.51.51,0,0,0,.23.2,2,2,0,0,0,.49.18v.38h-2.13Zm-.13-2.44a5.52,5.52,0,0,0-2.37.42,1.31,1.31,0,0,0-.78,1.22,1.24,1.24,0,0,0,.18.71.86.86,0,0,0,.45.35,1.76,1.76,0,0,0,.64.1,1.88,1.88,0,0,0,1-.26,2,2,0,0,0,.67-.65,1.54,1.54,0,0,0,.24-.79Z"/><path class="cls-1" d="M134.25,35.32a6.36,6.36,0,0,0,0,.76.9.9,0,0,0,.12.38.69.69,0,0,0,.24.24,2.14,2.14,0,0,0,.52.18v.38h-3.29v-.38a1.5,1.5,0,0,0,.64-.27.77.77,0,0,0,.22-.44,5.63,5.63,0,0,0,0-.85V28.58a5.11,5.11,0,0,0,0-.79,1.05,1.05,0,0,0-.13-.38.73.73,0,0,0-.24-.22,2.82,2.82,0,0,0-.5-.18v-.38h3.29V27a2.16,2.16,0,0,0-.5.17.83.83,0,0,0-.24.21,1,1,0,0,0-.13.39,5,5,0,0,0-.05.8Zm10.2,1.94h-3.07v-.38a2.52,2.52,0,0,0,.44-.16.6.6,0,0,0,.22-.2.92.92,0,0,0,.14-.38,5,5,0,0,0,0-.79v-2q0-.56,0-1a5.15,5.15,0,0,0-.1-.73,1.17,1.17,0,0,0-.43-.72,1.06,1.06,0,0,0-.33-.18,1.67,1.67,0,0,0-.5-.07,1.25,1.25,0,0,0-.57.13,2.29,2.29,0,0,0-.6.41,2.08,2.08,0,0,0-.48.59,1.4,1.4,0,0,0-.15.66v2.91a4,4,0,0,0,.07.93.69.69,0,0,0,.23.39,1.52,1.52,0,0,0,.58.24v.38h-3.06v-.38a2.09,2.09,0,0,0,.43-.16.6.6,0,0,0,.22-.2.92.92,0,0,0,.14-.38,4,4,0,0,0,0-.8v-3.4c0-.33,0-.6,0-.8a1.27,1.27,0,0,0-.11-.49.59.59,0,0,0-.29-.27,2,2,0,0,0-.54-.15v-.42l1.83-.07h.47L139,31l.11,0a7.38,7.38,0,0,1,.93-.84,3.26,3.26,0,0,1,.71-.38,2,2,0,0,1,.77-.14,2.48,2.48,0,0,1,.75.1,1.57,1.57,0,0,1,.59.3,1.43,1.43,0,0,1,.41.5,2.34,2.34,0,0,1,.25.72,6.23,6.23,0,0,1,.08,1.07v2.94a7.33,7.33,0,0,0,0,.78,1,1,0,0,0,.11.37.61.61,0,0,0,.23.22,2.42,2.42,0,0,0,.51.19Zm.85-7.06a1.66,1.66,0,0,0,.63-.21,1.15,1.15,0,0,0,.38-.41,2.07,2.07,0,0,0,.21-.61c.06-.25.11-.61.17-1.08h1.1v1.92h2.52v.79h-2.52v3.47a7.72,7.72,0,0,0,.07,1.2,1.64,1.64,0,0,0,.23.7,1.05,1.05,0,0,0,.39.37,1.3,1.3,0,0,0,.56.11,1.49,1.49,0,0,0,.59-.13,2.22,2.22,0,0,0,.53-.37l.35.42a4.14,4.14,0,0,1-1,.78,2.35,2.35,0,0,1-1,.24,1.83,1.83,0,0,1-1.5-.6,2.94,2.94,0,0,1-.49-1.86V30.6H145.3Zm12.09,5.74a6.4,6.4,0,0,1-.92.82,3.25,3.25,0,0,1-.91.46,3.52,3.52,0,0,1-1.1.17,3,3,0,0,1-2.43-1,4.33,4.33,0,0,1-.81-2.84,4.87,4.87,0,0,1,.41-2.05,3.22,3.22,0,0,1,1.19-1.38,3.32,3.32,0,0,1,1.78-.48,3.21,3.21,0,0,1,1.34.25,2.24,2.24,0,0,1,.88.68,3.16,3.16,0,0,1,.52,1.09,7.12,7.12,0,0,1,.2,1.72h-4.9v.14a5,5,0,0,0,.2,1.55,2,2,0,0,0,.68,1,2,2,0,0,0,1.23.36,2.69,2.69,0,0,0,1.15-.24,3.32,3.32,0,0,0,1-.78Zm-1.31-3.16a5.82,5.82,0,0,0-.21-1.38,1.7,1.7,0,0,0-.49-.82,1.27,1.27,0,0,0-.86-.28,1.52,1.52,0,0,0-1.28.64,3.48,3.48,0,0,0-.57,1.84Zm5-1.67.11,0a5.72,5.72,0,0,1,.8-.82,2.7,2.7,0,0,1,1.75-.63,6.68,6.68,0,0,1,.82.05v1.79h-.88a1.79,1.79,0,0,0-.4-.61.8.8,0,0,0-.57-.19,1.06,1.06,0,0,0-.56.16,2.15,2.15,0,0,0-.54.48,2,2,0,0,0-.35.58,2.06,2.06,0,0,0-.1.65v2.73a3.5,3.5,0,0,0,.09,1,.75.75,0,0,0,.28.4,1.69,1.69,0,0,0,.6.19v.38H159v-.38a2,2,0,0,0,.42-.16.72.72,0,0,0,.23-.2,1.08,1.08,0,0,0,.14-.38,5.26,5.26,0,0,0,0-.8v-3.4c0-.33,0-.6,0-.8a1.27,1.27,0,0,0-.11-.49.59.59,0,0,0-.29-.27,2,2,0,0,0-.54-.15v-.41l1.83-.08h.47Zm12.18,6.15h-3.07v-.38a2.09,2.09,0,0,0,.43-.16.63.63,0,0,0,.23-.2,1.08,1.08,0,0,0,.14-.38,5,5,0,0,0,0-.79v-2q0-.56,0-1a3.91,3.91,0,0,0-.11-.73,1.61,1.61,0,0,0-.18-.45,1.27,1.27,0,0,0-.25-.27.88.88,0,0,0-.33-.18,1.59,1.59,0,0,0-.49-.07,1.33,1.33,0,0,0-.58.13,2.29,2.29,0,0,0-.6.41,2.21,2.21,0,0,0-.47.59,1.4,1.4,0,0,0-.15.66v2.91a4.9,4.9,0,0,0,.06.93.65.65,0,0,0,.24.39,1.54,1.54,0,0,0,.57.24v.38h-3.05v-.38a2.35,2.35,0,0,0,.43-.16.6.6,0,0,0,.22-.2.92.92,0,0,0,.14-.38,5,5,0,0,0,0-.8v-3.4c0-.33,0-.6,0-.8a1.11,1.11,0,0,0-.11-.49.57.57,0,0,0-.28-.27,2.25,2.25,0,0,0-.54-.15v-.42l1.82-.07h.48L167.74,31l.11,0a9.12,9.12,0,0,1,.93-.84,3.58,3.58,0,0,1,.72-.38,2,2,0,0,1,.77-.14,2.48,2.48,0,0,1,.75.1,1.53,1.53,0,0,1,.58.3,1.58,1.58,0,0,1,.42.5,2.64,2.64,0,0,1,.25.72,6.23,6.23,0,0,1,.08,1.07v2.94a7.33,7.33,0,0,0,0,.78,1,1,0,0,0,.11.37.66.66,0,0,0,.22.22,2.34,2.34,0,0,0,.52.19Zm5.82-1.11-.12,0a4.83,4.83,0,0,1-1.27,1,2.92,2.92,0,0,1-1.27.29,2.31,2.31,0,0,1-1-.23,1.63,1.63,0,0,1-.7-.65,1.9,1.9,0,0,1-.24-1,1.94,1.94,0,0,1,1.13-1.76,8,8,0,0,1,3.38-.72v-.51a4.22,4.22,0,0,0-.16-1.27,1.29,1.29,0,0,0-.49-.69,1.66,1.66,0,0,0-.9-.22,1.48,1.48,0,0,0-1,.32,2,2,0,0,0-.55,1h-1v-1a10.91,10.91,0,0,1,1.24-.57,6.6,6.6,0,0,1,1-.29,4.88,4.88,0,0,1,1-.11,2.58,2.58,0,0,1,1.24.25,1.51,1.51,0,0,1,.7.75,3.75,3.75,0,0,1,.24,1.53v2.71c0,.38,0,.65,0,.81a2.87,2.87,0,0,0,0,.44,1,1,0,0,0,.12.33.57.57,0,0,0,.23.2,2.15,2.15,0,0,0,.49.18v.38H179Zm-.13-2.44a5.46,5.46,0,0,0-2.37.42,1.3,1.3,0,0,0-.79,1.22,1.24,1.24,0,0,0,.18.71.9.9,0,0,0,.45.35,1.81,1.81,0,0,0,.65.1,1.87,1.87,0,0,0,1-.26,1.9,1.9,0,0,0,.67-.65,1.55,1.55,0,0,0,.25-.79Zm2.94-3.51a1.78,1.78,0,0,0,.64-.21,1.12,1.12,0,0,0,.37-.41,2.06,2.06,0,0,0,.22-.61c0-.25.1-.61.16-1.08h1.11v1.92h2.52v.79h-2.52v3.47a9.5,9.5,0,0,0,.06,1.2,1.64,1.64,0,0,0,.23.7,1.23,1.23,0,0,0,.39.37,1.35,1.35,0,0,0,.57.11,1.44,1.44,0,0,0,.58-.13,2.48,2.48,0,0,0,.54-.37l.35.42a4.17,4.17,0,0,1-1.05.78,2.31,2.31,0,0,1-1,.24,1.83,1.83,0,0,1-1.5-.6,2.87,2.87,0,0,1-.49-1.86V30.6h-1.16Zm5.87,6.68a2.35,2.35,0,0,0,.43-.16.69.69,0,0,0,.22-.2,1.08,1.08,0,0,0,.14-.38,5,5,0,0,0,0-.8v-3.4c0-.33,0-.6,0-.8a1.11,1.11,0,0,0-.11-.49.57.57,0,0,0-.28-.27,2.25,2.25,0,0,0-.54-.15v-.42l1.81-.07h.48v5.58a4.9,4.9,0,0,0,.06.93.65.65,0,0,0,.24.39,1.54,1.54,0,0,0,.57.24v.38h-3.05ZM190,26.76v1.51h-1.44V26.76Zm5.59,10.63a3.13,3.13,0,0,1-2.47-1,4.08,4.08,0,0,1-.85-2.82,5,5,0,0,1,.44-2.18,3,3,0,0,1,1.23-1.32,3.69,3.69,0,0,1,1.78-.43,3.17,3.17,0,0,1,2.52,1,4.1,4.1,0,0,1,.86,2.79,4.93,4.93,0,0,1-.43,2.18A2.91,2.91,0,0,1,197.42,37,3.83,3.83,0,0,1,195.55,37.39Zm-1.85-3.94a4.85,4.85,0,0,0,.51,2.46,1.6,1.6,0,0,0,1.46.86,1.53,1.53,0,0,0,.89-.25,2,2,0,0,0,.59-.68,3.27,3.27,0,0,0,.34-1,7.41,7.41,0,0,0,.1-1.18,6.05,6.05,0,0,0-.26-1.9,2.26,2.26,0,0,0-.69-1.11,1.55,1.55,0,0,0-1-.35,1.6,1.6,0,0,0-1.45.82A4.51,4.51,0,0,0,193.7,33.45Zm14.53,3.81h-3.07v-.38a2.09,2.09,0,0,0,.43-.16.63.63,0,0,0,.23-.2,1.08,1.08,0,0,0,.14-.38,5,5,0,0,0,0-.79v-2q0-.56,0-1a3.91,3.91,0,0,0-.11-.73,1.61,1.61,0,0,0-.18-.45,1.27,1.27,0,0,0-.25-.27.88.88,0,0,0-.33-.18,1.59,1.59,0,0,0-.49-.07,1.33,1.33,0,0,0-.58.13,2.29,2.29,0,0,0-.6.41,2.21,2.21,0,0,0-.47.59,1.4,1.4,0,0,0-.15.66v2.91a4.9,4.9,0,0,0,.06.93.65.65,0,0,0,.24.39,1.54,1.54,0,0,0,.57.24v.38h-3.05v-.38a2.09,2.09,0,0,0,.43-.16.6.6,0,0,0,.22-.2.92.92,0,0,0,.14-.38,5,5,0,0,0,0-.8v-3.4c0-.33,0-.6,0-.8a1.28,1.28,0,0,0-.1-.49.63.63,0,0,0-.29-.27,2.25,2.25,0,0,0-.54-.15v-.42l1.82-.07h.48L202.74,31l.11,0a9.12,9.12,0,0,1,.93-.84,3.58,3.58,0,0,1,.72-.38,2,2,0,0,1,.77-.14,2.48,2.48,0,0,1,.75.1,1.46,1.46,0,0,1,.58.3,1.58,1.58,0,0,1,.42.5,2.64,2.64,0,0,1,.25.72,6.23,6.23,0,0,1,.08,1.07v2.94a7.33,7.33,0,0,0,0,.78,1,1,0,0,0,.11.37.66.66,0,0,0,.22.22,2.34,2.34,0,0,0,.52.19Zm5.82-1.11-.12,0a4.83,4.83,0,0,1-1.27,1,2.92,2.92,0,0,1-1.27.29,2.31,2.31,0,0,1-1-.23,1.63,1.63,0,0,1-.7-.65,1.9,1.9,0,0,1-.24-1,1.94,1.94,0,0,1,1.13-1.76,8,8,0,0,1,3.38-.72v-.51a4.22,4.22,0,0,0-.16-1.27,1.29,1.29,0,0,0-.49-.69,1.66,1.66,0,0,0-.9-.22,1.48,1.48,0,0,0-1,.32,2,2,0,0,0-.55,1h-1v-1a10.91,10.91,0,0,1,1.24-.57,6.6,6.6,0,0,1,1-.29,4.88,4.88,0,0,1,1-.11,2.58,2.58,0,0,1,1.24.25,1.47,1.47,0,0,1,.7.75,3.75,3.75,0,0,1,.24,1.53v2.71c0,.38,0,.65,0,.81a2.87,2.87,0,0,0,0,.44,1,1,0,0,0,.12.33.57.57,0,0,0,.23.2,2.15,2.15,0,0,0,.49.18v.38H214Zm-.13-2.44a5.46,5.46,0,0,0-2.37.42,1.3,1.3,0,0,0-.79,1.22,1.24,1.24,0,0,0,.18.71.9.9,0,0,0,.45.35,1.81,1.81,0,0,0,.65.1,1.87,1.87,0,0,0,1-.26,1.9,1.9,0,0,0,.67-.65,1.46,1.46,0,0,0,.25-.79Zm5.49,1.61a4,4,0,0,0,.07.93.69.69,0,0,0,.23.39,1.52,1.52,0,0,0,.58.24v.38h-3.1v-.38a1.87,1.87,0,0,0,.54-.21.54.54,0,0,0,.22-.26,1.29,1.29,0,0,0,.1-.41c0-.18,0-.4,0-.68V28.79c0-.5,0-.84,0-1a3,3,0,0,0-.06-.5.84.84,0,0,0-.14-.33.55.55,0,0,0-.24-.18,2.11,2.11,0,0,0-.55-.14v-.41l1.88-.08h.46Z"/><path class="cls-1" d="M393.32,70.73a11.39,11.39,0,0,1,1.18,3.37h-5.09a4.25,4.25,0,0,1-2.71-.86,2.78,2.78,0,0,1-1.05-2.19q0-1.58,2.53-3.89l.63-.54.83-.65,1.13-.85,1.05-.75,0,.26.13.23-.34.62-.15.43-.07.4.09.42,1.82,4Zm-3.67-12.6a1.23,1.23,0,0,1-.33.83,1.11,1.11,0,0,1-.86.37,1.18,1.18,0,0,1-.86-.37,1.05,1.05,0,0,1-.36-.83,1.51,1.51,0,0,1,.36-.83A2.5,2.5,0,0,1,388,57l.45-.1a1.61,1.61,0,0,1,.84.33.71.71,0,0,1,.24.37l.06.25Zm0,2.76a1.16,1.16,0,0,1-.35.83l-.38.27-.46.1a1.18,1.18,0,0,1-.86-.37,1.07,1.07,0,0,1-.36-.83,1.43,1.43,0,0,1,.36-.83,1.36,1.36,0,0,1,.39-.27,1,1,0,0,1,.47-.1,1.22,1.22,0,0,1,.84.34.67.67,0,0,1,.24.37l.06.24Zm.9,10.1a.84.84,0,0,0-.31-.69,1.49,1.49,0,0,0-.7-.32,1,1,0,0,0-.69.32,1.9,1.9,0,0,0-.3.69,1.08,1.08,0,0,0,.27.72,2.28,2.28,0,0,0,.72.28,1,1,0,0,0,.69-.27A1.15,1.15,0,0,0,390.55,71Zm14.51,3.11h-2.61a16.06,16.06,0,0,1-2.76,2.76c-1.37,1.13-3.23,2.5-5.56,4.11L394,81a.47.47,0,0,0-.13.11l-.09,0-.1.1a.84.84,0,0,1,0-.3l.45-.45L397,78.13a22.26,22.26,0,0,0,3.61-4.24l-1.18.21-1.37.11h-.37l-.35,0-.41-.1a.43.43,0,0,1-.21,0l-.23-.1a3.62,3.62,0,0,1-.6-.39,1.69,1.69,0,0,1-.67-1.37v-.26l.06-.2q.28-1.6,3-4.15c1.51-1.4,2.47-2.11,2.88-2.11a.29.29,0,0,1,.18.07l-.33.56a1.43,1.43,0,0,0-.25.63v.08l.05.25s.56,1.17,1.68,3.38a8.4,8.4,0,0,1,.45,1.19,3.9,3.9,0,0,1,.16,1h2Zm-4.92-1.83-.46-.87-.15-.27-.17-.28L399,70.3l-1-1.42-.23.32-.18.3-.09.33-.06.36a1.7,1.7,0,0,0,.43,1,1.55,1.55,0,0,0,.35.32l.54.29Zm4.39.31h4.14L407.42,72l-.8-.37a2.79,2.79,0,0,1-1.37-2.54,4.83,4.83,0,0,1,1-1.77,23.09,23.09,0,0,1,1.88-1.93l1.28-1.12,1.42-1.16-.24.64-.12.36-.07.37L414,72.58h.7V74.1H404.53Zm4.64-13.1-1.61,1.61-1.64-1.61,1.64-1.72Zm1.15,10.73a.93.93,0,0,0-.32-.69,1.55,1.55,0,0,0-.69-.32,1,1,0,0,0-.75.32,1.83,1.83,0,0,0-.28.69,1.08,1.08,0,0,0,.28.73,2.48,2.48,0,0,0,.75.27.93.93,0,0,0,.68-.27A1.18,1.18,0,0,0,410.32,70.21Zm3.8,2.37h2.78l-.2-.32-.41-.71-.22-.49L416,70.6c0-.3.35-.8,1.06-1.51l.48-.38.86-.64-.1.34,0,.36a2.6,2.6,0,0,0,.2.75l.18.37.23.41.51.61a20.92,20.92,0,0,1,2.5-1.84c1-.65,2-1.27,3.1-1.86l.43-.22.44-.16.49-.11.49,0c2.05,0,3.81,2,5.29,5.9h.45V74.1h-12.3l-.2,0h-.25a.79.79,0,0,1-.3-.09l-.51-.13a.41.41,0,0,1-.25-.19l.92-.75.72-.67a1.83,1.83,0,0,0,1.29.35h6.67a5.57,5.57,0,0,0-1.08-2.15,3.32,3.32,0,0,0-2.62-1.5,8.29,8.29,0,0,0-2.84,1.56l-2.55,2-.71.56-.55.41a3.66,3.66,0,0,1-2.14.66h-1.72Zm17.92,0h1.78V61.28a1.33,1.33,0,0,0-.38-.93l-.39-.32-.39-.4,3.3-3.06V74.1H432Zm12.7,1.61c0,.12-.36.42-1.08.88a5.64,5.64,0,0,1-2.47.67,2.85,2.85,0,0,1-2.46-1.19,4.58,4.58,0,0,1-.72-2.67V59.33a5.06,5.06,0,0,0-.17-1.58,2.09,2.09,0,0,0-.44-.73,4,4,0,0,0-.81-.59l3.59-3V71.88l0,1.17a2,2,0,0,0,.15.7,1.8,1.8,0,0,0,1.87,1.13,5.24,5.24,0,0,0,2-.58Zm17.93-.09h-15l1-1.44a7.87,7.87,0,0,1,1.11-1.48,3.63,3.63,0,0,0,.72,1,1.3,1.3,0,0,0,.91.43H458a3.29,3.29,0,0,0-.22-.93,11.41,11.41,0,0,0-.67-1.49,7,7,0,0,1-.89-2.43c0-.49.43-1.09,1.28-1.8a13.26,13.26,0,0,1,2.2-1.45l-.16.3-.1.26-.11.31-.09.33-.07.52a2.13,2.13,0,0,0,.08.53c.17.48.84,1.94,2,4.4Zm-8.28-11a1.23,1.23,0,0,1-.33.83,1.09,1.09,0,0,1-.85.38,1.21,1.21,0,0,1-.82-.35,1.1,1.1,0,0,1-.38-.86,1.13,1.13,0,0,1,.34-.83,1.31,1.31,0,0,1,.38-.27,1.21,1.21,0,0,1,.48-.1,1.27,1.27,0,0,1,.83.34.84.84,0,0,1,.25.37l0,.25Zm0,3a1.22,1.22,0,0,1-.33.83,1.09,1.09,0,0,1-.85.38,1.21,1.21,0,0,1-.82-.35,1.1,1.1,0,0,1-.38-.86,1.13,1.13,0,0,1,.34-.83,2.28,2.28,0,0,1,.41-.26l.45-.09a1.68,1.68,0,0,1,.83.32.84.84,0,0,1,.25.37l0,.25Zm19.25,8H471a15.57,15.57,0,0,1-2.75,2.76q-2.07,1.69-5.56,4.11l-.15,0a.53.53,0,0,0-.14.11l-.08,0-.11.1a.73.73,0,0,1,0-.3l.45-.45,2.85-2.38a22.29,22.29,0,0,0,3.62-4.24L468,74.1l-1.36.11h-.37l-.36,0-.41-.1a.39.39,0,0,1-.2,0l-.23-.1a3,3,0,0,1-.6-.39,1.69,1.69,0,0,1-.67-1.37v-.26l.05-.2q.28-1.6,3-4.15c1.51-1.4,2.47-2.11,2.88-2.11a.24.24,0,0,1,.17.07l-.32.56a1.32,1.32,0,0,0-.25.63v.08l0,.25s.56,1.17,1.68,3.38a8.4,8.4,0,0,1,.45,1.19,3.5,3.5,0,0,1,.16,1h2Zm-4.91-1.83-.47-.87-.15-.27-.16-.28-.37-.55-1-1.42-.23.32-.18.3-.1.33-.05.36a1.68,1.68,0,0,0,.42,1,1.42,1.42,0,0,0,.36.32l.53.29Zm4.44.31h4.14L476.06,72l-.8-.37a2.79,2.79,0,0,1-1.37-2.54,5,5,0,0,1,1-1.77,23.09,23.09,0,0,1,1.88-1.93l1.29-1.12,1.42-1.16-.25.64-.12.36-.07.37,3.62,8.07h.69V74.1H473.17Zm4.64-13.1-1.61,1.61-1.64-1.61,1.64-1.72ZM479,70.21a1,1,0,0,0-.31-.69,1.67,1.67,0,0,0-.7-.32,1,1,0,0,0-.75.32,1.88,1.88,0,0,0-.27.69,1.12,1.12,0,0,0,.27.73,2.48,2.48,0,0,0,.75.27.93.93,0,0,0,.68-.27A1.18,1.18,0,0,0,479,70.21Zm3.8,2.37h2.64l-.6-1-.22-.49-.07-.49a2.39,2.39,0,0,1,.69-1.17l.26-.24.39-.33,1-.79-.08.37-.06.33,0,.36.07.2.09.19.42.78.5.61,1-.83.86-.62.56-.37.75-.47.81-.5,1.54-.9a5.08,5.08,0,0,1,1-.41l.45-.09.48,0c2.05,0,3.81,2,5.28,5.9V74.1h-12l-.26,0A.76.76,0,0,1,488,74l-.38-.08a.7.7,0,0,1-.37-.24l.91-.75.73-.67a1.78,1.78,0,0,0,1.28.35h6.68l-.17-.51-.11-.25-.12-.3-.29-.5-.41-.59a3.31,3.31,0,0,0-2.6-1.5,8.29,8.29,0,0,0-2.84,1.56l-2.56,2L487,73l-.54.41a3.69,3.69,0,0,1-2.15.66h-1.58Z"/><path class="cls-1" d="M338.33,74.1h-5A10,10,0,0,1,332,74a4.35,4.35,0,0,1-1.18-.31,4.41,4.41,0,0,1-1.88-1.29,3.34,3.34,0,0,1-.77-2.29l0-.76.06-.32.12-.34a2.64,2.64,0,0,1,.81-1.17L334,63.09l0,1a2.07,2.07,0,0,0-.53,1.15l.08.38,3.42,7h1.37ZM332.6,61.88l-1.23,1.77-2.28-1.71L330.32,60l-2.07-1.59,1.21-1.87,2.38,1.85-1.28,1.85Zm.91,9.6a1.87,1.87,0,0,0,.31-.78,1,1,0,0,0-.31-.73,1,1,0,0,0-.78-.32,1,1,0,0,0-.45.07.84.84,0,0,0-.35.23,1,1,0,0,0-.33.75,1.49,1.49,0,0,0,.33.77,1,1,0,0,0,.8.35,1,1,0,0,0,.78-.34Zm4.23,1.1h.35q.45,0,1.68-1.56l.45-.58.32-.32.73-.74,1.89,3.2h1.06V74.1h-6.48Zm6,3.75-1,1.45-1.85-1.31-1,1.39-2-1.48,1-1.53,1.85,1.4,1-1.45Zm0-3.75h1.29a.44.44,0,0,0,.28-.14l.11-.17-.33-.58-.07-.26-.08-.38.18-.45a8,8,0,0,1,1.76-2.31l1.28-1.14v-6a1.72,1.72,0,0,0-.45-1l-.83-.7,3.34-2.92V67.13a4.4,4.4,0,0,1,.81.94l.52,1,.5,1.14.51,1.25.38,1,.23.76a2.14,2.14,0,0,1,.08.56,1.35,1.35,0,0,1-1.55,1.51,8,8,0,0,1-3.46-1l-.73-.41-1-.62a1,1,0,0,1-.34.64,6.17,6.17,0,0,1-.75.19h-1.72Zm5.09-.28a5.14,5.14,0,0,0,1.69.89l-1.25-2.36a2,2,0,0,0-.22-.47l-.38-.6-.43-.61a3.24,3.24,0,0,0-.67.53l-.15.31-.06.33q0,.81,1.47,2Zm11,1.8h-5.65l.34-.32.3-.32.23-.33.25-.45a2.12,2.12,0,0,0,.16-.83V60.56l-.15-.31a5.28,5.28,0,0,0-.75-.92l3.07-3,.22.41-.09.19-.14.32-.19.64-.06.5-.05.89V69.71a5.15,5.15,0,0,1-.38,2.2l-.54.67h3.43Zm-.56-1.52h4.08l-1.88-2L360.05,69l2.11-1.75.65-.54.54-.48.4-.37.86-.8.83.8L367,67.23,369.17,69l-1.5,1.61-1.25,1.33-.66.66h4.77V74.1h-5l-.81-.86-.75.86h-4.59Zm6.34-2.34-.17-.28-.13-.17a1.93,1.93,0,0,0-.78-.48c-.18,0-.48.23-.89.69l-.2.37,1.09,1.26ZM370,72.58h1.78V61.28a1.33,1.33,0,0,0-.38-.93L371,60l-.39-.4,3.3-3.06V74.1H370Zm12.7,1.61c0,.12-.36.42-1.08.88a5.64,5.64,0,0,1-2.47.67,2.85,2.85,0,0,1-2.46-1.19,4.58,4.58,0,0,1-.72-2.67V59.33a5.06,5.06,0,0,0-.17-1.58,2.09,2.09,0,0,0-.44-.73,4,4,0,0,0-.81-.59l3.59-3V71.88l0,1.17a2,2,0,0,0,.15.7,1.8,1.8,0,0,0,1.87,1.13,5.24,5.24,0,0,0,2-.58Z"/><path class="cls-1" d="M74.18,70.43A6.24,6.24,0,0,1,74,71.89a3.38,3.38,0,0,1-.45,1,2.62,2.62,0,0,1-.68.69,3.17,3.17,0,0,1-1,.45,5.32,5.32,0,0,1-1.35.16A5.49,5.49,0,0,1,69,74a2.53,2.53,0,0,1-1.12-.69,2.92,2.92,0,0,1-.63-1.13,5.88,5.88,0,0,1-.2-1.66V65.41a7.31,7.31,0,0,0,0-.82,1.22,1.22,0,0,0-.12-.34.7.7,0,0,0-.21-.21,2.16,2.16,0,0,0-.52-.19v-.38h3.27v.38a1.73,1.73,0,0,0-.61.24.72.72,0,0,0-.23.41,4.87,4.87,0,0,0-.06.91v5.52a4.18,4.18,0,0,0,.16,1.27,1.8,1.8,0,0,0,.44.8,1.67,1.67,0,0,0,.69.41,3.08,3.08,0,0,0,1,.13,2.25,2.25,0,0,0,1-.19,1.82,1.82,0,0,0,.69-.58,2.3,2.3,0,0,0,.37-1,8.7,8.7,0,0,0,.11-1.52V65.41a4.35,4.35,0,0,0-.07-.92.68.68,0,0,0-.22-.38,1.6,1.6,0,0,0-.63-.26v-.38h3.11v.38a1.68,1.68,0,0,0-.62.26.75.75,0,0,0-.23.4,4.68,4.68,0,0,0-.06.9ZM84.1,74.1H81v-.38a2.24,2.24,0,0,0,.44-.16.6.6,0,0,0,.22-.2.92.92,0,0,0,.14-.38,4,4,0,0,0,0-.79v-2q0-.56,0-1a4,4,0,0,0-.1-.73,1.17,1.17,0,0,0-.43-.72,1.06,1.06,0,0,0-.33-.18,1.64,1.64,0,0,0-.49-.07,1.27,1.27,0,0,0-.58.13,2.29,2.29,0,0,0-.6.41,2.08,2.08,0,0,0-.48.59,1.39,1.39,0,0,0-.14.66v2.91a4.9,4.9,0,0,0,.06.93.65.65,0,0,0,.24.39,1.4,1.4,0,0,0,.57.24v.38H76.51v-.38a2.24,2.24,0,0,0,.44-.16.66.66,0,0,0,.21-.2A.92.92,0,0,0,77.3,73a4,4,0,0,0,0-.8v-3.4c0-.33,0-.6,0-.8a1.27,1.27,0,0,0-.11-.49.61.61,0,0,0-.28-.27,2.22,2.22,0,0,0-.55-.15v-.42l1.83-.07h.47l-.08,1.27.11,0a7.38,7.38,0,0,1,.93-.84,3.26,3.26,0,0,1,.71-.38,2,2,0,0,1,.77-.14,2.48,2.48,0,0,1,.75.1,1.65,1.65,0,0,1,1,.8,2.64,2.64,0,0,1,.24.72,5.36,5.36,0,0,1,.08,1.07v2.94a7.33,7.33,0,0,0,0,.78,1,1,0,0,0,.11.37.61.61,0,0,0,.23.22,2.42,2.42,0,0,0,.51.19Zm1.32-.38a2.09,2.09,0,0,0,.43-.16.6.6,0,0,0,.22-.2.92.92,0,0,0,.14-.38,5,5,0,0,0,.05-.8v-3.4c0-.33,0-.6,0-.8a1.28,1.28,0,0,0-.1-.49.63.63,0,0,0-.29-.27,2.25,2.25,0,0,0-.54-.15v-.42l1.82-.07h.47v5.58a4.9,4.9,0,0,0,.06.93.65.65,0,0,0,.24.39,1.54,1.54,0,0,0,.57.24v.38h-3ZM87.65,63.6v1.51H86.21V63.6Zm4.78,3.05V67a2.2,2.2,0,0,0-.51.16.54.54,0,0,0-.22.2.68.68,0,0,0-.08.34,1.78,1.78,0,0,0,.06.44,4,4,0,0,0,.15.53l1.36,3.94,1.59-3.77a5.38,5.38,0,0,0,.22-.62,1.86,1.86,0,0,0,.06-.45.69.69,0,0,0-.17-.5,1.28,1.28,0,0,0-.65-.27v-.39h2.92V67a1,1,0,0,0-.47.19,1.4,1.4,0,0,0-.33.4q-.17.28-.39.78l-2.62,5.77h-.92l-2.11-5.82a7.49,7.49,0,0,0-.35-.82.92.92,0,0,0-.72-.5v-.39Zm11.65,6.13a6.4,6.4,0,0,1-.92.82,3.39,3.39,0,0,1-.91.46,3.52,3.52,0,0,1-1.1.17,3,3,0,0,1-2.43-1,4.33,4.33,0,0,1-.81-2.84,4.72,4.72,0,0,1,.41-2.05A3.22,3.22,0,0,1,99.51,67a3.32,3.32,0,0,1,1.78-.48,3.21,3.21,0,0,1,1.34.25,2.24,2.24,0,0,1,.88.68,3.16,3.16,0,0,1,.52,1.09,7.12,7.12,0,0,1,.2,1.72H99.32v.14A4.92,4.92,0,0,0,99.53,72a1.86,1.86,0,0,0,1.91,1.34,2.69,2.69,0,0,0,1.15-.24,3.44,3.44,0,0,0,1-.78Zm-1.31-3.16a5.82,5.82,0,0,0-.21-1.38,1.7,1.7,0,0,0-.49-.82,1.27,1.27,0,0,0-.86-.28,1.52,1.52,0,0,0-1.28.64,3.48,3.48,0,0,0-.57,1.84Zm5-1.67.11,0a5.72,5.72,0,0,1,.8-.82,2.7,2.7,0,0,1,1.75-.63,6.68,6.68,0,0,1,.82,0v1.79h-.88a2,2,0,0,0-.4-.61.8.8,0,0,0-.57-.19,1.06,1.06,0,0,0-.56.16,2.15,2.15,0,0,0-.54.48,1.72,1.72,0,0,0-.45,1.23v2.73a3.5,3.5,0,0,0,.09,1,.7.7,0,0,0,.28.4,1.62,1.62,0,0,0,.6.19v.38h-3.14v-.38a2,2,0,0,0,.42-.16.6.6,0,0,0,.22-.2.8.8,0,0,0,.14-.38,4,4,0,0,0,0-.8v-3.4c0-.33,0-.6,0-.8a1.27,1.27,0,0,0-.11-.49.63.63,0,0,0-.29-.27,2.12,2.12,0,0,0-.54-.15v-.41l1.82-.08h.48Zm9.84.41h-.75a2.43,2.43,0,0,0-.4-.74,1.31,1.31,0,0,0-.53-.37,2,2,0,0,0-.73-.11,1.53,1.53,0,0,0-1,.29,1,1,0,0,0-.37.8,1.08,1.08,0,0,0,.15.59,1.5,1.5,0,0,0,.46.44,7.67,7.67,0,0,0,1.1.53,7.35,7.35,0,0,1,1.22.64,2.18,2.18,0,0,1,.68.67,1.65,1.65,0,0,1,.25.91,2.28,2.28,0,0,1-.21,1,1.81,1.81,0,0,1-.6.69,2.45,2.45,0,0,1-.9.38,5.27,5.27,0,0,1-1.15.12,7.51,7.51,0,0,1-1.27-.1,11.59,11.59,0,0,1-1.2-.25V72.25h.76a2,2,0,0,0,.62,1,1.8,1.8,0,0,0,1.14.32,2.51,2.51,0,0,0,.55-.06,1.27,1.27,0,0,0,.48-.19.91.91,0,0,0,.33-.37,1.16,1.16,0,0,0,.13-.58,1.14,1.14,0,0,0-.16-.65,1.42,1.42,0,0,0-.48-.46,8.52,8.52,0,0,0-1.15-.55,6.61,6.61,0,0,1-1.14-.58,2.38,2.38,0,0,1-.68-.66,1.69,1.69,0,0,1-.24-.91,1.86,1.86,0,0,1,.35-1.11,2.18,2.18,0,0,1,1-.72,4.2,4.2,0,0,1,1.53-.25c.35,0,.68,0,1,0s.72.1,1.2.2Zm1.64,5.36a2.09,2.09,0,0,0,.43-.16.6.6,0,0,0,.22-.2A.92.92,0,0,0,120,73a4,4,0,0,0,0-.8v-3.4c0-.33,0-.6,0-.8a1.27,1.27,0,0,0-.11-.49.59.59,0,0,0-.29-.27,2,2,0,0,0-.54-.15v-.42l1.82-.07h.47v5.58a4,4,0,0,0,.07.93.69.69,0,0,0,.23.39,1.52,1.52,0,0,0,.58.24v.38h-3.06Zm2.23-10.12v1.51H120V63.6ZM123.19,67a1.66,1.66,0,0,0,.63-.21,1.15,1.15,0,0,0,.38-.41,2.07,2.07,0,0,0,.21-.61c.06-.25.11-.61.17-1.08h1.1v1.92h2.52v.79h-2.52v3.47a9.21,9.21,0,0,0,.07,1.2,1.64,1.64,0,0,0,.23.7,1.23,1.23,0,0,0,.39.37,1.3,1.3,0,0,0,.56.11,1.49,1.49,0,0,0,.59-.13,2.22,2.22,0,0,0,.53-.37l.35.42a4,4,0,0,1-1,.78,2.35,2.35,0,0,1-1,.24,1.8,1.8,0,0,1-1.49-.6,2.87,2.87,0,0,1-.5-1.86V67.44h-1.15Zm9.16,7.7a10.52,10.52,0,0,1-.83,1.57,3,3,0,0,1-.9.9,2.06,2.06,0,0,1-1.15.31,6,6,0,0,1-1-.1V75.87h.69a1,1,0,0,0,.24.45.6.6,0,0,0,.4.12.93.93,0,0,0,.42-.09,1.26,1.26,0,0,0,.38-.31,3.86,3.86,0,0,0,.47-.67q.27-.45.6-1.14l-2.18-5.87a5.27,5.27,0,0,0-.34-.79,1.29,1.29,0,0,0-.27-.35,1.19,1.19,0,0,0-.46-.18v-.39h3.17V67a2.2,2.2,0,0,0-.51.16.64.64,0,0,0-.22.21.82.82,0,0,0-.07.34,2.18,2.18,0,0,0,.05.43c0,.15.09.33.16.53l1.39,3.91L134,68.88a3.34,3.34,0,0,0,.2-.58,1.72,1.72,0,0,0,.08-.48.66.66,0,0,0-.18-.51,1.32,1.32,0,0,0-.64-.27v-.39h2.92V67a1,1,0,0,0-.47.19,1.4,1.4,0,0,0-.33.4q-.17.28-.39.78Z"/><path class="cls-1" d="M273.24,57.66a1.36,1.36,0,0,1,0-.17c-.06-.17-.11-.35-.16-.53a2.51,2.51,0,0,1-.1-.86,1.85,1.85,0,0,1,.86-1.54,2.34,2.34,0,0,1,1.05-.38,8.19,8.19,0,0,1,1,0,3.11,3.11,0,0,1,1.24.27,1.82,1.82,0,0,1,1,1.11,2.54,2.54,0,0,1,.12,1.06,3.87,3.87,0,0,1-.12.83c0,.11,0,.16.13.17h.59c.13,0,.17,0,.18-.17,0-.3,0-.6,0-.91l.06-2a1.48,1.48,0,0,1,0-.21.26.26,0,0,1,.13-.18.66.66,0,0,1,.61,0,.44.44,0,0,1,.3.45c0,.84,0,1.69,0,2.53a1.69,1.69,0,0,0,0,.23.37.37,0,0,0,.4.34c.19,0,.37,0,.55,0h.27a.83.83,0,0,0,.05-.18,5.39,5.39,0,0,1,.18-1.38,5.24,5.24,0,0,1,1-2.12,5.41,5.41,0,0,1,2.76-1.75,3,3,0,0,1,.6-.12h.43a6.82,6.82,0,0,1,.79.08,5.5,5.5,0,0,1,4.16,3.24,4.25,4.25,0,0,1,.43,1.36.54.54,0,0,0,.09-.16c.09-.35.17-.71.25-1.07s.1-.61.15-.92c0,0,0-.08,0-.11a19.07,19.07,0,0,0,.05-2.39c0-.53-.08-1.06-.16-1.59a16.68,16.68,0,0,0-.34-1.71.58.58,0,0,1,0-.23.05.05,0,0,1,0,0h.05a.52.52,0,0,1,.1.11,12.91,12.91,0,0,1,2.09,5.13,13.78,13.78,0,0,1,.16,1.44,12.64,12.64,0,0,1,0,2,12.26,12.26,0,0,1-.33,1.89,16,16,0,0,1-1.09,3,20.75,20.75,0,0,1-2.23,3.55,23.37,23.37,0,0,1-1.79,2.06,8.61,8.61,0,0,1-.86.74,17.67,17.67,0,0,1-2.8,1.82,19,19,0,0,1-3,1.29,18.26,18.26,0,0,1-2,.51l-.84.13c-.53.09-1.08.09-1.61.16a4.17,4.17,0,0,1-.5,0c-.22,0-.44,0-.67,0l-.66-.05-.15,0a14.83,14.83,0,0,1-2.81-.45,17.3,17.3,0,0,1-1.69-.52,22.06,22.06,0,0,1-5.3-2.75,5.74,5.74,0,0,1-.78-.7,21.29,21.29,0,0,1-3-3.84,17.57,17.57,0,0,1-1.68-3.66,15,15,0,0,1-.44-1.72,17,17,0,0,1-.27-2.37c0-.2,0-.4,0-.61,0-.59.11-1.17.21-1.76a14.31,14.31,0,0,1,1.81-4.81,20.11,20.11,0,0,1,3-3.91l.51-.52a1.22,1.22,0,0,1,.17-.15c.08.07,0,.12,0,.16-.16.28-.34.55-.5.83a14,14,0,0,0-1.4,3.56c-.09.39-.2.79-.26,1.19a8.55,8.55,0,0,0-.13,1.24c0,.56,0,1.13,0,1.69,0,.18,0,.37,0,.55a11.59,11.59,0,0,0,.26,1.43,12.81,12.81,0,0,0,.64,2,1.94,1.94,0,0,1,.1.17.48.48,0,0,0,.08-.11c0-.09,0-.19,0-.29a4.62,4.62,0,0,1,.69-2.1,3.38,3.38,0,0,1,1.89-1.47,2.16,2.16,0,0,1,.71-.12c.26,0,.52-.05.79,0a1.55,1.55,0,0,1,.84.17,2.91,2.91,0,0,1,.3.17l1,.7a.5.5,0,0,1,.24.34.46.46,0,0,0,.1.18,5.7,5.7,0,0,1,.91,1.87,5.27,5.27,0,0,1,.14.69c0,.11.05.22.07.32s0,0,.06,0h.6l.55,0Zm17.86.85a.38.38,0,0,0-.28-.06h-.75c-.94,0-1.87,0-2.8-.06h-.11c-.5,0-1,0-1.48,0s-.74,0-1.11,0c-.63,0-1.26,0-1.89-.05-.08,0-.16,0-.23.06s0,.1,0,.15c0,.35,0,.7,0,1.05s0,.7,0,1a.21.21,0,0,1-.22.22h-.38c-.29,0-.34,0-.34-.33V58.57a.15.15,0,0,0-.17-.15h-.41l-.75,0h-.9c-.48,0-.95,0-1.43,0h-.41l-.58,0H275a8.54,8.54,0,0,1-1.13,0h-.12c-.32,0-.64,0-1,0l-.8.07a1.59,1.59,0,0,0-.08.64c0,.29,0,.58,0,.88l-.09,2.53c0,.21,0,.42,0,.64a.26.26,0,0,1-.18.24,3.69,3.69,0,0,1-.45.11.31.31,0,0,1-.36-.32c0-.07,0-.14,0-.2,0-.51,0-1,0-1.52,0-.88,0-1.76,0-2.65a.27.27,0,0,0-.05-.21c-.27-.05-4.59-.07-5.88,0,0,0-.05,0-.09,0a.35.35,0,0,0,0,.11A2.54,2.54,0,0,0,265,59a16.43,16.43,0,0,0,1.55,2.14,17.39,17.39,0,0,0,1.5,1.59,13.74,13.74,0,0,0,4.2,2.56,13.74,13.74,0,0,0,4.72.9,15.5,15.5,0,0,0,1.66-.08,17,17,0,0,0,2-.34,18.89,18.89,0,0,0,3.78-1.34c.73-.34,1.43-.74,2.13-1.13a11.23,11.23,0,0,0,2.28-1.65,11.47,11.47,0,0,0,2.25-3l.06-.15Zm-4.41-1h1.2l1.66,0h1.07c.17,0,.21,0,.18-.21a6.51,6.51,0,0,0-.63-1.83A4.52,4.52,0,0,0,289,54.06a4.15,4.15,0,0,0-1.84-.82,3.53,3.53,0,0,0-2.83.65,4.15,4.15,0,0,0-1.19,1.41,6.74,6.74,0,0,0-.64,1.74.56.56,0,0,0,0,.34c0,.13.09.18.23.18h1.42l2.53-.05Zm-16,.07c0-.08,0-.12,0-.15,0-.27-.08-.54-.13-.8a3.7,3.7,0,0,0-.49-1.24,2.19,2.19,0,0,0-1.42-1.06,2.65,2.65,0,0,0-2.93,1.33,3.28,3.28,0,0,0-.37,1.74.28.28,0,0,0,.05.12h.84a9.4,9.4,0,0,0,1.3,0h.09l.73,0,1.66,0Zm5.13-.28a.86.86,0,0,0,.45-.08,1,1,0,0,0,.24-1.68,1.13,1.13,0,0,0-1.34,0,1,1,0,0,0-.08,1.57,1,1,0,0,0,.73.24Z"/><path class="cls-1" d="M254.4,42.71c-.07-.07,0-.13,0-.19.14-.26.27-.51.42-.76l.84-1.37a14.09,14.09,0,0,0,1.14-2.22c.24-.56.47-1.13.67-1.71l0-.13c-.06,0-.11,0-.14,0a3.62,3.62,0,0,1-.85.2,1,1,0,0,1-1-.37,2,2,0,0,1-.45-1,3.22,3.22,0,0,1,0-.93,9,9,0,0,1,.86-2.67,18.78,18.78,0,0,1,1.22-2.19,6.26,6.26,0,0,1,.45-.6c.09-.1.17-.12.22-.07s0,.14,0,.21l-.15.5a1.4,1.4,0,0,0,0,.81c.25.94.49,1.89.73,2.84a9.29,9.29,0,0,1,.26,1.49c0,.15.05.3.07.47a1.38,1.38,0,0,0,.2,0l.9,0H261a.15.15,0,0,0,.07,0c0-.07,0-.09-.06-.12l-.53-.46a2.05,2.05,0,0,1-.61-.94,4.78,4.78,0,0,1-.23-1.45,2.09,2.09,0,0,1,.13-.66,11.08,11.08,0,0,1,.65-1.65c.4-.8.85-1.59,1.33-2.35.09-.15.17-.31.26-.45s0-.06.18-.1c0,.09,0,.16,0,.24s-.07.32-.09.48a2.35,2.35,0,0,0,.12.95c.15.68.31,1.35.47,2,.12.5.23,1,.34,1.51.21.91.43,1.83.64,2.74,0,.08.05.15.07.21a3.64,3.64,0,0,0,1.19,0c.06-.07,0-.14,0-.22-.09-.3-.17-.59-.25-.89a2.06,2.06,0,0,1,.09-1.34,7.13,7.13,0,0,1,.73-1.29.18.18,0,0,1,.05-.07.21.21,0,0,1,.11,0s0,0,0,.07a.12.12,0,0,1,0,.08,2,2,0,0,0,0,.64,5.67,5.67,0,0,0,.36,1.28l.07.13.06,0a.46.46,0,0,0,.07-.07,21.4,21.4,0,0,1,2.23-2.87l.36-.38a1.21,1.21,0,0,1,.49-.31.71.71,0,0,1,.62.05,1.57,1.57,0,0,1,.4.33,4.43,4.43,0,0,1,.63,1.07,14.1,14.1,0,0,1,.52,1.55c.18.64.33,1.29.46,2A1.36,1.36,0,0,0,272,35a2.81,2.81,0,0,0,.71,0,1.22,1.22,0,0,0,0-.17,1.47,1.47,0,0,0,0-.21V24.78a1.42,1.42,0,0,0-.2-.72c-.09-.14-.16-.28-.25-.43a.27.27,0,0,1,0-.3c.18-.31.35-.62.52-.94l.72-1.3c0-.08.08-.17.21-.19a.61.61,0,0,1,0,.11q0,7.48,0,15c0,.1,0,.21,0,.32a.15.15,0,0,1-.15.14h-6.87a1.29,1.29,0,0,1-.77-.23.2.2,0,0,1-.07-.3l.59-1c.06-.11.14-.13.23-.05a.78.78,0,0,0,.54.17h2.8c.13,0,.17,0,.15-.18a7.07,7.07,0,0,0-.74-2.29,3.28,3.28,0,0,0-.27-.38A1.42,1.42,0,0,0,269,32a.45.45,0,0,0-.68,0l-.2.2c-.29.37-.6.72-.87,1.1-.48.69-.93,1.41-1.4,2.11a4,4,0,0,1-.28.4,2.91,2.91,0,0,1-.33.37.92.92,0,0,1-.67.25h-5.76c-.47,0-.39,0-.51.34a15.39,15.39,0,0,1-1,1.93c-.7,1.14-1.48,2.23-2.27,3.32l-.36.49C254.57,42.61,254.51,42.7,254.4,42.71Zm2-10.84c0,.06-.07.08-.08.1a2.85,2.85,0,0,0-.09,1.61,1.66,1.66,0,0,0,1.06,1.13c0-.06,0-.11,0-.15C257,33.66,256.72,32.79,256.39,31.87Zm5.6,1.06a.43.43,0,0,0,0-.16.8.8,0,0,0-.33-.61.21.21,0,0,0-.29,0,.56.56,0,0,0-.19.31c0,.13,0,.25-.07.37a1.34,1.34,0,0,0,.08.66.36.36,0,0,0,.11.16c.22.19.41.23.57-.11A1.25,1.25,0,0,0,262,32.93Z"/><path class="cls-1" d="M300,31.84a1,1,0,0,0-.45.32,11.1,11.1,0,0,0-1,1.25c-.45.67-.89,1.34-1.33,2l-.32.46a1.56,1.56,0,0,1-.56.49,1.18,1.18,0,0,1-.49.08H290a.2.2,0,0,0-.2.14c-.07.18-.15.35-.23.53a15.62,15.62,0,0,1-.84,1.56c-.56.93-1.19,1.82-1.82,2.71l-.75,1a.69.69,0,0,1-.28.28c-.1,0-.09-.1-.06-.17s.19-.36.3-.53c.32-.54.64-1.07,1-1.59A14.2,14.2,0,0,0,288,38.7a23.62,23.62,0,0,0,.9-2.23s0-.09,0-.14,0,0-.05,0a4.41,4.41,0,0,1-.87.21,1,1,0,0,1-.89-.26,2,2,0,0,1-.5-.87,3,3,0,0,1,0-1.33,8.4,8.4,0,0,1,.79-2.39,18.63,18.63,0,0,1,1.27-2.32c.1-.15.22-.3.33-.44a1.29,1.29,0,0,1,.16-.17s.09-.08.15,0,.07.08,0,.17-.1.34-.15.5a1.79,1.79,0,0,0,0,.92l.58,2.29c.07.29.13.58.21.87a9.41,9.41,0,0,1,.22,1.41s0,.09,0,.15a.73.73,0,0,0,.2,0l.67,0h1.53c0-.09,0-.11-.09-.15l-.55-.47a1.87,1.87,0,0,1-.55-.84,3.63,3.63,0,0,1-.23-1.17,2.28,2.28,0,0,1,0-.78c.08-.28.17-.55.26-.83a10,10,0,0,1,.65-1.46c.42-.82.92-1.6,1.39-2.39,0,0,0-.05.05-.06a.13.13,0,0,1,.08,0,.08.08,0,0,1,0,0,1.64,1.64,0,0,1,0,.23c0,.15-.06.29-.08.43a1.28,1.28,0,0,0,0,.55c.19.81.38,1.62.56,2.43.15.65.29,1.31.44,2l.45,1.92c0,.12.05.23.08.34s.05.17.07.26a6.09,6.09,0,0,0,1.12,0,.36.36,0,0,0,0-.29c-.08-.27-.16-.54-.23-.81a1.91,1.91,0,0,1,0-1.25,4.07,4.07,0,0,1,.36-.76c.13-.2.25-.4.37-.6s.08-.13.17-.14a.09.09,0,0,1,.06.12,2.13,2.13,0,0,0,.09,1.17,6.18,6.18,0,0,0,.27.83,1.47,1.47,0,0,0,.09.17.68.68,0,0,0,.12-.13,16.73,16.73,0,0,1,1.5-2c.31-.37.64-.73,1-1.1a1.53,1.53,0,0,1,.59-.41.72.72,0,0,1,.64.06,1.61,1.61,0,0,1,.38.31,3.84,3.84,0,0,1,.61,1.05,14.65,14.65,0,0,1,.76,2.41c.08.4.17.8.25,1.2a1.2,1.2,0,0,1,0,.2c0,.4,0,.79,0,1.19,0,.15,0,.19-.18.2h-5.1a1.18,1.18,0,0,1-.63-.18l-.12-.09a.17.17,0,0,1,0-.25l.06-.1.48-.8.07-.13a.12.12,0,0,1,.18,0,.94.94,0,0,0,.71.19h2.53c.3,0,.3,0,.25-.29a6.75,6.75,0,0,0-.6-2,4.15,4.15,0,0,0-.35-.57A1,1,0,0,0,300,31.84Zm-11.27,2.85a.21.21,0,0,0,0-.08,25.15,25.15,0,0,0-.86-2.67s0,0-.06,0,0,.05-.05.09a2.65,2.65,0,0,0-.13,1.34,1.53,1.53,0,0,0,.48,1,3,3,0,0,0,.58.37s0,0,0,0ZM293.46,33c0-.15,0-.26,0-.36a.75.75,0,0,0-.2-.42c-.21-.21-.41-.18-.54.1,0,0,0,0,0,0a2.83,2.83,0,0,0-.09.37,1.37,1.37,0,0,0,.06.72.5.5,0,0,0,.25.27c.16.08.27.07.37-.08a.72.72,0,0,0,.12-.23C293.42,33.3,293.44,33.14,293.46,33Z"/><path class="cls-1" d="M287.2,73.45l.12-.11,1.79-1.12c.11,0,.12.11.12.19v6.87a.4.4,0,0,1-.06.28.56.56,0,0,1-.31,0h-9.44a3.86,3.86,0,0,1-.68-.11.09.09,0,0,1-.08-.07.21.21,0,0,1,0-.12s.05,0,.07,0l.63-.37a.38.38,0,0,1,.33,0,2.19,2.19,0,0,0,.72.09h3.72l.25,0a.43.43,0,0,0,0-.15,2.45,2.45,0,0,0-2.18-1.32,1,1,0,0,0-.29,0,7.46,7.46,0,0,0-1.57.66q-1,.51-2,1a3.4,3.4,0,0,1-1.07.37,1.63,1.63,0,0,1-.31,0h-8.22a.5.5,0,0,0-.37.12,9.7,9.7,0,0,1-1.47,1c-1,.56-2,1.05-3,1.54l-.56.25a.33.33,0,0,1-.14,0s-.05,0-.07,0,0-.06,0-.07a2.48,2.48,0,0,1,.26-.19l1.39-.79a11.31,11.31,0,0,0,2.39-1.79s0-.06.08-.12a.83.83,0,0,0-.16,0,5.86,5.86,0,0,1-.93.09c-.11,0-.23,0-.35,0h-.08a3.08,3.08,0,0,1-1.24-.28,1.64,1.64,0,0,1-.22-.14.61.61,0,0,1-.18-.81,2.5,2.5,0,0,1,.53-.68,10.47,10.47,0,0,1,1.53-1.11q.39-.24.78-.45l.56-.25a.47.47,0,0,1,.17,0,.07.07,0,0,1,.06.1,1,1,0,0,1-.11.17c-.19.24-.2.31,0,.56l.19.26.64.87a2.91,2.91,0,0,1,.46.87c0,.15.06.17.22.17l.7,0H272c0-.08-.06-.08-.1-.09l-.76-.22a1.55,1.55,0,0,1-.57-.33,1.06,1.06,0,0,1-.32-.51.44.44,0,0,1,.09-.49,4,4,0,0,1,.73-.7,21.55,21.55,0,0,1,2-1.26l.38-.21a.11.11,0,0,1,.17,0,1.36,1.36,0,0,1-.11.25.29.29,0,0,0,0,.32c.3.44.59.89.88,1.34l1.08,1.62a1,1,0,0,0,.11.17.25.25,0,0,0,.17.1,14.23,14.23,0,0,0,1.46,0l.13,0-.18-.22c-.1-.14-.2-.28-.29-.43a.2.2,0,0,1,0-.24,1.61,1.61,0,0,1,.22-.23,4.13,4.13,0,0,1,1-.63s.06,0,.1,0,0,.08,0,.11a.58.58,0,0,0,.09.39,2.29,2.29,0,0,0,.49.54.15.15,0,0,0,.16,0l.08,0a16.08,16.08,0,0,1,1.62-.78c.61-.24,1.2-.49,1.81-.72a2.82,2.82,0,0,1,1.32-.16,2.9,2.9,0,0,1,1.24.45,5.24,5.24,0,0,1,1.49,1.62l.17.27a.19.19,0,0,0,.06.07h1a1.22,1.22,0,0,0,0-.17V74.23a.51.51,0,0,0-.25-.46l-.27-.17S287.26,73.51,287.2,73.45ZM267,78.76a6,6,0,0,0-1.2-1.31.75.75,0,0,0-.17.14.47.47,0,0,0,0,.7,1.18,1.18,0,0,0,.25.19A4.05,4.05,0,0,0,267,78.76Zm5.76-.42a.66.66,0,0,0,.41-.14c.26-.21.22-.41-.05-.57,0,0-.05,0-.08,0a.87.87,0,0,0-.45,0,.5.5,0,0,0-.43.31.21.21,0,0,0,0,.24.62.62,0,0,0,.18.14Z"/><path class="cls-1" d="M273.71,53.72a.7.7,0,0,1,0-.18,1.69,1.69,0,0,1,0-.23v-6.2a.86.86,0,0,1,.48-.78.8.8,0,0,1,.5-.13h.11c.33,0,.3-.08.3-.33a.23.23,0,0,0-.11-.19l-.23-.13a1.63,1.63,0,0,1-.16-2.67,2.19,2.19,0,0,1,1.15-.43.31.31,0,0,1,.28.08.27.27,0,0,1-.05.11,1,1,0,0,1-.17.12,1.25,1.25,0,0,0-.52,1,1,1,0,0,0,.31.85,2.17,2.17,0,0,0,.42.31.76.76,0,0,0,.44.13,1.58,1.58,0,0,0,.78-.11c.08.05.08.1,0,.16a1.93,1.93,0,0,1-1.1.75l-.12,0a.2.2,0,0,0-.09.31.19.19,0,0,0,.13,0h.37a1,1,0,0,1,.9.63.71.71,0,0,1,.06.25,2.26,2.26,0,0,1,0,.26V52.9c0,.21,0,.41,0,.61s-.05.22-.23.22h-.55a.28.28,0,0,1-.29-.26h0s0-.11,0-.17v-.47c0-1.41,0-2.83,0-4.25,0-.31,0-.62,0-.93a.61.61,0,0,0,0-.14.3.3,0,0,0-.2-.27,1.73,1.73,0,0,0-.31-.07,1.64,1.64,0,0,0-.38,0,.46.46,0,0,0-.42.34,1.45,1.45,0,0,0,0,.29l0,2.3c0,.76,0,1.51,0,2.27a8.68,8.68,0,0,0,0,1,.24.24,0,0,1-.21.27.57.57,0,0,1-.14,0A5.89,5.89,0,0,1,273.71,53.72Z"/><path class="cls-1" d="M275.71,18a1.62,1.62,0,0,1,0,.21v16c0,.53,0,1.06.05,1.6a2,2,0,0,0,.19.72.79.79,0,0,0,.44.44.68.68,0,0,0,.54,0,3,3,0,0,0,.53-.35c.07-.06.15-.21.26-.11s0,.18-.08.25a2.36,2.36,0,0,1-.78.85,3.49,3.49,0,0,1-.39.19.93.93,0,0,1-1.07-.32,2.58,2.58,0,0,1-.45-.87,7.29,7.29,0,0,1-.24-1.46c-.08-.94,0-1.88,0-2.83,0-3.14,0-6.29,0-9.43,0-.21,0-.41,0-.61a2.77,2.77,0,0,0-.14-.86,1.82,1.82,0,0,0-.33-.65c-.16-.21-.16-.21,0-.45.38-.63.77-1.26,1.16-1.88a2.54,2.54,0,0,1,.16-.28Z"/><path class="cls-1" d="M253.52,27.87a.66.66,0,0,1,0,.53,3.34,3.34,0,0,0-.19,1.17,4.19,4.19,0,0,0,.15.8c.12.58.26,1.16.39,1.73s.23.92.34,1.38c.17.74.33,1.48.45,2.22,0,.2.05.39.07.58a.13.13,0,0,1-.12.16h-.21c-.65,0-1.3,0-2,0a1.42,1.42,0,0,1-1.12-.52,2.91,2.91,0,0,1-.6-1.34,5.38,5.38,0,0,1-.07-.69A4.81,4.81,0,0,1,251,32a10.58,10.58,0,0,1,1.12-2.26c.37-.59.78-1.16,1.17-1.73C253.36,27.94,253.4,27.85,253.52,27.87Zm-.6,5.77a1,1,0,0,0-.15-.61c-.08-.12-.18-.24-.35-.22s-.22.15-.26.28a1.63,1.63,0,0,0-.07,1,.55.55,0,0,0,.35.4.15.15,0,0,0,.16,0,.69.69,0,0,0,.21-.24,1.77,1.77,0,0,0,.11-.6Z"/><path class="cls-1" d="M284.59,27.93c0,.07,0,.09,0,.12s0,.22-.07.34a3.6,3.6,0,0,0-.11,1,2.32,2.32,0,0,0,.07.69l.48,2.12c.07.31.15.61.23.91l.57,2.34c.06.23.12.47.17.7s.06.19,0,.29a.19.19,0,0,1-.08,0h-6.55l-.15,0a.76.76,0,0,1,0-.16l.75-2.18v0c0-.06,0-.12.11-.12s.09.06.11.11.14.38.22.57a1.71,1.71,0,0,0,.13.23.52.52,0,0,0,.44.23h2.68a.37.37,0,0,0,.15,0,.21.21,0,0,0,.07-.11.27.27,0,0,0,0-.09,19,19,0,0,0-.41-2c-.14-.55-.26-1.11-.37-1.68a2.52,2.52,0,0,1,.25-1.55,8.29,8.29,0,0,1,1.09-1.61Z"/><path class="cls-1" d="M294.47,79.65c0,.11-.05.12-.1.15a3.1,3.1,0,0,1-.95.35,4.23,4.23,0,0,1-1.18.13,2.37,2.37,0,0,1-.9-.21,1.47,1.47,0,0,1-.89-1.32V73.62c0-.18,0-.36,0-.55a.82.82,0,0,0-.46-.72l-.26-.14a.1.1,0,0,1,0-.12s0,0,0,0l0,0,1.82-1,.11,0c.05,0,.13,0,.13.07a1.93,1.93,0,0,1,0,.24v7.18c0,.24,0,.47,0,.7a.69.69,0,0,0,.46.62,1.56,1.56,0,0,0,.68.13,3.41,3.41,0,0,0,1.14-.19A.57.57,0,0,1,294.47,79.65Z"/><path class="cls-1" d="M263.6,79.58l-.21,0c-1,0-2.06,0-3.08,0a3.06,3.06,0,0,1-1.36-.29,3,3,0,0,1-.43-.29,1,1,0,0,1-.21-.24.69.69,0,0,1,0-.84,2.15,2.15,0,0,1,.32-.41,5,5,0,0,1,1.15-.88c.65-.39,1.32-.72,2-1.06l.11,0a.13.13,0,0,1,.15.06.14.14,0,0,1,0,.16l-.12.16a.53.53,0,0,0,0,.72c.36.54.73,1.08,1.08,1.62a6.3,6.3,0,0,1,.58,1A.33.33,0,0,1,263.6,79.58Zm-3.05-.92a.64.64,0,0,0,.57-.24.23.23,0,0,0,0-.34.8.8,0,0,0-.78-.16.62.62,0,0,0-.21.15.3.3,0,0,0,.12.51,2.18,2.18,0,0,0,.33.08Z"/><path class="cls-1" d="M272.33,44.15a.19.19,0,0,1-.06.2l-.34.36a.33.33,0,0,0-.11.34l.06.4a1.76,1.76,0,0,1,0,.23s-.06.06-.09,0a.28.28,0,0,1-.13,0l-.45-.22a.32.32,0,0,0-.3,0l-.27.12-.32.16a.15.15,0,0,1-.1-.18,4.46,4.46,0,0,1,.07-.51.38.38,0,0,0-.11-.35c-.11-.1-.21-.22-.32-.33s-.13-.11-.09-.2.12-.08.2-.09a3.1,3.1,0,0,1,.42-.08.37.37,0,0,0,.32-.23l.21-.4a1,1,0,0,1,.08-.11c.1,0,.14,0,.17.1s.15.27.22.41a.39.39,0,0,0,.31.23,4,4,0,0,1,.46.08Z"/><path class="cls-1" d="M282.12,45.41l-.3.13c-.13.06-.26.13-.4.18s-.15,0-.14-.1,0-.41.08-.61a.3.3,0,0,0-.1-.28l-.4-.42c-.07-.08,0-.17.07-.2l.57-.11a.34.34,0,0,0,.25-.17c.07-.15.15-.29.23-.43a1,1,0,0,1,.14-.16,1.58,1.58,0,0,1,.13.13l.21.41a.39.39,0,0,0,.32.23,5.12,5.12,0,0,1,.54.1c.11,0,.13.11.06.19s-.27.29-.4.43a.3.3,0,0,0-.09.28c0,.14,0,.27.05.41s0,.11,0,.17-.06.18-.18.12l-.42-.19Z"/><path class="cls-1" d="M293,23.37l-.39.77-.21.42a.83.83,0,0,1-.08.12.09.09,0,0,1-.15,0,.25.25,0,0,1,0-.07c-.2-.37-.39-.74-.58-1.11a.29.29,0,0,1,0-.27c.2-.4.4-.8.59-1.2l0-.05a.1.1,0,0,1,.15,0,.18.18,0,0,1,.05.07C292.55,22.47,292.76,22.92,293,23.37Z"/><path class="cls-1" d="M261.49,23.36a1.47,1.47,0,0,1-.07.17l-.56,1.12c-.05.1-.13.1-.2,0a1.09,1.09,0,0,1-.08-.15l-.51-1a.29.29,0,0,1,0-.32l.54-1.12a.36.36,0,0,1,.08-.12.09.09,0,0,1,.13,0s0,0,0,0,.07.15.11.23l.45.94Z"/><path class="cls-1" d="M251.4,24.6a2,2,0,0,1,.21-.77,1.06,1.06,0,0,1,.17-.2.28.28,0,0,1,.39,0,.78.78,0,0,1,.27.37,1.82,1.82,0,0,1,0,1.22,2.43,2.43,0,0,1-.2.35.48.48,0,0,1-.16.12.22.22,0,0,1-.29,0,1.38,1.38,0,0,1-.22-.26A1.51,1.51,0,0,1,251.4,24.6Z"/><path class="cls-1" d="M252.56,22.19a1.77,1.77,0,0,1-.23.8.74.74,0,0,1-.16.19.25.25,0,0,1-.37,0,.83.83,0,0,1-.27-.37,1.39,1.39,0,0,1-.09-1c.05-.14.09-.28.14-.41a.59.59,0,0,1,.26-.3.24.24,0,0,1,.3,0,.77.77,0,0,1,.33.46C252.51,21.81,252.53,22,252.56,22.19Z"/><path class="cls-1" d="M281.14,26.64a1.23,1.23,0,0,1,.33-1,.29.29,0,0,1,.44,0,.84.84,0,0,1,.28.53,2.38,2.38,0,0,1,.06.37,1.55,1.55,0,0,1-.22.94l0,.05c-.19.26-.38.27-.59,0a1.12,1.12,0,0,1-.26-.6C281.14,26.83,281.14,26.73,281.14,26.64Z"/><path class="cls-1" d="M281.14,29.32a1.48,1.48,0,0,1,.11-.67,1.42,1.42,0,0,1,.2-.28.32.32,0,0,1,.47,0,.79.79,0,0,1,.24.35,1.9,1.9,0,0,1,0,1.2,1.22,1.22,0,0,1-.2.35.33.33,0,0,1-.51,0,1.14,1.14,0,0,1-.28-.62A1.94,1.94,0,0,1,281.14,29.32Z"/><path class="cls-1" d="M272.62,73.4s0,.08-.06.1l-.12.09-.63.42a.23.23,0,0,1-.27,0l-.75-.49a.12.12,0,0,1,0-.22l.78-.55a.18.18,0,0,1,.22,0c.25.17.49.35.73.53C272.56,73.31,272.58,73.36,272.62,73.4Z"/><path class="cls-1" d="M259.9,73.41a1,1,0,0,1-.61-.23.35.35,0,0,1,0-.54.85.85,0,0,1,.8-.26,1.14,1.14,0,0,1,.3.09.54.54,0,0,1,.29.38.29.29,0,0,1,0,.22.79.79,0,0,1-.58.34Z"/><path class="cls-1" d="M259.9,74.56a1,1,0,0,1-.57-.19.37.37,0,0,1-.05-.6.9.9,0,0,1,1.19-.07.55.55,0,0,1,.18.3.25.25,0,0,1,0,.22.77.77,0,0,1-.45.3A1.09,1.09,0,0,1,259.9,74.56Z"/><path class="cls-1" d="M275.51,53.46a1.32,1.32,0,0,1-.18-.05.46.46,0,0,1-.27-.41.48.48,0,0,1,.36-.41.5.5,0,0,1,.53.21A.46.46,0,0,1,275.51,53.46Z"/></svg>