<svg xmlns="http://www.w3.org/2000/svg" xmlns:xlink="http://www.w3.org/1999/xlink" width="300" zoomAndPan="magnify" viewBox="0 0 224.87999 30.000001" height="40" preserveAspectRatio="xMidYMid meet" version="1.0"><defs><clipPath id="55ba117b49"><path d="M 57 2 L 160 2 L 160 27.894531 L 57 27.894531 Z M 57 2 " clip-rule="nonzero"/></clipPath></defs><g clip-path="url(#55ba117b49)"><path fill="#273b4f" d="M 64.652344 18.21875 C 65.160156 19.160156 65.507812 20.160156 65.699219 21.214844 L 61.175781 21.214844 C 60.28125 21.246094 59.480469 20.988281 58.769531 20.449219 C 58.140625 19.953125 57.832031 19.304688 57.835938 18.503906 C 57.835938 17.566406 58.585938 16.414062 60.082031 15.046875 L 60.644531 14.566406 L 61.378906 13.988281 L 62.386719 13.234375 L 63.316406 12.566406 L 63.316406 12.796875 L 63.433594 13.003906 L 63.132812 13.554688 L 62.996094 13.9375 L 62.9375 14.292969 L 63.015625 14.664062 L 64.632812 18.21875 Z M 61.390625 7.023438 C 61.386719 7.304688 61.289062 7.550781 61.097656 7.761719 C 60.890625 7.988281 60.636719 8.097656 60.332031 8.089844 C 60.03125 8.089844 59.773438 7.980469 59.566406 7.761719 C 59.34375 7.566406 59.238281 7.320312 59.246094 7.023438 C 59.277344 6.742188 59.382812 6.496094 59.566406 6.285156 C 59.675781 6.183594 59.796875 6.09375 59.921875 6.019531 L 60.324219 5.929688 C 60.601562 5.953125 60.847656 6.050781 61.070312 6.222656 C 61.175781 6.308594 61.246094 6.417969 61.28125 6.550781 L 61.335938 6.773438 Z M 61.390625 9.476562 C 61.390625 9.765625 61.285156 10.011719 61.078125 10.210938 L 60.742188 10.453125 L 60.332031 10.542969 C 60.03125 10.542969 59.773438 10.433594 59.566406 10.210938 C 59.347656 10.015625 59.238281 9.769531 59.246094 9.476562 C 59.273438 9.195312 59.378906 8.949219 59.566406 8.738281 C 59.667969 8.636719 59.785156 8.558594 59.914062 8.496094 C 60.046875 8.433594 60.183594 8.402344 60.332031 8.410156 C 60.621094 8.410156 60.871094 8.511719 61.078125 8.710938 C 61.1875 8.796875 61.257812 8.90625 61.292969 9.039062 L 61.34375 9.253906 Z M 62.1875 18.449219 C 62.199219 18.199219 62.109375 17.996094 61.914062 17.835938 C 61.730469 17.6875 61.523438 17.59375 61.292969 17.554688 C 61.046875 17.5625 60.84375 17.660156 60.679688 17.835938 C 60.546875 18.023438 60.460938 18.226562 60.410156 18.449219 C 60.410156 18.695312 60.492188 18.90625 60.652344 19.089844 C 60.851562 19.210938 61.0625 19.292969 61.292969 19.339844 C 61.527344 19.339844 61.734375 19.261719 61.90625 19.097656 C 62.078125 18.921875 62.171875 18.707031 62.1875 18.460938 Z M 75.082031 21.214844 L 72.765625 21.214844 C 72.046875 22.132812 71.230469 22.949219 70.3125 23.667969 C 69.09375 24.671875 67.441406 25.886719 65.371094 27.320312 L 65.253906 27.347656 C 65.210938 27.371094 65.171875 27.402344 65.140625 27.445312 L 65.058594 27.445312 L 64.972656 27.53125 C 64.953125 27.445312 64.953125 27.355469 64.972656 27.265625 L 65.371094 26.867188 L 67.921875 24.796875 C 69.148438 23.675781 70.21875 22.417969 71.128906 21.027344 L 70.082031 21.214844 L 68.863281 21.3125 L 68.222656 21.3125 L 67.859375 21.222656 C 67.796875 21.238281 67.734375 21.238281 67.671875 21.222656 L 67.46875 21.132812 C 67.277344 21.035156 67.101562 20.921875 66.933594 20.789062 C 66.53125 20.480469 66.332031 20.078125 66.339844 19.570312 L 66.339844 19.339844 L 66.394531 19.160156 C 66.558594 18.214844 67.445312 16.984375 69.058594 15.472656 C 70.402344 14.230469 71.253906 13.597656 71.617188 13.597656 C 71.679688 13.601562 71.730469 13.621094 71.777344 13.660156 L 71.484375 14.15625 C 71.363281 14.328125 71.292969 14.511719 71.261719 14.71875 L 71.261719 14.789062 L 71.308594 15.011719 C 71.308594 15.011719 71.804688 16.050781 72.800781 18.015625 C 72.960938 18.355469 73.09375 18.710938 73.199219 19.074219 C 73.285156 19.363281 73.332031 19.660156 73.34375 19.960938 L 75.121094 19.960938 Z M 70.710938 19.585938 L 70.304688 18.816406 L 70.167969 18.574219 L 70.019531 18.324219 L 69.699219 17.835938 L 68.808594 16.574219 L 68.605469 16.859375 L 68.445312 17.125 L 68.367188 17.417969 L 68.3125 17.738281 C 68.339844 18.078125 68.46875 18.375 68.695312 18.628906 C 68.785156 18.738281 68.886719 18.832031 69.003906 18.914062 L 69.484375 19.171875 Z M 74.613281 19.863281 L 78.292969 19.863281 L 77.179688 19.347656 L 76.46875 19.019531 C 76.074219 18.785156 75.765625 18.464844 75.546875 18.058594 C 75.328125 17.65625 75.230469 17.222656 75.253906 16.761719 C 75.4375 16.171875 75.730469 15.648438 76.140625 15.1875 C 76.664062 14.585938 77.222656 14.011719 77.8125 13.472656 L 78.949219 12.480469 L 80.210938 11.449219 L 80 12.015625 L 79.890625 12.335938 L 79.828125 12.664062 L 83.027344 19.863281 L 83.652344 19.863281 L 83.652344 21.214844 L 74.613281 21.214844 Z M 78.734375 8.222656 L 77.304688 9.652344 L 75.847656 8.222656 L 77.304688 6.695312 Z M 79.757812 17.757812 C 79.753906 17.511719 79.660156 17.304688 79.472656 17.144531 C 79.292969 16.996094 79.089844 16.902344 78.859375 16.859375 C 78.597656 16.855469 78.375 16.949219 78.195312 17.144531 C 78.070312 17.332031 77.984375 17.535156 77.945312 17.757812 C 77.945312 18.003906 78.027344 18.222656 78.195312 18.40625 C 78.402344 18.523438 78.625 18.601562 78.859375 18.644531 C 79.097656 18.652344 79.296875 18.570312 79.464844 18.40625 C 79.640625 18.226562 79.738281 18.007812 79.757812 17.757812 Z M 83.136719 19.863281 L 85.605469 19.863281 L 85.429688 19.578125 L 85.0625 18.949219 L 84.867188 18.511719 L 84.804688 18.105469 C 84.804688 17.835938 85.117188 17.394531 85.746094 16.761719 L 86.175781 16.425781 L 86.9375 15.855469 L 86.851562 16.15625 L 86.851562 16.476562 C 86.875 16.707031 86.933594 16.929688 87.027344 17.144531 L 87.1875 17.472656 L 87.390625 17.835938 L 87.84375 18.378906 C 88.546875 17.777344 89.285156 17.234375 90.066406 16.742188 C 90.957031 16.167969 91.84375 15.617188 92.820312 15.089844 L 93.203125 14.894531 L 93.59375 14.753906 L 94.03125 14.65625 L 94.464844 14.65625 C 96.289062 14.65625 97.851562 16.433594 99.167969 19.898438 L 99.566406 19.898438 L 99.566406 21.214844 L 88.234375 21.214844 C 88.140625 21.207031 88.054688 21.179688 87.96875 21.132812 L 87.515625 21.019531 C 87.417969 20.992188 87.34375 20.9375 87.292969 20.851562 L 88.113281 20.183594 L 88.75 19.585938 C 89.09375 19.839844 89.476562 19.945312 89.898438 19.898438 L 95.824219 19.898438 C 95.644531 19.191406 95.328125 18.554688 94.867188 17.988281 C 94.605469 17.59375 94.273438 17.277344 93.863281 17.042969 C 93.449219 16.808594 93.007812 16.679688 92.539062 16.65625 C 91.605469 16.949219 90.761719 17.410156 90.011719 18.042969 L 87.746094 19.820312 L 87.117188 20.316406 L 86.628906 20.679688 C 86.054688 21.082031 85.421875 21.277344 84.726562 21.265625 L 83.199219 21.265625 Z M 99.058594 19.863281 L 100.640625 19.863281 L 100.640625 9.820312 C 100.640625 9.5 100.527344 9.222656 100.304688 8.996094 L 99.957031 8.710938 L 99.609375 8.355469 L 102.542969 5.636719 L 102.542969 21.214844 L 99.023438 21.214844 Z M 110.347656 21.292969 C 110.347656 21.402344 110.027344 21.667969 109.386719 22.074219 C 108.699219 22.445312 107.96875 22.644531 107.191406 22.671875 C 106.761719 22.691406 106.351562 22.609375 105.964844 22.421875 C 105.574219 22.234375 105.253906 21.964844 105.003906 21.613281 C 104.542969 20.890625 104.328125 20.101562 104.363281 19.242188 L 104.363281 8.089844 C 104.390625 7.613281 104.339844 7.144531 104.214844 6.683594 C 104.128906 6.441406 104 6.226562 103.824219 6.035156 C 103.605469 5.832031 103.367188 5.65625 103.101562 5.511719 L 106.292969 2.84375 L 106.292969 20.28125 C 106.300781 20.496094 106.34375 20.703125 106.425781 20.902344 C 106.558594 21.238281 106.78125 21.5 107.089844 21.6875 C 107.398438 21.871094 107.730469 21.945312 108.089844 21.90625 C 108.714844 21.855469 109.308594 21.683594 109.867188 21.390625 Z M 126.28125 21.214844 L 112.949219 21.214844 L 113.839844 19.933594 C 114.113281 19.457031 114.445312 19.019531 114.824219 18.621094 C 114.988281 18.953125 115.199219 19.25 115.464844 19.507812 C 115.679688 19.75 115.949219 19.875 116.273438 19.890625 L 122.128906 19.890625 C 122.105469 19.605469 122.039062 19.328125 121.933594 19.0625 C 121.765625 18.609375 121.570312 18.167969 121.339844 17.738281 C 120.941406 17.070312 120.675781 16.347656 120.546875 15.578125 C 120.546875 15.144531 120.929688 14.613281 121.683594 13.980469 C 122.292969 13.484375 122.945312 13.054688 123.640625 12.691406 L 123.496094 12.957031 L 123.410156 13.191406 L 123.3125 13.464844 L 123.230469 13.757812 L 123.167969 14.21875 C 123.171875 14.378906 123.195312 14.539062 123.238281 14.691406 C 123.390625 15.117188 123.988281 16.414062 125.015625 18.601562 Z M 118.921875 11.4375 C 118.917969 11.722656 118.820312 11.96875 118.628906 12.175781 C 118.429688 12.40625 118.175781 12.519531 117.871094 12.515625 C 117.589844 12.507812 117.347656 12.402344 117.144531 12.203125 C 116.910156 12 116.796875 11.746094 116.804688 11.4375 C 116.800781 11.148438 116.902344 10.902344 117.109375 10.703125 C 117.207031 10.601562 117.320312 10.519531 117.445312 10.460938 C 117.582031 10.402344 117.722656 10.371094 117.871094 10.371094 C 118.15625 10.378906 118.402344 10.480469 118.609375 10.675781 C 118.714844 10.765625 118.789062 10.875 118.832031 11.003906 L 118.832031 11.226562 Z M 118.921875 14.105469 C 118.921875 14.390625 118.824219 14.636719 118.628906 14.84375 C 118.429688 15.074219 118.175781 15.1875 117.871094 15.179688 C 117.589844 15.171875 117.347656 15.070312 117.144531 14.867188 C 116.910156 14.667969 116.796875 14.414062 116.804688 14.105469 C 116.800781 13.816406 116.902344 13.570312 117.109375 13.367188 C 117.222656 13.277344 117.34375 13.199219 117.472656 13.136719 L 117.871094 13.054688 C 118.144531 13.082031 118.390625 13.179688 118.609375 13.339844 C 118.714844 13.429688 118.789062 13.539062 118.832031 13.667969 L 118.832031 13.890625 Z M 136.027344 21.214844 L 133.683594 21.214844 C 132.96875 22.132812 132.15625 22.953125 131.238281 23.667969 C 130.011719 24.667969 128.363281 25.886719 126.296875 27.320312 L 126.164062 27.320312 C 126.117188 27.34375 126.074219 27.378906 126.039062 27.417969 L 125.96875 27.417969 L 125.871094 27.503906 C 125.851562 27.417969 125.851562 27.328125 125.871094 27.238281 L 126.269531 26.839844 L 128.804688 24.722656 C 130.035156 23.601562 131.105469 22.347656 132.019531 20.957031 L 131.015625 21.214844 L 129.808594 21.3125 L 129.160156 21.3125 L 128.792969 21.222656 C 128.734375 21.238281 128.675781 21.238281 128.617188 21.222656 L 128.414062 21.132812 C 128.21875 21.039062 128.042969 20.925781 127.878906 20.789062 C 127.476562 20.480469 127.277344 20.078125 127.285156 19.570312 L 127.285156 19.339844 L 127.328125 19.160156 C 127.492188 18.214844 128.382812 16.984375 129.992188 15.472656 C 131.335938 14.230469 132.1875 13.597656 132.554688 13.597656 C 132.613281 13.597656 132.664062 13.617188 132.703125 13.660156 L 132.421875 14.15625 C 132.296875 14.324219 132.222656 14.511719 132.199219 14.71875 L 132.199219 15.011719 C 132.199219 15.011719 132.695312 16.050781 133.691406 18.015625 C 133.851562 18.355469 133.984375 18.710938 134.089844 19.074219 C 134.179688 19.363281 134.230469 19.65625 134.234375 19.960938 L 136.011719 19.960938 Z M 131.664062 19.585938 L 131.246094 18.816406 L 131.113281 18.574219 L 130.972656 18.324219 L 130.644531 17.835938 L 129.753906 16.574219 L 129.550781 16.859375 L 129.390625 17.125 L 129.300781 17.417969 L 129.257812 17.738281 C 129.28125 18.078125 129.40625 18.375 129.628906 18.628906 C 129.71875 18.742188 129.828125 18.835938 129.949219 18.914062 L 130.421875 19.171875 Z M 135.609375 19.863281 L 139.289062 19.863281 L 138.179688 19.347656 L 137.46875 19.019531 C 137.070312 18.785156 136.761719 18.464844 136.542969 18.058594 C 136.324219 17.65625 136.226562 17.222656 136.25 16.761719 C 136.4375 16.175781 136.734375 15.652344 137.140625 15.1875 C 137.664062 14.585938 138.21875 14.011719 138.808594 13.472656 L 139.957031 12.480469 L 141.21875 11.449219 L 140.996094 12.015625 L 140.890625 12.335938 L 140.828125 12.664062 L 144.042969 19.835938 L 144.65625 19.835938 L 144.65625 21.214844 L 135.609375 21.214844 Z M 139.734375 8.222656 L 138.304688 9.652344 L 136.84375 8.222656 L 138.304688 6.695312 Z M 140.792969 17.757812 C 140.78125 17.515625 140.691406 17.3125 140.515625 17.144531 C 140.332031 17 140.125 16.90625 139.894531 16.859375 C 139.628906 16.855469 139.40625 16.949219 139.226562 17.144531 C 139.105469 17.332031 139.027344 17.535156 138.988281 17.757812 C 138.988281 18.003906 139.066406 18.21875 139.226562 18.40625 C 139.4375 18.523438 139.660156 18.601562 139.894531 18.644531 C 140.128906 18.652344 140.332031 18.570312 140.496094 18.40625 C 140.671875 18.226562 140.773438 18.007812 140.792969 17.757812 Z M 144.167969 19.863281 L 146.515625 19.863281 L 145.980469 18.976562 L 145.785156 18.539062 L 145.722656 18.105469 C 145.824219 17.695312 146.03125 17.351562 146.335938 17.0625 L 146.566406 16.851562 L 146.914062 16.558594 L 147.804688 15.855469 L 147.730469 16.183594 L 147.679688 16.476562 L 147.679688 16.796875 L 147.742188 16.976562 L 147.820312 17.144531 L 148.195312 17.835938 L 148.636719 18.378906 L 149.527344 17.640625 L 150.292969 17.089844 L 150.789062 16.761719 L 151.457031 16.34375 L 152.175781 15.898438 L 153.542969 15.101562 C 153.828125 14.945312 154.121094 14.824219 154.433594 14.734375 L 154.832031 14.65625 L 155.257812 14.65625 C 157.082031 14.65625 158.644531 16.433594 159.949219 19.898438 L 159.949219 21.214844 L 149.054688 21.214844 C 148.960938 21.203125 148.871094 21.171875 148.789062 21.125 L 148.453125 21.054688 C 148.316406 21.019531 148.207031 20.949219 148.121094 20.839844 L 148.929688 20.175781 L 149.582031 19.578125 C 149.917969 19.835938 150.296875 19.9375 150.71875 19.890625 L 156.652344 19.890625 L 156.503906 19.4375 L 156.40625 19.214844 L 156.296875 18.949219 L 156.039062 18.503906 L 155.675781 17.980469 C 155.417969 17.585938 155.089844 17.269531 154.679688 17.035156 C 154.273438 16.800781 153.835938 16.671875 153.367188 16.644531 C 152.433594 16.941406 151.589844 17.402344 150.84375 18.03125 L 148.566406 19.808594 L 147.902344 20.238281 L 147.421875 20.601562 C 146.847656 21 146.210938 21.195312 145.511719 21.1875 L 144.105469 21.1875 Z M 144.167969 19.863281 " fill-opacity="1" fill-rule="nonzero"/></g><path fill="#273b4f" d="M 15.785156 21.214844 L 11.339844 21.214844 C 10.945312 21.210938 10.550781 21.179688 10.160156 21.125 C 9.796875 21.082031 9.445312 20.992188 9.109375 20.851562 C 8.449219 20.617188 7.894531 20.234375 7.4375 19.703125 C 6.949219 19.113281 6.71875 18.433594 6.753906 17.667969 L 6.753906 16.992188 L 6.808594 16.707031 L 6.914062 16.40625 C 7.058594 15.992188 7.296875 15.644531 7.632812 15.367188 L 11.9375 11.429688 L 11.9375 12.320312 C 11.667969 12.609375 11.511719 12.949219 11.464844 13.339844 L 11.535156 13.679688 L 14.574219 19.898438 L 15.792969 19.898438 Z M 10.691406 10.355469 L 9.597656 11.925781 L 7.574219 10.40625 L 8.664062 8.683594 L 6.824219 7.269531 L 7.902344 5.609375 L 10.015625 7.253906 L 8.878906 8.898438 Z M 11.5 18.886719 C 11.644531 18.675781 11.738281 18.445312 11.777344 18.191406 C 11.777344 17.9375 11.683594 17.71875 11.5 17.542969 C 11.3125 17.339844 11.082031 17.246094 10.808594 17.257812 C 10.667969 17.25 10.535156 17.269531 10.40625 17.320312 C 10.285156 17.363281 10.183594 17.429688 10.097656 17.527344 C 9.898438 17.703125 9.800781 17.925781 9.804688 18.191406 C 9.832031 18.449219 9.929688 18.675781 10.097656 18.875 C 10.28125 19.09375 10.519531 19.199219 10.808594 19.1875 C 11.085938 19.195312 11.316406 19.09375 11.5 18.886719 Z M 15.257812 19.863281 L 15.570312 19.863281 C 15.835938 19.863281 16.335938 19.402344 17.0625 18.476562 L 17.464844 17.960938 L 17.746094 17.675781 L 18.394531 17.019531 L 20.074219 19.863281 L 21.019531 19.863281 L 21.019531 21.214844 L 15.257812 21.214844 Z M 20.589844 23.195312 L 19.703125 24.484375 L 18.058594 23.320312 L 17.167969 24.554688 L 15.390625 23.238281 L 16.28125 21.878906 L 17.925781 23.125 L 18.8125 21.835938 Z M 20.589844 19.863281 L 21.738281 19.863281 C 21.835938 19.851562 21.917969 19.8125 21.988281 19.738281 L 22.085938 19.585938 L 21.789062 19.074219 L 21.730469 18.839844 L 21.65625 18.503906 L 21.816406 18.105469 C 22.210938 17.324219 22.734375 16.640625 23.382812 16.050781 L 24.519531 15.039062 L 24.519531 9.707031 C 24.484375 9.363281 24.351562 9.070312 24.121094 8.816406 L 23.382812 8.195312 L 26.351562 5.601562 L 26.351562 15.019531 C 26.628906 15.265625 26.871094 15.542969 27.070312 15.855469 L 27.53125 16.742188 L 27.976562 17.757812 L 28.429688 18.867188 L 28.765625 19.757812 L 28.972656 20.433594 C 29.015625 20.59375 29.039062 20.761719 29.042969 20.929688 C 29.066406 21.117188 29.046875 21.300781 28.988281 21.480469 C 28.925781 21.660156 28.824219 21.8125 28.691406 21.945312 C 28.554688 22.078125 28.398438 22.171875 28.214844 22.230469 C 28.035156 22.289062 27.851562 22.300781 27.664062 22.273438 C 26.570312 22.210938 25.546875 21.914062 24.589844 21.382812 L 23.941406 21.019531 L 23.054688 20.46875 C 23.027344 20.695312 22.925781 20.886719 22.75 21.035156 C 22.53125 21.105469 22.308594 21.164062 22.085938 21.207031 L 20.554688 21.207031 Z M 25.113281 19.613281 C 25.566406 19.972656 26.066406 20.238281 26.617188 20.40625 L 25.503906 18.308594 C 25.457031 18.160156 25.394531 18.019531 25.308594 17.890625 L 24.972656 17.355469 L 24.589844 16.816406 C 24.371094 16.945312 24.171875 17.101562 23.996094 17.285156 L 23.863281 17.5625 L 23.808594 17.855469 C 23.808594 18.335938 24.242188 18.925781 25.113281 19.632812 Z M 34.890625 21.214844 L 29.867188 21.214844 L 30.171875 20.929688 L 30.4375 20.644531 L 30.640625 20.351562 L 30.863281 19.953125 C 30.960938 19.714844 31.007812 19.46875 31.007812 19.214844 L 31.007812 9.179688 L 30.871094 8.90625 C 30.683594 8.609375 30.460938 8.335938 30.207031 8.089844 L 32.933594 5.421875 L 33.128906 5.785156 L 33.050781 5.957031 L 32.925781 6.238281 L 32.757812 6.808594 L 32.703125 7.253906 L 32.660156 8.042969 L 32.660156 17.3125 C 32.691406 17.988281 32.578125 18.640625 32.320312 19.269531 L 31.839844 19.863281 L 34.890625 19.863281 Z M 34.390625 19.863281 L 38.019531 19.863281 L 36.347656 18.085938 L 35.085938 16.683594 L 36.960938 15.125 L 37.539062 14.648438 L 38.019531 14.21875 L 38.375 13.890625 L 39.136719 13.179688 L 39.875 13.890625 L 41.261719 15.109375 L 43.191406 16.683594 L 41.855469 18.113281 L 40.746094 19.292969 L 40.160156 19.882812 L 44.398438 19.882812 L 44.398438 21.214844 L 39.953125 21.214844 L 39.234375 20.449219 L 38.570312 21.214844 L 34.488281 21.214844 Z M 40.027344 17.785156 L 39.875 17.535156 L 39.757812 17.382812 C 39.5625 17.183594 39.332031 17.042969 39.066406 16.957031 C 38.90625 16.957031 38.640625 17.160156 38.277344 17.570312 L 38.097656 17.898438 L 39.066406 19.019531 Z M 43.925781 19.863281 L 45.507812 19.863281 L 45.507812 9.820312 C 45.507812 9.5 45.394531 9.222656 45.171875 8.996094 L 44.816406 8.683594 L 44.46875 8.328125 L 47.402344 5.609375 L 47.402344 21.214844 L 43.925781 21.214844 Z M 55.214844 21.292969 C 55.214844 21.402344 54.894531 21.667969 54.253906 22.074219 C 53.566406 22.445312 52.835938 22.644531 52.058594 22.671875 C 51.628906 22.691406 51.21875 22.609375 50.832031 22.421875 C 50.441406 22.234375 50.125 21.964844 49.871094 21.613281 C 49.410156 20.890625 49.195312 20.101562 49.234375 19.242188 L 49.234375 8.089844 C 49.257812 7.613281 49.207031 7.144531 49.082031 6.683594 C 48.996094 6.441406 48.867188 6.226562 48.691406 6.035156 C 48.472656 5.832031 48.234375 5.65625 47.972656 5.511719 L 51.160156 2.84375 L 51.160156 20.28125 C 51.167969 20.496094 51.210938 20.703125 51.292969 20.902344 C 51.425781 21.238281 51.648438 21.5 51.957031 21.6875 C 52.265625 21.871094 52.597656 21.945312 52.957031 21.90625 C 53.582031 21.855469 54.175781 21.683594 54.734375 21.390625 Z M 55.214844 21.292969 " fill-opacity="1" fill-rule="nonzero"/><path fill="#273b4f" d="M 165.617188 15.875 C 165.6875 14.8125 165.894531 14.15625 166.230469 13.894531 C 166.113281 15.082031 166.148438 16.265625 166.335938 17.445312 C 166.625 19.039062 167.171875 19.820312 167.96875 19.777344 C 168.59375 19.886719 169.160156 19.375 169.691406 18.246094 C 170.164062 17.199219 170.804688 16.261719 171.609375 15.441406 C 172.171875 14.78125 172.882812 14.375 173.738281 14.222656 C 173.976562 14.226562 174.195312 14.296875 174.398438 14.421875 C 174.601562 14.550781 174.757812 14.71875 174.867188 14.929688 C 174.972656 15.367188 175.125 15.785156 175.328125 16.1875 C 175.511719 16.5625 175.722656 16.921875 175.964844 17.265625 C 176.140625 17.472656 176.351562 17.621094 176.605469 17.714844 C 176.859375 17.808594 177.121094 17.832031 177.386719 17.785156 L 178.050781 17.785156 L 178.050781 20.6875 L 177.214844 20.6875 C 176.328125 20.683594 175.5625 20.378906 174.914062 19.773438 C 174.554688 19.269531 174.269531 18.722656 174.0625 18.140625 C 173.882812 17.617188 173.585938 17.179688 173.167969 16.820312 C 172.808594 16.519531 172.246094 16.890625 171.488281 17.90625 L 169.757812 20.984375 C 169.101562 22 168.492188 22.511719 167.933594 22.511719 C 166.347656 22.585938 165.53125 20.832031 165.484375 17.246094 L 165.609375 15.875 Z M 169.292969 9.246094 C 169.855469 8.941406 170.347656 8.550781 170.769531 8.074219 C 171.476562 8.597656 172.238281 9.019531 173.054688 9.332031 L 171.417969 11.0625 C 171.171875 10.992188 170.933594 10.902344 170.707031 10.785156 C 170.167969 10.535156 169.652344 10.234375 169.167969 9.890625 C 168.789062 10.238281 168.402344 10.601562 168.003906 11.035156 L 166.8125 10.503906 L 165.726562 9.792969 L 167.371094 8.089844 C 167.6875 8.363281 168.027344 8.597656 168.394531 8.800781 C 168.675781 8.988281 168.976562 9.136719 169.292969 9.246094 Z M 177.433594 17.761719 L 181.695312 17.761719 C 181.542969 17.46875 181.328125 17.230469 181.046875 17.054688 C 180.78125 16.886719 180.496094 16.78125 180.1875 16.726562 C 179.953125 16.679688 179.714844 16.679688 179.480469 16.726562 C 179.308594 16.777344 179.210938 16.769531 179.195312 16.726562 C 179.429688 15.90625 179.707031 15.101562 180.03125 14.3125 C 180.464844 14.078125 180.921875 13.914062 181.402344 13.816406 C 182.097656 13.703125 182.792969 13.703125 183.488281 13.816406 C 184.25 13.878906 184.910156 14.164062 185.476562 14.675781 C 185.722656 14.917969 185.867188 15.207031 185.914062 15.546875 C 185.960938 15.886719 185.902344 16.207031 185.730469 16.507812 C 185.546875 16.96875 185.308594 17.40625 185.023438 17.8125 L 188.28125 17.8125 L 188.28125 20.714844 L 184.894531 20.714844 C 184.511719 20.71875 184.148438 20.636719 183.808594 20.460938 C 183.460938 20.261719 183.175781 19.996094 182.949219 19.664062 C 182.691406 20.011719 182.363281 20.273438 181.96875 20.453125 C 181.609375 20.625 181.234375 20.710938 180.835938 20.714844 L 177.414062 20.714844 Z M 193.972656 13.859375 C 194.265625 13.75 194.574219 13.703125 194.886719 13.710938 C 195.023438 13.746094 195.152344 13.800781 195.269531 13.875 C 195.398438 14.003906 195.503906 14.152344 195.589844 14.3125 C 195.675781 14.503906 195.75 14.703125 195.808594 14.902344 C 195.917969 15.261719 196.003906 15.625 196.066406 15.996094 C 196.152344 16.457031 196.25 17.214844 196.347656 18.273438 C 195.972656 18.84375 195.484375 19.53125 194.886719 20.332031 C 193.671875 19.757812 192.503906 19.101562 191.386719 18.351562 C 191.167969 18.929688 190.898438 19.480469 190.585938 20.011719 C 190.402344 20.257812 190.164062 20.429688 189.875 20.53125 C 189.507812 20.65625 189.128906 20.710938 188.742188 20.703125 L 187.710938 20.703125 L 187.710938 17.761719 L 188.542969 17.761719 C 189.683594 17.761719 190.40625 17.570312 190.714844 17.1875 C 191.027344 16.785156 191.347656 16.34375 191.671875 15.875 C 191.933594 15.488281 192.230469 15.128906 192.566406 14.804688 C 192.785156 14.585938 193.023438 14.390625 193.277344 14.214844 C 193.492188 14.066406 193.726562 13.949219 193.972656 13.859375 Z M 193.84375 15.804688 C 193.675781 15.6875 193.492188 15.660156 193.296875 15.71875 C 193.113281 15.773438 192.945312 15.863281 192.792969 15.980469 C 193.25 16.390625 193.753906 16.738281 194.296875 17.023438 C 194.269531 16.570312 194.117188 16.164062 193.84375 15.804688 Z M 198.90625 7.707031 C 199.292969 12.910156 199.5625 15.792969 199.714844 16.351562 C 199.816406 16.828125 200.066406 17.210938 200.457031 17.5 C 200.976562 17.753906 201.519531 17.839844 202.089844 17.761719 L 202.089844 20.664062 L 201.035156 20.664062 C 200.734375 20.664062 200.449219 20.613281 200.167969 20.511719 C 199.886719 20.410156 199.632812 20.261719 199.40625 20.074219 C 199.175781 19.882812 198.988281 19.660156 198.835938 19.402344 C 198.6875 19.144531 198.582031 18.871094 198.527344 18.578125 C 198.257812 17.757812 197.949219 14.960938 197.605469 10.199219 Z M 208.839844 17.214844 C 207.957031 16.695312 207.003906 16.371094 205.984375 16.246094 C 204.964844 16.125 203.960938 16.210938 202.976562 16.507812 C 203.128906 15.710938 203.425781 14.976562 203.871094 14.300781 C 204.082031 13.917969 204.382812 13.628906 204.773438 13.433594 C 205.160156 13.238281 205.570312 13.167969 206 13.222656 C 207.464844 13.507812 208.839844 14.035156 210.117188 14.804688 C 211.351562 15.550781 212.675781 16.039062 214.097656 16.273438 C 215.136719 16.371094 215.824219 16.421875 216.171875 16.421875 L 214.816406 18.742188 C 213.332031 18.5 211.867188 18.574219 210.414062 18.96875 C 209.628906 19.132812 208.898438 19.433594 208.222656 19.871094 C 207.296875 20.414062 206.296875 20.683594 205.222656 20.679688 L 201.402344 20.679688 L 201.402344 17.761719 L 206.371094 17.761719 C 207.222656 17.714844 208.046875 17.53125 208.839844 17.214844 Z M 207.300781 25.109375 C 206.425781 24.835938 205.757812 24.308594 205.292969 23.519531 L 207.074219 21.902344 C 207.644531 22.515625 208.285156 23.046875 208.988281 23.496094 Z M 207.300781 25.109375 " fill-opacity="1" fill-rule="nonzero"/></svg>