<svg xmlns="http://www.w3.org/2000/svg" xmlns:xlink="http://www.w3.org/1999/xlink" width="300" zoomAndPan="magnify" viewBox="0 0 224.87999 30.000001" height="40" preserveAspectRatio="xMidYMid meet" version="1.0"><path fill="#273b4f" d="M 7.363281 15.347656 C 7.417969 15.640625 7.523438 15.914062 7.683594 16.167969 C 7.808594 16.367188 7.980469 16.515625 8.199219 16.613281 C 8.464844 16.722656 8.738281 16.769531 9.027344 16.757812 C 9.429688 16.78125 9.78125 16.660156 10.089844 16.402344 C 10.359375 16.101562 10.480469 15.75 10.453125 15.347656 C 10.46875 15.082031 10.417969 14.828125 10.300781 14.585938 C 10.179688 14.359375 10.011719 14.167969 9.800781 14.019531 C 9.464844 13.78125 9.109375 13.574219 8.738281 13.394531 C 8.347656 13.214844 7.980469 12.992188 7.636719 12.726562 C 7.390625 12.53125 7.191406 12.292969 7.039062 12.015625 C 6.90625 11.75 6.839844 11.46875 6.839844 11.171875 C 6.839844 10.761719 6.953125 10.386719 7.175781 10.039062 C 7.398438 9.695312 7.703125 9.441406 8.085938 9.28125 C 8.523438 9.097656 8.976562 9.007812 9.453125 9.015625 C 9.746094 9.015625 10.039062 9.03125 10.332031 9.0625 C 10.691406 9.113281 11.050781 9.183594 11.402344 9.273438 L 11.402344 10.914062 L 10.816406 10.914062 C 10.75 10.625 10.636719 10.351562 10.476562 10.101562 C 10.355469 9.917969 10.191406 9.785156 9.992188 9.699219 C 9.746094 9.609375 9.492188 9.570312 9.230469 9.585938 C 8.992188 9.582031 8.761719 9.628906 8.539062 9.722656 C 8.339844 9.820312 8.179688 9.964844 8.0625 10.15625 C 7.933594 10.363281 7.871094 10.59375 7.878906 10.835938 C 7.875 11.085938 7.921875 11.320312 8.03125 11.542969 C 8.152344 11.757812 8.308594 11.9375 8.503906 12.082031 C 8.800781 12.296875 9.117188 12.484375 9.453125 12.636719 C 9.863281 12.839844 10.253906 13.074219 10.628906 13.34375 C 10.894531 13.550781 11.109375 13.804688 11.273438 14.101562 C 11.4375 14.40625 11.515625 14.726562 11.507812 15.074219 C 11.519531 15.441406 11.457031 15.792969 11.3125 16.128906 C 11.1875 16.402344 11.007812 16.632812 10.773438 16.820312 C 10.523438 17.007812 10.25 17.140625 9.945312 17.214844 C 9.597656 17.300781 9.246094 17.339844 8.890625 17.335938 C 8.167969 17.304688 7.464844 17.1875 6.773438 16.984375 L 6.773438 15.347656 Z M 16.109375 16.339844 L 16.015625 16.339844 C 15.738281 16.648438 15.417969 16.902344 15.054688 17.101562 C 14.75 17.246094 14.425781 17.320312 14.089844 17.320312 C 13.824219 17.320312 13.570312 17.261719 13.328125 17.144531 C 13.105469 17.035156 12.929688 16.871094 12.804688 16.652344 C 12.671875 16.417969 12.609375 16.164062 12.617188 15.894531 C 12.617188 15.605469 12.695312 15.339844 12.851562 15.097656 C 13.003906 14.859375 13.214844 14.675781 13.472656 14.558594 C 14.289062 14.1875 15.144531 14.003906 16.039062 14.011719 L 16.039062 13.625 C 16.050781 13.296875 16.011719 12.972656 15.917969 12.660156 C 15.851562 12.433594 15.722656 12.257812 15.523438 12.128906 C 15.316406 12.007812 15.089844 11.953125 14.847656 11.960938 C 14.5625 11.941406 14.308594 12.023438 14.089844 12.203125 C 13.871094 12.414062 13.730469 12.667969 13.664062 12.964844 L 12.90625 12.964844 L 12.90625 12.203125 C 13.210938 12.039062 13.527344 11.894531 13.855469 11.769531 C 14.101562 11.675781 14.355469 11.601562 14.613281 11.550781 C 14.863281 11.496094 15.117188 11.46875 15.371094 11.46875 C 15.703125 11.453125 16.015625 11.515625 16.3125 11.65625 C 16.554688 11.785156 16.734375 11.976562 16.84375 12.226562 C 16.980469 12.589844 17.046875 12.964844 17.042969 13.351562 L 17.042969 15.40625 C 17.042969 15.695312 17.042969 15.902344 17.042969 16.023438 C 17.042969 16.132812 17.054688 16.246094 17.078125 16.355469 C 17.089844 16.445312 17.117188 16.527344 17.164062 16.605469 C 17.207031 16.671875 17.265625 16.722656 17.335938 16.757812 C 17.457031 16.820312 17.585938 16.867188 17.71875 16.894531 L 17.71875 17.183594 L 16.078125 17.183594 Z M 16.007812 14.488281 C 15.386719 14.460938 14.785156 14.566406 14.210938 14.808594 C 14.027344 14.886719 13.878906 15.011719 13.773438 15.179688 C 13.664062 15.347656 13.609375 15.53125 13.609375 15.734375 C 13.601562 15.925781 13.644531 16.105469 13.746094 16.273438 C 13.832031 16.398438 13.945312 16.488281 14.089844 16.539062 C 14.515625 16.679688 14.921875 16.636719 15.3125 16.417969 C 15.523438 16.296875 15.695312 16.132812 15.828125 15.921875 C 15.945312 15.742188 16.003906 15.539062 16.007812 15.324219 Z M 21.726562 12.128906 L 20.3125 12.128906 L 20.3125 15.710938 C 20.296875 15.90625 20.296875 16.105469 20.3125 16.304688 C 20.324219 16.414062 20.363281 16.515625 20.425781 16.605469 C 20.476562 16.683594 20.539062 16.738281 20.625 16.773438 C 20.746094 16.832031 20.875 16.875 21.011719 16.894531 L 21.011719 17.183594 L 18.628906 17.183594 L 18.628906 16.894531 C 18.757812 16.867188 18.882812 16.820312 19 16.757812 C 19.074219 16.71875 19.132812 16.664062 19.175781 16.589844 C 19.226562 16.5 19.257812 16.40625 19.265625 16.304688 C 19.28125 16.105469 19.28125 15.90625 19.265625 15.710938 L 19.265625 12.128906 L 18.558594 12.128906 L 18.558594 11.824219 L 18.855469 11.769531 L 19 11.710938 C 19.046875 11.679688 19.085938 11.640625 19.113281 11.589844 C 19.160156 11.519531 19.1875 11.445312 19.203125 11.363281 C 19.253906 11.214844 19.292969 11.066406 19.320312 10.914062 C 19.339844 10.554688 19.417969 10.207031 19.554688 9.875 C 19.675781 9.601562 19.847656 9.371094 20.078125 9.183594 C 20.304688 9 20.554688 8.867188 20.835938 8.789062 C 21.140625 8.699219 21.449219 8.660156 21.761719 8.667969 C 22.019531 8.664062 22.269531 8.6875 22.523438 8.734375 L 22.523438 9.804688 L 21.9375 9.804688 C 21.890625 9.617188 21.800781 9.453125 21.671875 9.3125 C 21.554688 9.203125 21.414062 9.15625 21.253906 9.167969 C 21.140625 9.164062 21.027344 9.179688 20.921875 9.222656 C 20.828125 9.257812 20.746094 9.316406 20.675781 9.386719 C 20.59375 9.476562 20.53125 9.574219 20.488281 9.683594 C 20.425781 9.835938 20.386719 9.992188 20.367188 10.15625 C 20.351562 10.40625 20.351562 10.660156 20.367188 10.914062 L 20.367188 11.527344 L 21.777344 11.527344 Z M 26.507812 12.765625 L 24.988281 17.214844 L 24.132812 17.214844 L 22.710938 12.828125 C 22.652344 12.621094 22.574219 12.421875 22.484375 12.226562 C 22.433594 12.128906 22.371094 12.042969 22.285156 11.96875 C 22.1875 11.894531 22.074219 11.84375 21.953125 11.824219 L 21.953125 11.527344 L 24.289062 11.527344 L 24.289062 11.824219 C 24.121094 11.847656 23.964844 11.90625 23.828125 12.007812 C 23.734375 12.105469 23.695312 12.222656 23.707031 12.355469 C 23.695312 12.46875 23.695312 12.578125 23.707031 12.691406 C 23.730469 12.828125 23.765625 12.960938 23.8125 13.09375 L 24.738281 16.128906 L 26.257812 11.574219 L 27.089844 11.574219 L 28.382812 16.128906 L 29.460938 13.191406 C 29.515625 13.050781 29.5625 12.90625 29.597656 12.757812 C 29.628906 12.632812 29.648438 12.507812 29.648438 12.378906 C 29.65625 12.234375 29.613281 12.105469 29.519531 11.992188 C 29.386719 11.878906 29.238281 11.8125 29.066406 11.792969 L 29.066406 11.5 L 31.128906 11.5 L 31.128906 11.792969 C 31.042969 11.808594 30.957031 11.839844 30.878906 11.878906 C 30.820312 11.914062 30.765625 11.957031 30.71875 12.007812 C 30.648438 12.089844 30.589844 12.175781 30.539062 12.273438 C 30.476562 12.394531 30.394531 12.582031 30.292969 12.835938 L 28.585938 17.214844 L 27.789062 17.214844 Z M 35.152344 16.339844 L 35.0625 16.339844 C 34.785156 16.648438 34.460938 16.902344 34.097656 17.101562 C 33.792969 17.246094 33.472656 17.320312 33.132812 17.320312 C 32.867188 17.320312 32.613281 17.261719 32.375 17.144531 C 32.148438 17.035156 31.972656 16.871094 31.851562 16.652344 C 31.710938 16.417969 31.648438 16.164062 31.660156 15.894531 C 31.660156 15.605469 31.738281 15.339844 31.894531 15.097656 C 32.050781 14.859375 32.257812 14.675781 32.519531 14.558594 C 33.332031 14.1875 34.1875 14.003906 35.082031 14.011719 L 35.082031 13.625 C 35.097656 13.296875 35.054688 12.972656 34.960938 12.660156 C 34.898438 12.441406 34.773438 12.265625 34.589844 12.136719 C 34.382812 12.015625 34.15625 11.960938 33.914062 11.96875 C 33.628906 11.949219 33.378906 12.03125 33.15625 12.210938 C 32.9375 12.421875 32.796875 12.675781 32.730469 12.972656 L 31.972656 12.972656 L 31.972656 12.210938 C 32.277344 12.046875 32.59375 11.902344 32.921875 11.777344 C 33.167969 11.683594 33.421875 11.609375 33.679688 11.558594 C 33.929688 11.503906 34.183594 11.476562 34.4375 11.476562 C 34.769531 11.460938 35.082031 11.523438 35.378906 11.664062 C 35.625 11.792969 35.800781 11.984375 35.910156 12.234375 C 36.046875 12.609375 36.105469 12.996094 36.085938 13.394531 L 36.085938 15.453125 C 36.085938 15.742188 36.085938 15.945312 36.085938 16.066406 C 36.074219 16.179688 36.074219 16.289062 36.085938 16.402344 C 36.097656 16.492188 36.125 16.574219 36.167969 16.652344 C 36.214844 16.71875 36.269531 16.769531 36.34375 16.804688 C 36.464844 16.867188 36.589844 16.910156 36.722656 16.941406 L 36.722656 17.230469 L 35.121094 17.230469 Z M 35.054688 14.488281 C 34.429688 14.460938 33.828125 14.566406 33.253906 14.808594 C 33.070312 14.886719 32.921875 15.011719 32.8125 15.179688 C 32.703125 15.347656 32.652344 15.53125 32.65625 15.734375 C 32.644531 15.925781 32.691406 16.105469 32.792969 16.273438 C 32.875 16.398438 32.988281 16.488281 33.132812 16.539062 C 33.558594 16.679688 33.964844 16.636719 34.355469 16.417969 C 34.570312 16.296875 34.742188 16.132812 34.871094 15.921875 C 34.988281 15.742188 35.046875 15.539062 35.054688 15.324219 Z M 37.332031 11.824219 C 37.5 11.804688 37.660156 11.75 37.808594 11.664062 C 37.929688 11.585938 38.027344 11.480469 38.097656 11.355469 C 38.160156 11.214844 38.199219 11.066406 38.21875 10.914062 C 38.257812 10.722656 38.300781 10.449219 38.339844 10.09375 L 39.183594 10.09375 L 39.183594 11.550781 L 41.09375 11.550781 L 41.09375 12.152344 L 39.183594 12.152344 L 39.183594 14.785156 C 39.179688 15.089844 39.195312 15.394531 39.226562 15.695312 C 39.242188 15.886719 39.304688 16.066406 39.410156 16.226562 C 39.484375 16.347656 39.582031 16.441406 39.707031 16.507812 C 39.839844 16.566406 39.984375 16.597656 40.132812 16.589844 C 40.285156 16.589844 40.433594 16.558594 40.570312 16.492188 C 40.71875 16.417969 40.855469 16.324219 40.980469 16.210938 L 41.246094 16.53125 C 41.023438 16.765625 40.769531 16.964844 40.488281 17.121094 C 40.25 17.242188 39.996094 17.300781 39.730469 17.304688 C 39.273438 17.339844 38.894531 17.1875 38.589844 16.847656 C 38.300781 16.421875 38.175781 15.953125 38.21875 15.4375 L 38.21875 12.128906 L 37.292969 12.128906 Z M 37.332031 11.824219 " fill-opacity="1" fill-rule="nonzero"/><path fill="#273b4f" d="M 47.902344 17.183594 L 47.902344 16.894531 C 48.054688 16.867188 48.203125 16.824219 48.34375 16.765625 C 48.4375 16.722656 48.507812 16.660156 48.554688 16.570312 C 48.613281 16.460938 48.640625 16.347656 48.632812 16.226562 C 48.632812 16.082031 48.613281 15.9375 48.578125 15.792969 C 48.578125 15.636719 48.503906 15.460938 48.449219 15.269531 L 48.230469 14.511719 L 45.476562 14.511719 L 45.269531 15.097656 C 45.191406 15.3125 45.125 15.53125 45.074219 15.757812 C 45.039062 15.890625 45.019531 16.027344 45.019531 16.167969 C 45 16.367188 45.0625 16.539062 45.203125 16.683594 C 45.363281 16.816406 45.546875 16.890625 45.753906 16.902344 L 45.753906 17.191406 L 43.226562 17.191406 L 43.226562 16.902344 C 43.476562 16.859375 43.667969 16.734375 43.804688 16.523438 C 44.007812 16.230469 44.167969 15.914062 44.28125 15.574219 L 46.75 9.023438 L 47.683594 9.023438 L 49.679688 15.613281 C 49.746094 15.855469 49.828125 16.089844 49.929688 16.316406 C 49.992188 16.464844 50.082031 16.589844 50.195312 16.699219 C 50.316406 16.800781 50.457031 16.867188 50.613281 16.894531 L 50.613281 17.183594 Z M 45.625 13.996094 L 48.09375 13.996094 L 46.96875 10.199219 Z M 52.898438 15.710938 C 52.890625 15.949219 52.90625 16.183594 52.945312 16.417969 C 52.96875 16.535156 53.03125 16.632812 53.125 16.710938 C 53.257812 16.804688 53.402344 16.863281 53.558594 16.894531 L 53.558594 17.183594 L 51.199219 17.183594 L 51.199219 16.894531 C 51.34375 16.863281 51.480469 16.808594 51.609375 16.734375 C 51.683594 16.6875 51.738281 16.621094 51.773438 16.539062 C 51.8125 16.4375 51.835938 16.335938 51.84375 16.226562 C 51.851562 16.054688 51.851562 15.882812 51.84375 15.710938 L 51.84375 10.753906 C 51.84375 10.375 51.84375 10.117188 51.84375 9.996094 C 51.839844 9.867188 51.824219 9.742188 51.796875 9.617188 C 51.777344 9.527344 51.742188 9.441406 51.691406 9.367188 C 51.644531 9.300781 51.582031 9.257812 51.507812 9.230469 C 51.375 9.175781 51.234375 9.140625 51.089844 9.121094 L 51.089844 8.8125 L 52.511719 8.75 L 52.867188 8.75 Z M 52.898438 15.710938 " fill-opacity="1" fill-rule="nonzero"/><path fill="#273b4f" d="M 57.269531 15.347656 C 57.324219 15.640625 57.429688 15.914062 57.589844 16.167969 C 57.714844 16.367188 57.886719 16.515625 58.105469 16.613281 C 58.371094 16.722656 58.644531 16.769531 58.933594 16.757812 C 59.332031 16.78125 59.6875 16.660156 59.996094 16.402344 C 60.265625 16.101562 60.386719 15.75 60.359375 15.347656 C 60.375 15.082031 60.324219 14.828125 60.207031 14.585938 C 60.085938 14.359375 59.917969 14.167969 59.707031 14.019531 C 59.371094 13.78125 59.015625 13.574219 58.644531 13.394531 C 58.253906 13.214844 57.886719 12.992188 57.542969 12.726562 C 57.296875 12.53125 57.097656 12.292969 56.945312 12.015625 C 56.8125 11.75 56.746094 11.46875 56.746094 11.171875 C 56.738281 10.757812 56.839844 10.378906 57.058594 10.027344 C 57.285156 9.679688 57.585938 9.425781 57.96875 9.265625 C 58.40625 9.082031 58.867188 8.992188 59.34375 9 C 59.636719 9 59.929688 9.015625 60.222656 9.046875 C 60.582031 9.097656 60.941406 9.167969 61.292969 9.257812 L 61.292969 10.914062 L 60.707031 10.914062 C 60.640625 10.625 60.527344 10.351562 60.367188 10.101562 C 60.246094 9.917969 60.082031 9.785156 59.882812 9.699219 C 59.636719 9.609375 59.382812 9.570312 59.121094 9.585938 C 58.882812 9.582031 58.652344 9.628906 58.429688 9.722656 C 58.257812 9.832031 58.125 9.976562 58.027344 10.15625 C 57.902344 10.363281 57.839844 10.59375 57.847656 10.835938 C 57.839844 11.085938 57.890625 11.320312 58 11.542969 C 58.117188 11.757812 58.273438 11.9375 58.46875 12.082031 C 58.765625 12.296875 59.082031 12.484375 59.417969 12.636719 C 59.828125 12.839844 60.222656 13.074219 60.59375 13.34375 C 60.863281 13.550781 61.078125 13.804688 61.238281 14.101562 C 61.40625 14.40625 61.484375 14.726562 61.476562 15.074219 C 61.488281 15.441406 61.421875 15.792969 61.277344 16.128906 C 61.15625 16.402344 60.976562 16.632812 60.738281 16.820312 C 60.492188 17.007812 60.214844 17.140625 59.910156 17.214844 C 59.566406 17.300781 59.214844 17.339844 58.855469 17.335938 C 58.125 17.308594 57.40625 17.191406 56.699219 16.984375 L 56.699219 15.347656 Z M 66.015625 16.339844 L 65.921875 16.339844 C 65.644531 16.648438 65.324219 16.902344 64.957031 17.101562 C 64.65625 17.246094 64.332031 17.320312 63.996094 17.320312 C 63.730469 17.320312 63.476562 17.261719 63.234375 17.144531 C 63.011719 17.035156 62.835938 16.871094 62.710938 16.652344 C 62.578125 16.417969 62.515625 16.164062 62.523438 15.894531 C 62.519531 15.609375 62.589844 15.34375 62.738281 15.101562 C 62.886719 14.859375 63.085938 14.675781 63.34375 14.550781 C 64.15625 14.179688 65.011719 13.996094 65.90625 14.003906 L 65.90625 13.617188 C 65.921875 13.289062 65.878906 12.964844 65.785156 12.652344 C 65.726562 12.433594 65.601562 12.257812 65.414062 12.128906 C 65.207031 12.007812 64.980469 11.953125 64.738281 11.960938 C 64.453125 11.941406 64.199219 12.023438 63.980469 12.203125 C 63.761719 12.414062 63.621094 12.667969 63.554688 12.964844 L 62.796875 12.964844 L 62.796875 12.203125 C 63.101562 12.039062 63.417969 11.894531 63.746094 11.769531 C 63.992188 11.675781 64.246094 11.601562 64.503906 11.550781 C 64.753906 11.496094 65.007812 11.46875 65.261719 11.46875 C 65.59375 11.453125 65.90625 11.515625 66.203125 11.65625 C 66.449219 11.785156 66.625 11.976562 66.734375 12.226562 C 66.871094 12.601562 66.929688 12.988281 66.910156 13.386719 L 66.910156 15.445312 C 66.910156 15.734375 66.910156 15.9375 66.910156 16.058594 C 66.898438 16.171875 66.898438 16.28125 66.910156 16.394531 C 66.921875 16.484375 66.949219 16.566406 66.992188 16.644531 C 67.039062 16.710938 67.09375 16.761719 67.167969 16.796875 C 67.289062 16.859375 67.414062 16.902344 67.546875 16.933594 L 67.546875 17.222656 L 65.921875 17.222656 Z M 65.914062 14.488281 C 65.292969 14.460938 64.691406 14.566406 64.117188 14.808594 C 63.933594 14.886719 63.785156 15.011719 63.675781 15.179688 C 63.570312 15.347656 63.515625 15.53125 63.515625 15.734375 C 63.507812 15.925781 63.550781 16.105469 63.652344 16.273438 C 63.738281 16.398438 63.851562 16.488281 63.996094 16.539062 C 64.421875 16.679688 64.828125 16.636719 65.21875 16.417969 C 65.429688 16.296875 65.601562 16.132812 65.734375 15.921875 C 65.847656 15.742188 65.910156 15.539062 65.914062 15.324219 Z M 71.691406 12.128906 L 70.28125 12.128906 L 70.28125 15.710938 C 70.265625 15.90625 70.265625 16.105469 70.28125 16.304688 C 70.292969 16.414062 70.332031 16.515625 70.394531 16.605469 C 70.441406 16.683594 70.507812 16.738281 70.589844 16.773438 C 70.714844 16.832031 70.84375 16.875 70.976562 16.894531 L 70.976562 17.183594 L 68.558594 17.183594 L 68.558594 16.894531 C 68.6875 16.867188 68.8125 16.820312 68.929688 16.757812 C 69.003906 16.71875 69.0625 16.664062 69.101562 16.589844 C 69.15625 16.5 69.183594 16.40625 69.195312 16.304688 C 69.210938 16.105469 69.210938 15.90625 69.195312 15.710938 L 69.195312 12.128906 L 68.480469 12.128906 L 68.480469 11.824219 L 68.777344 11.769531 L 68.921875 11.710938 C 68.96875 11.679688 69.007812 11.640625 69.035156 11.589844 C 69.078125 11.519531 69.109375 11.445312 69.125 11.363281 C 69.15625 11.222656 69.175781 11.078125 69.1875 10.9375 C 69.207031 10.578125 69.285156 10.230469 69.421875 9.898438 C 69.542969 9.625 69.714844 9.394531 69.945312 9.207031 C 70.171875 9.019531 70.425781 8.890625 70.703125 8.8125 C 71.007812 8.722656 71.316406 8.683594 71.628906 8.691406 C 71.886719 8.6875 72.140625 8.710938 72.390625 8.757812 L 72.390625 9.828125 L 71.804688 9.828125 C 71.757812 9.640625 71.671875 9.476562 71.539062 9.335938 C 71.421875 9.226562 71.28125 9.179688 71.121094 9.191406 C 71.007812 9.1875 70.894531 9.203125 70.789062 9.242188 C 70.695312 9.28125 70.613281 9.335938 70.546875 9.410156 C 70.464844 9.496094 70.398438 9.597656 70.355469 9.707031 C 70.292969 9.859375 70.253906 10.015625 70.234375 10.175781 C 70.21875 10.429688 70.21875 10.683594 70.234375 10.9375 L 70.234375 11.550781 L 71.691406 11.550781 Z M 76.519531 12.765625 L 75 17.214844 L 74.171875 17.214844 L 72.753906 12.828125 C 72.699219 12.617188 72.625 12.417969 72.527344 12.226562 C 72.429688 11.992188 72.257812 11.855469 72.003906 11.824219 L 72.003906 11.527344 L 74.339844 11.527344 L 74.339844 11.824219 C 74.167969 11.84375 74.011719 11.90625 73.871094 12.007812 C 73.78125 12.105469 73.738281 12.222656 73.75 12.355469 C 73.738281 12.46875 73.738281 12.578125 73.75 12.691406 C 73.75 12.804688 73.808594 12.941406 73.855469 13.09375 L 74.78125 16.128906 L 76.296875 11.574219 L 77.132812 11.574219 L 78.417969 16.128906 L 79.441406 13.191406 C 79.496094 13.039062 79.542969 12.894531 79.578125 12.757812 C 79.609375 12.632812 79.625 12.507812 79.632812 12.378906 C 79.640625 12.230469 79.59375 12.101562 79.496094 11.992188 C 79.363281 11.878906 79.210938 11.8125 79.039062 11.792969 L 79.039062 11.5 L 81.101562 11.5 L 81.101562 11.792969 C 81.019531 11.808594 80.9375 11.839844 80.859375 11.878906 C 80.796875 11.910156 80.742188 11.953125 80.695312 12.007812 C 80.625 12.085938 80.566406 12.175781 80.519531 12.273438 C 80.425781 12.453125 80.347656 12.640625 80.277344 12.835938 L 78.5625 17.183594 L 77.800781 17.183594 Z M 85.164062 16.339844 L 85.082031 16.339844 C 84.800781 16.652344 84.476562 16.902344 84.109375 17.101562 C 83.808594 17.246094 83.488281 17.320312 83.152344 17.320312 C 82.886719 17.320312 82.632812 17.261719 82.394531 17.144531 C 82.167969 17.035156 81.992188 16.871094 81.871094 16.652344 C 81.738281 16.417969 81.675781 16.164062 81.6875 15.894531 C 81.6875 15.605469 81.761719 15.34375 81.917969 15.101562 C 82.070312 14.859375 82.277344 14.675781 82.539062 14.558594 C 83.351562 14.1875 84.207031 14.003906 85.101562 14.011719 L 85.101562 13.625 C 85.113281 13.296875 85.078125 12.976562 84.988281 12.660156 C 84.921875 12.445312 84.800781 12.269531 84.617188 12.136719 C 84.40625 12.015625 84.179688 11.960938 83.933594 11.96875 C 83.648438 11.953125 83.398438 12.035156 83.175781 12.210938 C 82.957031 12.421875 82.816406 12.675781 82.75 12.972656 L 81.992188 12.972656 L 81.992188 12.210938 C 82.296875 12.046875 82.613281 11.902344 82.941406 11.777344 C 83.1875 11.683594 83.441406 11.609375 83.699219 11.558594 C 83.949219 11.503906 84.203125 11.476562 84.457031 11.476562 C 84.789062 11.460938 85.101562 11.523438 85.398438 11.664062 C 85.644531 11.792969 85.820312 11.984375 85.929688 12.234375 C 86.070312 12.609375 86.128906 12.996094 86.105469 13.394531 L 86.105469 15.453125 C 86.105469 15.742188 86.105469 15.945312 86.105469 16.066406 C 86.097656 16.179688 86.097656 16.289062 86.105469 16.402344 C 86.117188 16.492188 86.148438 16.574219 86.195312 16.652344 C 86.238281 16.722656 86.296875 16.769531 86.371094 16.804688 C 86.488281 16.867188 86.613281 16.910156 86.742188 16.941406 L 86.742188 17.230469 L 85.125 17.230469 Z M 85.066406 14.488281 C 84.441406 14.460938 83.84375 14.566406 83.265625 14.808594 C 83.082031 14.886719 82.9375 15.011719 82.832031 15.179688 C 82.722656 15.351562 82.671875 15.535156 82.675781 15.734375 C 82.664062 15.925781 82.710938 16.105469 82.8125 16.273438 C 82.894531 16.402344 83.007812 16.488281 83.152344 16.539062 C 83.308594 16.59375 83.472656 16.617188 83.636719 16.613281 C 83.910156 16.621094 84.164062 16.554688 84.398438 16.417969 C 84.605469 16.292969 84.777344 16.128906 84.90625 15.921875 C 85.023438 15.742188 85.082031 15.539062 85.089844 15.324219 Z M 85.066406 14.488281 " fill-opacity="1" fill-rule="nonzero"/><path fill="#273b4f" d="M 91.617188 15.710938 C 91.605469 15.902344 91.605469 16.09375 91.617188 16.289062 C 91.625 16.390625 91.65625 16.488281 91.707031 16.574219 C 91.753906 16.652344 91.8125 16.714844 91.890625 16.757812 C 92.015625 16.820312 92.144531 16.867188 92.285156 16.894531 L 92.285156 17.183594 L 89.785156 17.183594 L 89.785156 16.894531 C 89.964844 16.863281 90.125 16.796875 90.273438 16.691406 C 90.367188 16.597656 90.421875 16.484375 90.4375 16.355469 C 90.457031 16.140625 90.457031 15.925781 90.4375 15.710938 L 90.4375 10.59375 C 90.453125 10.394531 90.453125 10.195312 90.4375 9.996094 C 90.425781 9.894531 90.390625 9.796875 90.339844 9.707031 C 90.292969 9.636719 90.230469 9.582031 90.160156 9.539062 C 90.035156 9.480469 89.910156 9.4375 89.777344 9.402344 L 89.777344 9.113281 L 92.277344 9.113281 L 92.277344 9.394531 C 92.144531 9.421875 92.019531 9.464844 91.898438 9.523438 C 91.824219 9.566406 91.765625 9.617188 91.714844 9.683594 C 91.660156 9.777344 91.628906 9.875 91.617188 9.980469 C 91.585938 10.179688 91.574219 10.382812 91.578125 10.585938 Z M 99.359375 17.183594 L 97.027344 17.183594 L 97.027344 16.894531 C 97.144531 16.863281 97.253906 16.824219 97.363281 16.773438 C 97.429688 16.738281 97.484375 16.6875 97.527344 16.621094 C 97.585938 16.535156 97.621094 16.4375 97.636719 16.332031 C 97.652344 16.132812 97.652344 15.933594 97.636719 15.734375 L 97.636719 14.214844 C 97.636719 13.933594 97.636719 13.679688 97.636719 13.457031 C 97.621094 13.269531 97.597656 13.085938 97.558594 12.902344 C 97.519531 12.679688 97.410156 12.496094 97.234375 12.355469 C 97.15625 12.296875 97.074219 12.25 96.980469 12.21875 C 96.859375 12.183594 96.730469 12.164062 96.601562 12.167969 C 96.449219 12.164062 96.304688 12.195312 96.171875 12.265625 C 96 12.34375 95.851562 12.449219 95.714844 12.574219 C 95.566406 12.703125 95.445312 12.851562 95.351562 13.023438 C 95.269531 13.179688 95.234375 13.347656 95.238281 13.523438 L 95.238281 15.734375 C 95.226562 15.972656 95.246094 16.207031 95.289062 16.441406 C 95.3125 16.558594 95.371094 16.65625 95.464844 16.734375 C 95.597656 16.828125 95.746094 16.886719 95.90625 16.917969 L 95.90625 17.207031 L 93.582031 17.207031 L 93.582031 16.917969 C 93.695312 16.890625 93.804688 16.847656 93.90625 16.796875 C 93.976562 16.761719 94.03125 16.710938 94.074219 16.644531 C 94.132812 16.554688 94.167969 16.460938 94.179688 16.355469 C 94.203125 16.152344 94.203125 15.949219 94.179688 15.75 L 94.179688 13.167969 C 94.179688 12.917969 94.179688 12.710938 94.179688 12.5625 C 94.179688 12.429688 94.152344 12.308594 94.097656 12.1875 C 94.050781 12.09375 93.976562 12.027344 93.878906 11.984375 C 93.746094 11.925781 93.609375 11.890625 93.46875 11.871094 L 93.46875 11.550781 L 94.855469 11.5 L 95.214844 11.5 L 95.222656 12.433594 L 95.304688 12.433594 C 95.523438 12.199219 95.757812 11.988281 96.011719 11.792969 C 96.179688 11.675781 96.359375 11.578125 96.550781 11.503906 C 96.738281 11.429688 96.933594 11.394531 97.132812 11.398438 C 97.328125 11.394531 97.515625 11.421875 97.703125 11.476562 C 97.867188 11.519531 98.019531 11.59375 98.152344 11.703125 C 98.285156 11.804688 98.386719 11.933594 98.460938 12.082031 C 98.554688 12.253906 98.617188 12.4375 98.652344 12.628906 C 98.695312 12.898438 98.714844 13.167969 98.710938 13.441406 L 98.710938 15.671875 C 98.703125 15.871094 98.703125 16.066406 98.710938 16.265625 C 98.722656 16.363281 98.75 16.457031 98.796875 16.546875 C 98.839844 16.617188 98.898438 16.671875 98.972656 16.710938 C 99.09375 16.777344 99.222656 16.824219 99.359375 16.855469 Z M 100.003906 11.824219 C 100.171875 11.804688 100.332031 11.75 100.480469 11.664062 C 100.601562 11.585938 100.699219 11.480469 100.769531 11.355469 C 100.847656 11.207031 100.902344 11.054688 100.929688 10.890625 C 100.976562 10.703125 101.011719 10.429688 101.058594 10.070312 L 101.894531 10.070312 L 101.894531 11.527344 L 103.804688 11.527344 L 103.804688 12.128906 L 101.894531 12.128906 L 101.894531 14.761719 C 101.886719 15.066406 101.90625 15.371094 101.945312 15.671875 C 101.964844 15.863281 102.023438 16.039062 102.121094 16.203125 C 102.195312 16.324219 102.292969 16.417969 102.417969 16.484375 C 102.550781 16.542969 102.695312 16.574219 102.84375 16.570312 C 102.996094 16.566406 103.148438 16.535156 103.289062 16.46875 C 103.4375 16.394531 103.570312 16.300781 103.691406 16.1875 L 103.957031 16.507812 C 103.734375 16.746094 103.480469 16.941406 103.199219 17.101562 C 102.960938 17.21875 102.707031 17.277344 102.441406 17.28125 C 101.984375 17.316406 101.605469 17.164062 101.300781 16.828125 C 101.015625 16.398438 100.890625 15.929688 100.929688 15.414062 L 100.929688 12.128906 L 100.003906 12.128906 Z M 109.179688 16.179688 C 108.96875 16.410156 108.734375 16.617188 108.480469 16.804688 C 108.269531 16.957031 108.039062 17.074219 107.789062 17.152344 C 107.519531 17.242188 107.242188 17.285156 106.957031 17.28125 C 106.21875 17.328125 105.601562 17.074219 105.113281 16.523438 C 104.644531 15.878906 104.441406 15.160156 104.496094 14.367188 C 104.488281 13.824219 104.589844 13.308594 104.808594 12.8125 C 105.007812 12.375 105.308594 12.023438 105.710938 11.765625 C 106.125 11.511719 106.578125 11.390625 107.0625 11.398438 C 107.414062 11.390625 107.753906 11.453125 108.078125 11.589844 C 108.347656 11.703125 108.570312 11.875 108.746094 12.105469 C 108.933594 12.355469 109.0625 12.632812 109.140625 12.933594 C 109.246094 13.363281 109.296875 13.796875 109.292969 14.238281 L 105.574219 14.238281 L 105.574219 14.34375 C 105.5625 14.746094 105.613281 15.136719 105.726562 15.519531 C 105.816406 15.828125 105.988281 16.082031 106.242188 16.28125 C 106.523438 16.476562 106.832031 16.566406 107.175781 16.554688 C 107.480469 16.558594 107.769531 16.496094 108.050781 16.371094 C 108.339844 16.222656 108.59375 16.027344 108.808594 15.777344 Z M 108.183594 13.78125 C 108.175781 13.425781 108.121094 13.078125 108.027344 12.734375 C 107.960938 12.492188 107.839844 12.285156 107.652344 12.113281 C 107.464844 11.960938 107.246094 11.886719 107 11.902344 C 106.589844 11.890625 106.265625 12.050781 106.03125 12.386719 C 105.75 12.808594 105.605469 13.277344 105.597656 13.78125 Z M 111.980469 12.515625 L 112.0625 12.515625 C 112.246094 12.289062 112.449219 12.078125 112.671875 11.894531 C 113.054688 11.570312 113.5 11.410156 114 11.414062 C 114.207031 11.414062 114.414062 11.425781 114.621094 11.453125 L 114.621094 12.8125 L 113.953125 12.8125 C 113.886719 12.636719 113.785156 12.480469 113.652344 12.347656 C 113.527344 12.242188 113.382812 12.195312 113.21875 12.203125 C 113.066406 12.203125 112.921875 12.246094 112.792969 12.324219 C 112.636719 12.421875 112.5 12.546875 112.382812 12.691406 C 112.269531 12.820312 112.179688 12.96875 112.117188 13.128906 C 112.066406 13.289062 112.039062 13.453125 112.042969 13.625 L 112.042969 15.695312 C 112.027344 15.953125 112.050781 16.203125 112.109375 16.453125 C 112.144531 16.582031 112.214844 16.679688 112.320312 16.757812 C 112.464844 16.835938 112.617188 16.882812 112.777344 16.902344 L 112.777344 17.191406 L 110.402344 17.191406 L 110.402344 16.902344 C 110.511719 16.875 110.617188 16.832031 110.71875 16.78125 C 110.789062 16.742188 110.847656 16.691406 110.894531 16.628906 C 110.949219 16.539062 110.984375 16.445312 111 16.339844 C 111.015625 16.136719 111.015625 15.9375 111 15.734375 L 111 13.152344 C 111 12.902344 111 12.699219 111 12.546875 C 111 12.417969 110.972656 12.292969 110.917969 12.171875 C 110.867188 12.078125 110.796875 12.011719 110.699219 11.96875 C 110.566406 11.910156 110.429688 11.875 110.289062 11.855469 L 110.289062 11.542969 L 111.675781 11.484375 L 112.035156 11.484375 Z M 121.226562 17.183594 L 118.894531 17.183594 L 118.894531 16.894531 C 119.007812 16.867188 119.117188 16.824219 119.222656 16.773438 C 119.292969 16.738281 119.351562 16.6875 119.394531 16.621094 C 119.449219 16.53125 119.484375 16.4375 119.503906 16.332031 C 119.519531 16.132812 119.519531 15.933594 119.503906 15.734375 L 119.503906 14.214844 C 119.503906 13.933594 119.503906 13.679688 119.503906 13.457031 C 119.492188 13.269531 119.464844 13.085938 119.417969 12.902344 C 119.390625 12.78125 119.34375 12.667969 119.28125 12.5625 C 119.230469 12.484375 119.164062 12.414062 119.09375 12.355469 C 119.019531 12.292969 118.9375 12.246094 118.84375 12.21875 C 118.722656 12.183594 118.597656 12.164062 118.46875 12.167969 C 118.316406 12.164062 118.167969 12.199219 118.03125 12.265625 C 117.863281 12.34375 117.710938 12.449219 117.574219 12.574219 C 117.429688 12.703125 117.3125 12.855469 117.21875 13.023438 C 117.136719 13.179688 117.101562 13.347656 117.105469 13.523438 L 117.105469 15.734375 C 117.097656 15.96875 117.113281 16.207031 117.148438 16.441406 C 117.171875 16.5625 117.234375 16.660156 117.332031 16.734375 C 117.464844 16.824219 117.609375 16.886719 117.765625 16.917969 L 117.765625 17.207031 L 115.449219 17.207031 L 115.449219 16.917969 C 115.5625 16.886719 115.671875 16.847656 115.777344 16.796875 C 115.84375 16.761719 115.898438 16.710938 115.941406 16.644531 C 116 16.554688 116.035156 16.460938 116.050781 16.355469 C 116.066406 16.152344 116.066406 15.949219 116.050781 15.75 L 116.050781 13.167969 C 116.050781 12.917969 116.050781 12.710938 116.050781 12.5625 C 116.050781 12.429688 116.023438 12.304688 115.964844 12.1875 C 115.917969 12.09375 115.847656 12.027344 115.753906 11.984375 C 115.621094 11.929688 115.484375 11.890625 115.34375 11.871094 L 115.34375 11.550781 L 116.722656 11.5 L 117.089844 11.5 L 117.035156 12.433594 L 117.121094 12.433594 C 117.339844 12.203125 117.574219 11.992188 117.824219 11.792969 C 117.996094 11.675781 118.179688 11.582031 118.371094 11.503906 C 118.558594 11.429688 118.753906 11.394531 118.957031 11.398438 C 119.148438 11.394531 119.339844 11.421875 119.523438 11.476562 C 119.6875 11.519531 119.835938 11.59375 119.964844 11.703125 C 120.097656 11.808594 120.203125 11.933594 120.285156 12.082031 C 120.375 12.253906 120.4375 12.4375 120.472656 12.628906 C 120.519531 12.898438 120.539062 13.167969 120.535156 13.441406 L 120.535156 15.671875 C 120.523438 15.871094 120.523438 16.066406 120.535156 16.265625 C 120.542969 16.363281 120.570312 16.457031 120.617188 16.546875 C 120.660156 16.613281 120.714844 16.671875 120.785156 16.710938 C 120.910156 16.777344 121.042969 16.824219 121.179688 16.855469 Z M 125.644531 16.339844 L 125.550781 16.339844 C 125.273438 16.648438 124.953125 16.902344 124.589844 17.101562 C 124.285156 17.246094 123.960938 17.320312 123.625 17.320312 C 123.359375 17.320312 123.105469 17.261719 122.863281 17.144531 C 122.636719 17.035156 122.460938 16.871094 122.332031 16.652344 C 122.203125 16.417969 122.140625 16.164062 122.152344 15.894531 C 122.152344 15.605469 122.230469 15.339844 122.386719 15.097656 C 122.539062 14.859375 122.75 14.675781 123.007812 14.558594 C 123.824219 14.1875 124.679688 14.003906 125.574219 14.011719 L 125.574219 13.625 C 125.582031 13.296875 125.542969 12.976562 125.453125 12.660156 C 125.390625 12.441406 125.265625 12.265625 125.082031 12.136719 C 124.871094 12.015625 124.640625 11.957031 124.398438 11.96875 C 124.113281 11.953125 123.863281 12.035156 123.640625 12.210938 C 123.425781 12.421875 123.285156 12.675781 123.222656 12.972656 L 122.460938 12.972656 L 122.460938 12.210938 C 122.765625 12.046875 123.082031 11.902344 123.402344 11.777344 C 123.652344 11.6875 123.902344 11.613281 124.164062 11.558594 C 124.414062 11.503906 124.667969 11.476562 124.921875 11.476562 C 125.25 11.460938 125.566406 11.523438 125.863281 11.664062 C 126.109375 11.789062 126.285156 11.980469 126.394531 12.234375 C 126.535156 12.609375 126.597656 12.996094 126.578125 13.394531 L 126.578125 15.453125 C 126.578125 15.742188 126.578125 15.945312 126.578125 16.066406 C 126.566406 16.179688 126.566406 16.289062 126.578125 16.402344 C 126.59375 16.492188 126.621094 16.574219 126.667969 16.652344 C 126.710938 16.71875 126.769531 16.769531 126.84375 16.804688 C 126.960938 16.863281 127.085938 16.910156 127.214844 16.941406 L 127.214844 17.230469 L 125.582031 17.230469 Z M 125.542969 14.488281 C 124.921875 14.460938 124.320312 14.566406 123.746094 14.808594 C 123.5625 14.886719 123.414062 15.011719 123.304688 15.179688 C 123.195312 15.347656 123.140625 15.53125 123.144531 15.734375 C 123.136719 15.925781 123.179688 16.105469 123.28125 16.273438 C 123.367188 16.398438 123.480469 16.488281 123.625 16.539062 C 123.785156 16.59375 123.949219 16.617188 124.117188 16.613281 C 124.390625 16.621094 124.640625 16.554688 124.875 16.417969 C 125.085938 16.296875 125.257812 16.128906 125.386719 15.921875 C 125.503906 15.742188 125.566406 15.542969 125.574219 15.324219 Z M 127.777344 11.824219 C 127.949219 11.800781 128.109375 11.75 128.261719 11.664062 C 128.382812 11.585938 128.476562 11.480469 128.542969 11.355469 C 128.621094 11.207031 128.679688 11.054688 128.710938 10.890625 C 128.710938 10.703125 128.785156 10.429688 128.832031 10.070312 L 129.671875 10.070312 L 129.671875 11.527344 L 131.585938 11.527344 L 131.585938 12.128906 L 129.671875 12.128906 L 129.671875 14.761719 C 129.667969 15.066406 129.683594 15.371094 129.71875 15.671875 C 129.738281 15.863281 129.792969 16.039062 129.894531 16.203125 C 129.972656 16.320312 130.070312 16.414062 130.191406 16.484375 C 130.328125 16.542969 130.472656 16.574219 130.621094 16.570312 C 130.777344 16.566406 130.921875 16.535156 131.0625 16.46875 C 131.210938 16.394531 131.347656 16.300781 131.472656 16.1875 L 131.738281 16.507812 C 131.503906 16.746094 131.238281 16.945312 130.941406 17.101562 C 130.703125 17.21875 130.449219 17.277344 130.183594 17.28125 C 129.726562 17.316406 129.347656 17.164062 129.042969 16.828125 C 128.753906 16.398438 128.628906 15.929688 128.671875 15.414062 L 128.671875 12.128906 L 127.792969 12.128906 Z M 132.230469 16.894531 C 132.34375 16.863281 132.453125 16.824219 132.558594 16.773438 C 132.625 16.734375 132.679688 16.683594 132.726562 16.621094 C 132.777344 16.53125 132.8125 16.4375 132.832031 16.332031 C 132.847656 16.128906 132.847656 15.929688 132.832031 15.726562 L 132.832031 13.144531 C 132.832031 12.894531 132.832031 12.691406 132.832031 12.539062 C 132.832031 12.40625 132.804688 12.285156 132.746094 12.167969 C 132.703125 12.070312 132.628906 12.003906 132.535156 11.960938 C 132.402344 11.90625 132.265625 11.867188 132.125 11.847656 L 132.125 11.527344 L 133.5 11.476562 L 133.863281 11.476562 L 133.863281 15.710938 C 133.855469 15.949219 133.871094 16.183594 133.910156 16.417969 C 133.933594 16.539062 133.992188 16.636719 134.089844 16.710938 C 134.222656 16.804688 134.367188 16.863281 134.523438 16.894531 L 134.523438 17.183594 L 132.207031 17.183594 Z M 133.929688 9.214844 L 133.929688 10.359375 L 132.839844 10.359375 L 132.839844 9.214844 Z M 138.175781 17.28125 C 137.429688 17.324219 136.804688 17.070312 136.300781 16.523438 C 135.808594 15.894531 135.59375 15.179688 135.65625 14.382812 C 135.640625 13.804688 135.75 13.253906 135.988281 12.726562 C 136.195312 12.296875 136.503906 11.960938 136.921875 11.726562 C 137.34375 11.5 137.796875 11.394531 138.273438 11.398438 C 139.03125 11.351562 139.667969 11.605469 140.1875 12.160156 C 140.671875 12.78125 140.890625 13.488281 140.839844 14.277344 C 140.859375 14.851562 140.75 15.40625 140.511719 15.929688 C 140.316406 16.390625 140 16.742188 139.5625 16.984375 C 139.117188 17.207031 138.644531 17.304688 138.144531 17.28125 Z M 136.769531 14.292969 C 136.734375 14.949219 136.863281 15.570312 137.15625 16.160156 C 137.265625 16.363281 137.417969 16.527344 137.617188 16.644531 C 137.816406 16.761719 138.035156 16.816406 138.265625 16.8125 C 138.511719 16.820312 138.734375 16.757812 138.941406 16.621094 C 139.128906 16.484375 139.28125 16.3125 139.390625 16.105469 C 139.515625 15.867188 139.601562 15.613281 139.648438 15.347656 C 139.695312 15.050781 139.722656 14.75 139.722656 14.449219 C 139.734375 13.960938 139.667969 13.480469 139.527344 13.007812 C 139.4375 12.675781 139.261719 12.394531 139 12.167969 C 138.78125 11.984375 138.527344 11.898438 138.242188 11.902344 C 138.015625 11.894531 137.804688 11.945312 137.605469 12.058594 C 137.40625 12.167969 137.253906 12.324219 137.140625 12.523438 C 136.847656 13.074219 136.710938 13.664062 136.738281 14.292969 Z M 147.800781 17.183594 L 145.46875 17.183594 L 145.46875 16.894531 C 145.582031 16.867188 145.691406 16.824219 145.796875 16.773438 C 145.867188 16.738281 145.925781 16.6875 145.96875 16.621094 C 146.023438 16.53125 146.058594 16.4375 146.074219 16.332031 C 146.09375 16.132812 146.09375 15.933594 146.074219 15.734375 L 146.074219 14.214844 C 146.074219 13.933594 146.074219 13.679688 146.074219 13.457031 C 146.066406 13.269531 146.039062 13.085938 145.992188 12.902344 C 145.964844 12.78125 145.917969 12.667969 145.855469 12.5625 C 145.800781 12.484375 145.738281 12.414062 145.667969 12.355469 C 145.59375 12.292969 145.507812 12.246094 145.414062 12.21875 C 145.292969 12.183594 145.171875 12.164062 145.042969 12.167969 C 144.890625 12.164062 144.742188 12.199219 144.601562 12.265625 C 144.433594 12.34375 144.285156 12.449219 144.148438 12.574219 C 144.003906 12.703125 143.882812 12.855469 143.792969 13.023438 C 143.710938 13.179688 143.675781 13.347656 143.675781 13.523438 L 143.675781 15.734375 C 143.671875 15.96875 143.683594 16.207031 143.722656 16.441406 C 143.746094 16.5625 143.808594 16.660156 143.90625 16.734375 C 144.035156 16.824219 144.179688 16.886719 144.335938 16.917969 L 144.335938 17.207031 L 142.023438 17.207031 L 142.023438 16.917969 C 142.136719 16.890625 142.246094 16.847656 142.347656 16.796875 C 142.417969 16.761719 142.472656 16.710938 142.515625 16.644531 C 142.574219 16.554688 142.609375 16.460938 142.621094 16.355469 C 142.640625 16.152344 142.640625 15.953125 142.621094 15.75 L 142.621094 13.167969 C 142.621094 12.917969 142.621094 12.710938 142.621094 12.5625 C 142.621094 12.433594 142.597656 12.308594 142.546875 12.1875 C 142.496094 12.097656 142.421875 12.027344 142.328125 11.984375 C 142.195312 11.929688 142.058594 11.890625 141.917969 11.871094 L 141.917969 11.550781 L 143.296875 11.5 L 143.664062 11.5 L 143.601562 12.433594 L 143.683594 12.433594 C 143.90625 12.203125 144.140625 11.992188 144.390625 11.792969 C 144.5625 11.675781 144.746094 11.582031 144.9375 11.503906 C 145.125 11.429688 145.320312 11.394531 145.523438 11.398438 C 145.714844 11.394531 145.90625 11.421875 146.089844 11.476562 C 146.253906 11.519531 146.402344 11.59375 146.53125 11.703125 C 146.664062 11.808594 146.769531 11.933594 146.851562 12.082031 C 146.941406 12.253906 147.003906 12.4375 147.039062 12.628906 C 147.082031 12.898438 147.105469 13.167969 147.101562 13.441406 L 147.101562 15.671875 C 147.089844 15.871094 147.089844 16.066406 147.101562 16.265625 C 147.109375 16.363281 147.136719 16.457031 147.183594 16.546875 C 147.226562 16.613281 147.28125 16.671875 147.351562 16.710938 C 147.476562 16.777344 147.609375 16.824219 147.746094 16.855469 Z M 152.214844 16.339844 L 152.125 16.339844 C 151.847656 16.648438 151.527344 16.902344 151.160156 17.101562 C 150.855469 17.246094 150.535156 17.320312 150.199219 17.320312 C 149.929688 17.320312 149.679688 17.261719 149.4375 17.144531 C 149.210938 17.035156 149.035156 16.871094 148.90625 16.652344 C 148.773438 16.417969 148.714844 16.164062 148.726562 15.894531 C 148.726562 15.605469 148.804688 15.339844 148.957031 15.097656 C 149.113281 14.859375 149.320312 14.675781 149.582031 14.558594 C 150.398438 14.1875 151.253906 14.003906 152.148438 14.011719 L 152.148438 13.625 C 152.15625 13.296875 152.117188 12.976562 152.027344 12.660156 C 151.964844 12.441406 151.839844 12.265625 151.65625 12.136719 C 151.441406 12.015625 151.214844 11.957031 150.972656 11.96875 C 150.6875 11.953125 150.433594 12.035156 150.210938 12.210938 C 150 12.421875 149.859375 12.675781 149.796875 12.972656 L 149.035156 12.972656 L 149.035156 12.210938 C 149.339844 12.046875 149.65625 11.902344 149.976562 11.777344 C 150.226562 11.6875 150.476562 11.613281 150.738281 11.558594 C 150.988281 11.503906 151.238281 11.476562 151.496094 11.476562 C 151.824219 11.460938 152.140625 11.523438 152.4375 11.664062 C 152.683594 11.789062 152.863281 11.980469 152.96875 12.234375 C 153.109375 12.609375 153.171875 12.996094 153.148438 13.394531 L 153.148438 15.453125 C 153.148438 15.742188 153.148438 15.945312 153.148438 16.066406 C 153.140625 16.179688 153.140625 16.289062 153.148438 16.402344 C 153.164062 16.492188 153.195312 16.574219 153.242188 16.652344 C 153.285156 16.71875 153.34375 16.769531 153.414062 16.804688 C 153.535156 16.863281 153.65625 16.910156 153.789062 16.941406 L 153.789062 17.230469 L 152.148438 17.230469 Z M 152.117188 14.488281 C 151.496094 14.460938 150.894531 14.566406 150.320312 14.808594 C 150.132812 14.886719 149.988281 15.011719 149.878906 15.179688 C 149.769531 15.347656 149.714844 15.53125 149.71875 15.734375 C 149.710938 15.925781 149.753906 16.105469 149.855469 16.273438 C 149.941406 16.398438 150.054688 16.488281 150.199219 16.539062 C 150.355469 16.59375 150.523438 16.617188 150.691406 16.613281 C 150.960938 16.621094 151.214844 16.554688 151.449219 16.417969 C 151.660156 16.296875 151.832031 16.128906 151.957031 15.921875 C 152.082031 15.742188 152.144531 15.542969 152.148438 15.324219 Z M 156.285156 15.710938 C 156.273438 15.949219 156.292969 16.183594 156.339844 16.417969 C 156.363281 16.535156 156.421875 16.632812 156.511719 16.710938 C 156.648438 16.804688 156.792969 16.863281 156.953125 16.894531 L 156.953125 17.183594 L 154.601562 17.183594 L 154.601562 16.894531 C 154.746094 16.863281 154.882812 16.808594 155.011719 16.734375 C 155.085938 16.6875 155.144531 16.621094 155.175781 16.539062 C 155.21875 16.4375 155.246094 16.335938 155.253906 16.226562 C 155.253906 16.089844 155.253906 15.921875 155.253906 15.710938 L 155.253906 10.753906 C 155.253906 10.375 155.253906 10.117188 155.253906 9.996094 C 155.25 9.867188 155.234375 9.742188 155.207031 9.617188 C 155.191406 9.523438 155.15625 9.441406 155.101562 9.367188 C 155.054688 9.300781 154.992188 9.257812 154.917969 9.230469 C 154.785156 9.175781 154.644531 9.140625 154.5 9.121094 L 154.5 8.8125 L 155.929688 8.75 L 156.277344 8.75 Z M 156.285156 15.710938 " fill-opacity="1" fill-rule="nonzero"/><path fill="#273b4f" d="M 166.773438 14.726562 C 166.773438 15.136719 166.722656 15.539062 166.625 15.9375 C 166.546875 16.230469 166.421875 16.507812 166.253906 16.761719 C 166.101562 16.988281 165.914062 17.179688 165.691406 17.332031 C 165.4375 17.503906 165.160156 17.628906 164.863281 17.707031 C 164.496094 17.796875 164.125 17.839844 163.746094 17.835938 C 163.320312 17.84375 162.902344 17.792969 162.488281 17.679688 C 162.128906 17.574219 161.820312 17.382812 161.5625 17.109375 C 161.320312 16.839844 161.144531 16.527344 161.042969 16.175781 C 160.921875 15.726562 160.867188 15.269531 160.875 14.800781 L 160.875 10.578125 C 160.890625 10.351562 160.890625 10.125 160.875 9.898438 C 160.859375 9.800781 160.824219 9.707031 160.777344 9.617188 C 160.730469 9.546875 160.675781 9.488281 160.605469 9.441406 C 160.46875 9.371094 160.324219 9.320312 160.175781 9.285156 L 160.175781 8.972656 L 162.878906 8.972656 L 162.878906 9.285156 C 162.699219 9.320312 162.53125 9.386719 162.375 9.484375 C 162.269531 9.574219 162.207031 9.6875 162.183594 9.824219 C 162.144531 10.074219 162.128906 10.324219 162.132812 10.578125 L 162.132812 15.140625 C 162.125 15.5 162.167969 15.847656 162.265625 16.191406 C 162.328125 16.445312 162.453125 16.664062 162.628906 16.855469 C 162.792969 17.015625 162.984375 17.125 163.199219 17.191406 C 163.472656 17.273438 163.746094 17.308594 164.027344 17.300781 C 164.316406 17.3125 164.589844 17.257812 164.855469 17.144531 C 165.085938 17.03125 165.277344 16.871094 165.425781 16.664062 C 165.59375 16.410156 165.695312 16.136719 165.730469 15.835938 C 165.800781 15.421875 165.828125 15 165.824219 14.578125 L 165.824219 10.578125 C 165.832031 10.320312 165.8125 10.066406 165.765625 9.816406 C 165.738281 9.691406 165.679688 9.585938 165.582031 9.5 C 165.425781 9.390625 165.25 9.320312 165.0625 9.285156 L 165.0625 8.972656 L 167.632812 8.972656 L 167.632812 9.285156 C 167.449219 9.324219 167.277344 9.394531 167.121094 9.5 C 167.023438 9.589844 166.957031 9.699219 166.929688 9.832031 C 166.890625 10.078125 166.875 10.328125 166.882812 10.578125 Z M 174.976562 17.761719 L 172.414062 17.761719 L 172.414062 17.449219 C 172.539062 17.417969 172.660156 17.375 172.777344 17.316406 C 172.851562 17.277344 172.914062 17.222656 172.960938 17.152344 C 173.023438 17.054688 173.0625 16.949219 173.074219 16.835938 C 173.097656 16.621094 173.097656 16.402344 173.074219 16.183594 L 173.074219 14.53125 C 173.074219 14.222656 173.074219 13.945312 173.074219 13.703125 C 173.066406 13.5 173.039062 13.296875 172.992188 13.097656 C 172.949219 12.855469 172.832031 12.65625 172.636719 12.503906 C 172.554688 12.4375 172.464844 12.386719 172.363281 12.355469 C 172.234375 12.316406 172.097656 12.296875 171.960938 12.296875 C 171.792969 12.292969 171.632812 12.328125 171.480469 12.402344 C 171.296875 12.492188 171.132812 12.601562 170.984375 12.742188 C 170.820312 12.882812 170.6875 13.042969 170.585938 13.230469 C 170.503906 13.402344 170.464844 13.585938 170.472656 13.777344 L 170.472656 16.183594 C 170.464844 16.441406 170.480469 16.699219 170.519531 16.953125 C 170.546875 17.085938 170.613281 17.191406 170.71875 17.277344 C 170.859375 17.378906 171.019531 17.441406 171.191406 17.472656 L 171.191406 17.789062 L 168.699219 17.789062 L 168.699219 17.472656 C 168.828125 17.441406 168.949219 17.398438 169.066406 17.339844 C 169.136719 17.300781 169.191406 17.246094 169.238281 17.175781 C 169.300781 17.078125 169.339844 16.96875 169.355469 16.855469 C 169.375 16.632812 169.375 16.414062 169.355469 16.191406 L 169.355469 13.378906 C 169.355469 13.105469 169.355469 12.882812 169.355469 12.71875 C 169.351562 12.578125 169.320312 12.441406 169.261719 12.3125 C 169.210938 12.210938 169.132812 12.136719 169.03125 12.089844 C 168.886719 12.027344 168.734375 11.988281 168.578125 11.964844 L 168.578125 11.617188 L 170.089844 11.558594 L 170.480469 11.558594 L 170.414062 12.609375 L 170.503906 12.609375 C 170.742188 12.355469 170.996094 12.125 171.273438 11.917969 C 171.457031 11.785156 171.652344 11.683594 171.859375 11.601562 C 172.066406 11.519531 172.277344 11.480469 172.496094 11.484375 C 172.707031 11.480469 172.914062 11.507812 173.117188 11.570312 C 173.484375 11.671875 173.761719 11.894531 173.945312 12.230469 C 174.039062 12.417969 174.105469 12.617188 174.144531 12.824219 C 174.195312 13.117188 174.21875 13.414062 174.210938 13.710938 L 174.210938 16.140625 C 174.199219 16.355469 174.199219 16.574219 174.210938 16.789062 C 174.21875 16.894531 174.25 16.996094 174.300781 17.09375 C 174.347656 17.171875 174.410156 17.230469 174.492188 17.277344 C 174.625 17.34375 174.765625 17.394531 174.914062 17.433594 Z M 176.070312 17.449219 C 176.195312 17.417969 176.3125 17.375 176.425781 17.316406 C 176.5 17.277344 176.5625 17.222656 176.609375 17.152344 C 176.667969 17.054688 176.707031 16.949219 176.722656 16.835938 C 176.753906 16.617188 176.769531 16.398438 176.765625 16.175781 L 176.765625 13.363281 C 176.765625 13.089844 176.765625 12.867188 176.765625 12.703125 C 176.765625 12.5625 176.738281 12.425781 176.683594 12.296875 C 176.625 12.195312 176.546875 12.121094 176.441406 12.074219 C 176.296875 12.011719 176.148438 11.972656 175.996094 11.949219 L 175.996094 11.601562 L 177.5 11.542969 L 177.890625 11.542969 L 177.890625 16.160156 C 177.882812 16.417969 177.898438 16.671875 177.9375 16.929688 C 177.964844 17.058594 178.03125 17.167969 178.136719 17.25 C 178.28125 17.347656 178.4375 17.414062 178.609375 17.449219 L 178.609375 17.761719 L 176.128906 17.761719 Z M 177.914062 9.078125 L 177.914062 10.328125 L 176.722656 10.328125 L 176.722656 9.078125 Z M 181.867188 11.601562 L 181.867188 11.890625 C 181.722656 11.917969 181.582031 11.960938 181.445312 12.023438 C 181.371094 12.0625 181.308594 12.117188 181.265625 12.1875 C 181.21875 12.277344 181.195312 12.371094 181.199219 12.46875 C 181.199219 12.59375 181.214844 12.714844 181.246094 12.835938 C 181.277344 12.984375 181.320312 13.128906 181.371094 13.273438 L 182.496094 16.53125 L 183.8125 13.414062 C 183.882812 13.246094 183.941406 13.074219 183.992188 12.898438 C 184.023438 12.777344 184.042969 12.652344 184.042969 12.527344 C 184.054688 12.371094 184.007812 12.234375 183.902344 12.113281 C 183.746094 11.988281 183.566406 11.914062 183.363281 11.890625 L 183.363281 11.570312 L 185.78125 11.570312 L 185.78125 11.890625 C 185.636719 11.910156 185.507812 11.960938 185.390625 12.046875 C 185.28125 12.140625 185.1875 12.25 185.117188 12.378906 C 185.023438 12.535156 184.917969 12.75 184.796875 13.023438 L 182.628906 17.796875 L 181.867188 17.796875 L 180.121094 12.984375 C 180.039062 12.75 179.941406 12.523438 179.832031 12.304688 C 179.710938 12.058594 179.511719 11.921875 179.238281 11.890625 L 179.238281 11.570312 Z M 191.503906 16.671875 C 191.269531 16.921875 191.019531 17.148438 190.742188 17.351562 C 190.511719 17.515625 190.257812 17.640625 189.988281 17.730469 C 189.695312 17.824219 189.390625 17.871094 189.078125 17.871094 C 188.277344 17.921875 187.605469 17.644531 187.070312 17.042969 C 186.5625 16.34375 186.339844 15.558594 186.398438 14.695312 C 186.386719 14.105469 186.496094 13.539062 186.738281 13 C 186.960938 12.535156 187.289062 12.164062 187.722656 11.890625 C 188.175781 11.617188 188.667969 11.484375 189.195312 11.496094 C 189.578125 11.484375 189.949219 11.550781 190.304688 11.699219 C 190.59375 11.828125 190.835938 12.015625 191.03125 12.261719 C 191.234375 12.535156 191.375 12.835938 191.460938 13.164062 C 191.574219 13.632812 191.628906 14.105469 191.628906 14.585938 L 187.566406 14.585938 L 187.566406 14.703125 C 187.550781 15.152344 187.609375 15.59375 187.738281 16.027344 C 187.839844 16.375 188.039062 16.652344 188.335938 16.859375 C 188.628906 17.066406 188.957031 17.160156 189.320312 17.136719 C 189.652344 17.140625 189.96875 17.074219 190.269531 16.9375 C 190.585938 16.773438 190.863281 16.558594 191.097656 16.292969 Z M 190.417969 14.058594 C 190.40625 13.671875 190.351562 13.289062 190.246094 12.917969 C 190.175781 12.652344 190.042969 12.425781 189.839844 12.238281 C 189.632812 12.070312 189.394531 11.992188 189.128906 12.007812 C 188.683594 11.996094 188.328125 12.171875 188.070312 12.535156 C 187.765625 13 187.609375 13.503906 187.597656 14.058594 Z M 194.554688 12.675781 L 194.644531 12.675781 C 194.84375 12.429688 195.0625 12.203125 195.308594 12 C 195.726562 11.648438 196.207031 11.472656 196.753906 11.476562 C 196.980469 11.464844 197.207031 11.464844 197.433594 11.476562 L 197.433594 12.957031 L 196.707031 12.957031 C 196.625 12.769531 196.515625 12.601562 196.375 12.453125 C 196.238281 12.335938 196.082031 12.285156 195.902344 12.296875 C 195.734375 12.296875 195.582031 12.339844 195.441406 12.429688 C 195.269531 12.535156 195.121094 12.667969 194.992188 12.824219 C 194.730469 13.113281 194.605469 13.453125 194.621094 13.84375 L 194.621094 16.101562 C 194.605469 16.378906 194.628906 16.65625 194.695312 16.929688 C 194.730469 17.066406 194.808594 17.175781 194.925781 17.257812 C 195.082031 17.34375 195.246094 17.394531 195.421875 17.417969 L 195.421875 17.730469 L 192.828125 17.730469 L 192.828125 17.417969 C 192.945312 17.386719 193.0625 17.339844 193.171875 17.285156 C 193.25 17.242188 193.308594 17.1875 193.355469 17.117188 C 193.421875 17.023438 193.460938 16.917969 193.472656 16.804688 C 193.492188 16.582031 193.492188 16.363281 193.472656 16.140625 L 193.472656 13.332031 C 193.472656 13.058594 193.472656 12.835938 193.472656 12.667969 C 193.46875 12.527344 193.4375 12.390625 193.378906 12.261719 C 193.324219 12.164062 193.246094 12.089844 193.140625 12.039062 C 192.996094 11.980469 192.847656 11.9375 192.695312 11.917969 L 192.695312 11.578125 L 194.199219 11.511719 L 194.597656 11.511719 Z M 202.691406 13.015625 L 202.074219 13.015625 C 202 12.792969 201.886719 12.589844 201.742188 12.402344 C 201.621094 12.265625 201.476562 12.164062 201.304688 12.097656 C 201.109375 12.03125 200.90625 12 200.699219 12.007812 C 200.394531 11.988281 200.121094 12.066406 199.871094 12.246094 C 199.664062 12.417969 199.5625 12.636719 199.566406 12.910156 C 199.558594 13.082031 199.601562 13.246094 199.691406 13.398438 C 199.792969 13.546875 199.917969 13.667969 200.070312 13.761719 C 200.363281 13.929688 200.667969 14.078125 200.980469 14.199219 C 201.335938 14.34375 201.671875 14.519531 201.988281 14.726562 C 202.21875 14.871094 202.40625 15.054688 202.550781 15.28125 C 202.695312 15.511719 202.765625 15.761719 202.757812 16.035156 C 202.765625 16.324219 202.707031 16.597656 202.585938 16.863281 C 202.46875 17.09375 202.304688 17.285156 202.089844 17.433594 C 201.863281 17.585938 201.613281 17.691406 201.34375 17.746094 C 201.03125 17.816406 200.714844 17.847656 200.394531 17.847656 C 200.042969 17.847656 199.691406 17.820312 199.34375 17.761719 C 199.007812 17.710938 198.679688 17.644531 198.351562 17.554688 L 198.351562 16.234375 L 198.980469 16.234375 C 199.066406 16.5625 199.238281 16.835938 199.492188 17.058594 C 199.777344 17.257812 200.089844 17.347656 200.433594 17.324219 C 200.589844 17.324219 200.742188 17.308594 200.890625 17.277344 C 201.035156 17.25 201.164062 17.199219 201.289062 17.117188 C 201.40625 17.042969 201.5 16.941406 201.558594 16.8125 C 201.636719 16.660156 201.675781 16.503906 201.667969 16.332031 C 201.679688 16.140625 201.632812 15.960938 201.535156 15.796875 C 201.433594 15.636719 201.300781 15.507812 201.136719 15.414062 C 200.832031 15.238281 200.515625 15.085938 200.1875 14.960938 C 199.855469 14.832031 199.542969 14.671875 199.246094 14.480469 C 199.019531 14.335938 198.832031 14.152344 198.683594 13.933594 C 198.542969 13.703125 198.476562 13.453125 198.484375 13.179688 C 198.480469 12.84375 198.574219 12.539062 198.773438 12.261719 C 198.988281 11.984375 199.265625 11.785156 199.601562 11.667969 C 200.007812 11.519531 200.429688 11.449219 200.867188 11.460938 C 201.15625 11.460938 201.429688 11.460938 201.691406 11.460938 C 201.957031 11.460938 202.289062 11.542969 202.683594 11.625 Z M 204.050781 17.449219 C 204.171875 17.417969 204.292969 17.375 204.40625 17.316406 C 204.480469 17.277344 204.539062 17.222656 204.585938 17.152344 C 204.636719 17.058594 204.664062 16.957031 204.667969 16.855469 C 204.691406 16.632812 204.691406 16.414062 204.667969 16.191406 L 204.667969 13.378906 C 204.667969 13.105469 204.667969 12.882812 204.667969 12.71875 C 204.667969 12.578125 204.636719 12.441406 204.578125 12.3125 C 204.527344 12.210938 204.445312 12.136719 204.339844 12.089844 C 204.195312 12.027344 204.046875 11.984375 203.890625 11.964844 L 203.890625 11.617188 L 205.398438 11.558594 L 205.785156 11.558594 L 205.785156 16.175781 C 205.777344 16.433594 205.796875 16.691406 205.84375 16.945312 C 205.871094 17.074219 205.933594 17.183594 206.035156 17.265625 C 206.179688 17.367188 206.339844 17.433594 206.515625 17.464844 L 206.515625 17.78125 L 203.984375 17.78125 Z M 205.894531 9.078125 L 205.894531 10.328125 L 204.667969 10.328125 L 204.667969 9.078125 Z M 207.308594 11.890625 C 207.492188 11.867188 207.667969 11.8125 207.828125 11.71875 C 207.960938 11.628906 208.066406 11.519531 208.144531 11.378906 C 208.226562 11.21875 208.285156 11.050781 208.316406 10.875 C 208.367188 10.667969 208.410156 10.371094 208.457031 9.980469 L 209.367188 9.980469 L 209.367188 11.570312 L 211.453125 11.570312 L 211.453125 12.222656 L 209.367188 12.222656 L 209.367188 15.09375 C 209.367188 15.425781 209.382812 15.753906 209.425781 16.085938 C 209.445312 16.292969 209.507812 16.484375 209.617188 16.664062 C 209.699219 16.789062 209.808594 16.890625 209.9375 16.96875 C 210.085938 17.035156 210.242188 17.066406 210.402344 17.058594 C 210.570312 17.058594 210.734375 17.023438 210.890625 16.953125 C 211.050781 16.871094 211.195312 16.769531 211.328125 16.648438 L 211.617188 16.996094 C 211.375 17.253906 211.101562 17.46875 210.789062 17.640625 C 210.53125 17.765625 210.253906 17.832031 209.964844 17.835938 C 209.46875 17.878906 209.058594 17.710938 208.730469 17.339844 C 208.410156 16.878906 208.273438 16.363281 208.316406 15.804688 L 208.316406 12.253906 L 207.367188 12.253906 Z M 214.882812 18.257812 C 214.691406 18.710938 214.464844 19.144531 214.199219 19.558594 C 214.003906 19.859375 213.753906 20.109375 213.453125 20.300781 C 213.160156 20.484375 212.84375 20.570312 212.503906 20.558594 C 212.222656 20.554688 211.949219 20.527344 211.675781 20.476562 L 211.675781 19.226562 L 212.246094 19.226562 C 212.277344 19.367188 212.34375 19.492188 212.445312 19.597656 C 212.542969 19.671875 212.652344 19.707031 212.773438 19.699219 C 212.898438 19.703125 213.011719 19.675781 213.121094 19.625 C 213.246094 19.558594 213.347656 19.472656 213.4375 19.367188 C 213.585938 19.195312 213.714844 19.011719 213.824219 18.8125 C 213.972656 18.566406 214.140625 18.25 214.320312 17.871094 L 212.519531 13.015625 C 212.441406 12.789062 212.347656 12.574219 212.238281 12.363281 C 212.179688 12.253906 212.105469 12.15625 212.015625 12.074219 C 211.898438 11.996094 211.769531 11.945312 211.632812 11.925781 L 211.632812 11.601562 L 214.253906 11.601562 L 214.253906 11.890625 C 214.109375 11.917969 213.96875 11.960938 213.832031 12.023438 C 213.757812 12.066406 213.699219 12.125 213.652344 12.195312 C 213.613281 12.285156 213.59375 12.378906 213.59375 12.476562 C 213.597656 12.597656 213.609375 12.71875 213.636719 12.835938 C 213.636719 12.957031 213.710938 13.105469 213.769531 13.273438 L 214.917969 16.507812 L 216.25 13.445312 C 216.320312 13.292969 216.375 13.132812 216.414062 12.964844 C 216.457031 12.835938 216.476562 12.703125 216.480469 12.570312 C 216.492188 12.40625 216.445312 12.265625 216.332031 12.148438 C 216.175781 12.023438 216 11.949219 215.800781 11.925781 L 215.800781 11.601562 L 218.21875 11.601562 L 218.21875 11.890625 C 218.074219 11.910156 217.945312 11.960938 217.828125 12.046875 C 217.714844 12.140625 217.625 12.25 217.554688 12.378906 C 217.460938 12.535156 217.355469 12.75 217.234375 13.023438 Z M 214.882812 18.257812 " fill-opacity="1" fill-rule="nonzero"/></svg>