<svg xmlns="http://www.w3.org/2000/svg" xmlns:xlink="http://www.w3.org/1999/xlink" width="300" zoomAndPan="magnify" viewBox="0 0 224.87999 30.000001" height="40" preserveAspectRatio="xMidYMid meet" version="1.0"><defs><clipPath id="abade7f943"><path d="M 167.695312 10 L 221 10 L 221 21 L 167.695312 21 Z M 167.695312 10 " clip-rule="nonzero"/></clipPath></defs><path fill="#006433" d="M 6.496094 16.757812 C 6.550781 17.066406 6.664062 17.351562 6.832031 17.617188 C 6.964844 17.832031 7.144531 17.988281 7.375 18.089844 C 7.652344 18.203125 7.945312 18.253906 8.246094 18.242188 C 8.667969 18.265625 9.039062 18.140625 9.359375 17.867188 C 9.644531 17.550781 9.773438 17.179688 9.742188 16.757812 C 9.757812 16.476562 9.707031 16.210938 9.585938 15.960938 C 9.457031 15.71875 9.28125 15.519531 9.058594 15.363281 C 8.703125 15.113281 8.332031 14.894531 7.941406 14.707031 C 7.53125 14.515625 7.144531 14.28125 6.785156 14.003906 C 6.523438 13.796875 6.3125 13.546875 6.15625 13.253906 C 6.015625 12.976562 5.945312 12.683594 5.945312 12.371094 C 5.949219 11.941406 6.0625 11.542969 6.296875 11.183594 C 6.535156 10.816406 6.855469 10.550781 7.253906 10.382812 C 7.714844 10.191406 8.191406 10.097656 8.691406 10.105469 C 9 10.105469 9.308594 10.121094 9.617188 10.152344 C 9.996094 10.207031 10.371094 10.28125 10.742188 10.375 L 10.742188 12.097656 L 10.125 12.097656 C 10.058594 11.792969 9.9375 11.507812 9.769531 11.246094 C 9.640625 11.054688 9.46875 10.914062 9.257812 10.824219 C 9 10.730469 8.734375 10.6875 8.460938 10.703125 C 8.207031 10.699219 7.964844 10.746094 7.734375 10.847656 C 7.523438 10.949219 7.355469 11.101562 7.230469 11.300781 C 7.097656 11.523438 7.03125 11.761719 7.039062 12.019531 C 7.03125 12.28125 7.085938 12.527344 7.199219 12.761719 C 7.324219 12.984375 7.488281 13.171875 7.695312 13.328125 C 8.007812 13.554688 8.339844 13.75 8.691406 13.910156 C 9.125 14.121094 9.535156 14.371094 9.925781 14.652344 C 10.207031 14.871094 10.433594 15.136719 10.605469 15.449219 C 10.78125 15.765625 10.863281 16.109375 10.851562 16.46875 C 10.867188 16.855469 10.796875 17.226562 10.644531 17.578125 C 10.515625 17.867188 10.328125 18.109375 10.078125 18.304688 C 9.816406 18.503906 9.527344 18.640625 9.210938 18.71875 C 8.84375 18.808594 8.476562 18.851562 8.101562 18.847656 C 7.34375 18.816406 6.601562 18.691406 5.875 18.480469 L 5.875 16.757812 Z M 15.6875 17.800781 L 15.589844 17.800781 C 15.300781 18.128906 14.960938 18.394531 14.578125 18.601562 C 14.257812 18.753906 13.917969 18.832031 13.5625 18.832031 C 13.285156 18.832031 13.019531 18.769531 12.765625 18.648438 C 12.53125 18.53125 12.347656 18.359375 12.214844 18.128906 C 12.074219 17.882812 12.007812 17.617188 12.015625 17.332031 C 12.015625 17.03125 12.097656 16.75 12.261719 16.496094 C 12.425781 16.242188 12.644531 16.054688 12.917969 15.925781 C 13.773438 15.539062 14.671875 15.347656 15.613281 15.351562 L 15.613281 14.945312 C 15.628906 14.601562 15.585938 14.265625 15.488281 13.933594 C 15.417969 13.695312 15.28125 13.507812 15.070312 13.375 C 14.851562 13.25 14.617188 13.191406 14.363281 13.199219 C 14.0625 13.179688 13.796875 13.265625 13.5625 13.453125 C 13.335938 13.675781 13.1875 13.941406 13.117188 14.253906 L 12.320312 14.253906 L 12.320312 13.453125 C 12.640625 13.28125 12.972656 13.128906 13.316406 13 C 13.578125 12.902344 13.84375 12.824219 14.113281 12.769531 C 14.378906 12.714844 14.644531 12.683594 14.914062 12.679688 C 15.257812 12.667969 15.589844 12.734375 15.902344 12.878906 C 16.15625 13.015625 16.34375 13.214844 16.460938 13.480469 C 16.605469 13.859375 16.671875 14.253906 16.667969 14.660156 L 16.667969 16.820312 C 16.667969 17.125 16.667969 17.339844 16.667969 17.46875 C 16.667969 17.585938 16.679688 17.703125 16.707031 17.816406 C 16.71875 17.910156 16.746094 18 16.792969 18.082031 C 16.839844 18.152344 16.902344 18.203125 16.976562 18.242188 C 17.105469 18.304688 17.238281 18.355469 17.378906 18.382812 L 17.378906 18.6875 L 15.652344 18.6875 Z M 15.582031 15.855469 C 14.925781 15.824219 14.296875 15.9375 13.691406 16.191406 C 13.5 16.277344 13.34375 16.40625 13.230469 16.582031 C 13.117188 16.757812 13.058594 16.953125 13.0625 17.164062 C 13.050781 17.367188 13.097656 17.554688 13.207031 17.730469 C 13.292969 17.863281 13.414062 17.957031 13.5625 18.007812 C 14.011719 18.15625 14.4375 18.113281 14.847656 17.882812 C 15.074219 17.753906 15.253906 17.582031 15.390625 17.363281 C 15.511719 17.171875 15.578125 16.960938 15.582031 16.734375 Z M 21.589844 13.375 L 20.105469 13.375 L 20.105469 17.140625 C 20.089844 17.347656 20.089844 17.554688 20.105469 17.761719 C 20.117188 17.878906 20.15625 17.984375 20.222656 18.082031 C 20.273438 18.160156 20.34375 18.21875 20.433594 18.257812 C 20.5625 18.320312 20.695312 18.363281 20.839844 18.382812 L 20.839844 18.6875 L 18.335938 18.6875 L 18.335938 18.382812 C 18.472656 18.355469 18.601562 18.304688 18.726562 18.242188 C 18.804688 18.199219 18.867188 18.144531 18.910156 18.066406 C 18.960938 17.972656 18.996094 17.871094 19.003906 17.761719 C 19.019531 17.554688 19.019531 17.347656 19.003906 17.140625 L 19.003906 13.375 L 18.261719 13.375 L 18.261719 13.054688 L 18.574219 13 L 18.726562 12.9375 C 18.773438 12.902344 18.816406 12.863281 18.84375 12.808594 C 18.890625 12.734375 18.925781 12.65625 18.941406 12.570312 C 18.992188 12.414062 19.03125 12.257812 19.058594 12.097656 C 19.082031 11.722656 19.164062 11.355469 19.308594 11.007812 C 19.433594 10.722656 19.617188 10.480469 19.859375 10.28125 C 20.09375 10.085938 20.359375 9.949219 20.65625 9.867188 C 20.972656 9.773438 21.296875 9.730469 21.628906 9.738281 C 21.898438 9.734375 22.164062 9.757812 22.425781 9.808594 L 22.425781 10.933594 L 21.8125 10.933594 C 21.761719 10.738281 21.667969 10.566406 21.53125 10.417969 C 21.40625 10.304688 21.261719 10.253906 21.09375 10.265625 C 20.972656 10.257812 20.855469 10.277344 20.742188 10.320312 C 20.644531 10.359375 20.558594 10.417969 20.488281 10.496094 C 20.402344 10.585938 20.335938 10.691406 20.289062 10.808594 C 20.222656 10.964844 20.179688 11.132812 20.160156 11.300781 C 20.144531 11.566406 20.144531 11.832031 20.160156 12.097656 L 20.160156 12.746094 L 21.644531 12.746094 Z M 26.613281 14.046875 L 25.019531 18.71875 L 24.117188 18.71875 L 22.625 14.109375 C 22.5625 13.894531 22.480469 13.683594 22.386719 13.480469 C 22.335938 13.375 22.265625 13.285156 22.179688 13.207031 C 22.074219 13.128906 21.957031 13.078125 21.828125 13.054688 L 21.828125 12.746094 L 24.285156 12.746094 L 24.285156 13.054688 C 24.105469 13.078125 23.945312 13.140625 23.796875 13.246094 C 23.699219 13.351562 23.65625 13.472656 23.671875 13.613281 C 23.660156 13.730469 23.660156 13.847656 23.671875 13.964844 C 23.699219 14.109375 23.734375 14.25 23.78125 14.386719 L 24.753906 17.578125 L 26.351562 12.792969 L 27.226562 12.792969 L 28.582031 17.578125 L 29.714844 14.492188 C 29.777344 14.34375 29.824219 14.191406 29.859375 14.039062 C 29.894531 13.90625 29.914062 13.773438 29.914062 13.636719 C 29.925781 13.484375 29.878906 13.347656 29.78125 13.230469 C 29.640625 13.113281 29.480469 13.042969 29.300781 13.023438 L 29.300781 12.714844 L 31.472656 12.714844 L 31.472656 13.023438 C 31.378906 13.042969 31.292969 13.070312 31.207031 13.113281 C 31.144531 13.148438 31.089844 13.195312 31.039062 13.246094 C 30.964844 13.335938 30.902344 13.425781 30.847656 13.527344 C 30.785156 13.65625 30.695312 13.855469 30.59375 14.117188 L 28.800781 18.71875 L 27.960938 18.71875 Z M 35.699219 17.800781 L 35.601562 17.800781 C 35.3125 18.128906 34.972656 18.394531 34.589844 18.601562 C 34.269531 18.753906 33.933594 18.832031 33.578125 18.832031 C 33.296875 18.832031 33.03125 18.769531 32.777344 18.648438 C 32.542969 18.53125 32.359375 18.359375 32.230469 18.128906 C 32.082031 17.882812 32.015625 17.617188 32.027344 17.332031 C 32.03125 17.03125 32.113281 16.75 32.273438 16.496094 C 32.4375 16.242188 32.65625 16.054688 32.929688 15.925781 C 33.789062 15.539062 34.6875 15.347656 35.625 15.351562 L 35.625 14.945312 C 35.640625 14.601562 35.597656 14.265625 35.5 13.933594 C 35.433594 13.703125 35.300781 13.523438 35.109375 13.382812 C 34.886719 13.257812 34.652344 13.199219 34.398438 13.207031 C 34.097656 13.1875 33.832031 13.273438 33.601562 13.464844 C 33.371094 13.683594 33.222656 13.949219 33.152344 14.261719 L 32.355469 14.261719 L 32.355469 13.464844 C 32.679688 13.289062 33.011719 13.136719 33.351562 13.007812 C 33.613281 12.910156 33.878906 12.832031 34.152344 12.777344 C 34.414062 12.722656 34.679688 12.691406 34.949219 12.6875 C 35.292969 12.675781 35.625 12.742188 35.9375 12.890625 C 36.195312 13.023438 36.378906 13.222656 36.496094 13.488281 C 36.636719 13.882812 36.699219 14.289062 36.679688 14.707031 L 36.679688 16.867188 C 36.679688 17.171875 36.679688 17.386719 36.679688 17.515625 C 36.667969 17.632812 36.667969 17.75 36.679688 17.867188 C 36.691406 17.960938 36.71875 18.046875 36.765625 18.128906 C 36.8125 18.199219 36.875 18.253906 36.949219 18.289062 C 37.078125 18.355469 37.210938 18.402344 37.347656 18.433594 L 37.347656 18.734375 L 35.667969 18.734375 Z M 35.59375 15.855469 C 34.9375 15.824219 34.308594 15.9375 33.703125 16.191406 C 33.511719 16.273438 33.355469 16.402344 33.242188 16.582031 C 33.125 16.757812 33.070312 16.953125 33.074219 17.164062 C 33.0625 17.367188 33.113281 17.554688 33.21875 17.730469 C 33.304688 17.863281 33.425781 17.957031 33.578125 18.007812 C 34.023438 18.15625 34.453125 18.113281 34.859375 17.882812 C 35.085938 17.753906 35.265625 17.582031 35.402344 17.363281 C 35.527344 17.171875 35.589844 16.960938 35.59375 16.734375 Z M 37.988281 13.054688 C 38.167969 13.035156 38.332031 12.980469 38.488281 12.890625 C 38.617188 12.804688 38.71875 12.695312 38.792969 12.5625 C 38.859375 12.414062 38.902344 12.257812 38.921875 12.097656 C 38.960938 11.898438 39.007812 11.613281 39.046875 11.238281 L 39.933594 11.238281 L 39.933594 12.769531 L 41.945312 12.769531 L 41.945312 13.398438 L 39.933594 13.398438 L 39.933594 16.167969 C 39.929688 16.488281 39.945312 16.804688 39.980469 17.125 C 40 17.328125 40.0625 17.511719 40.171875 17.683594 C 40.25 17.808594 40.355469 17.90625 40.484375 17.976562 C 40.625 18.042969 40.773438 18.070312 40.929688 18.066406 C 41.09375 18.0625 41.246094 18.03125 41.394531 17.960938 C 41.550781 17.882812 41.695312 17.785156 41.824219 17.667969 L 42.101562 18 C 41.871094 18.25 41.601562 18.457031 41.304688 18.625 C 41.054688 18.75 40.789062 18.8125 40.507812 18.816406 C 40.03125 18.851562 39.632812 18.691406 39.3125 18.335938 C 39.003906 17.886719 38.875 17.394531 38.921875 16.851562 L 38.921875 13.375 L 37.949219 13.375 Z M 37.988281 13.054688 " fill-opacity="1" fill-rule="nonzero"/><path fill="#006433" d="M 49.097656 18.6875 L 49.097656 18.382812 C 49.257812 18.355469 49.410156 18.3125 49.5625 18.25 C 49.660156 18.207031 49.734375 18.136719 49.785156 18.042969 C 49.84375 17.929688 49.871094 17.808594 49.863281 17.683594 C 49.863281 17.527344 49.84375 17.378906 49.808594 17.226562 C 49.808594 17.058594 49.726562 16.875 49.671875 16.675781 L 49.441406 15.878906 L 46.546875 15.878906 L 46.332031 16.492188 C 46.246094 16.722656 46.179688 16.953125 46.125 17.1875 C 46.085938 17.328125 46.066406 17.472656 46.066406 17.617188 C 46.046875 17.828125 46.113281 18.007812 46.257812 18.160156 C 46.425781 18.300781 46.621094 18.378906 46.839844 18.390625 L 46.839844 18.695312 L 44.183594 18.695312 L 44.183594 18.390625 C 44.445312 18.347656 44.648438 18.214844 44.792969 17.992188 C 45.003906 17.683594 45.171875 17.351562 45.292969 16.996094 L 47.886719 10.113281 L 48.867188 10.113281 L 50.964844 17.035156 C 51.035156 17.289062 51.121094 17.539062 51.226562 17.777344 C 51.292969 17.929688 51.386719 18.0625 51.507812 18.175781 C 51.636719 18.285156 51.78125 18.355469 51.945312 18.382812 L 51.945312 18.6875 Z M 46.707031 15.335938 L 49.296875 15.335938 L 48.117188 11.347656 Z M 54.347656 17.140625 C 54.339844 17.390625 54.355469 17.636719 54.394531 17.882812 C 54.421875 18.007812 54.488281 18.109375 54.585938 18.191406 C 54.722656 18.289062 54.875 18.351562 55.039062 18.382812 L 55.039062 18.6875 L 52.558594 18.6875 L 52.558594 18.382812 C 52.710938 18.351562 52.855469 18.296875 52.992188 18.21875 C 53.070312 18.164062 53.128906 18.097656 53.167969 18.007812 C 53.207031 17.90625 53.230469 17.796875 53.238281 17.683594 C 53.246094 17.5 53.246094 17.320312 53.238281 17.140625 L 53.238281 11.929688 C 53.238281 11.53125 53.238281 11.261719 53.238281 11.132812 C 53.234375 11 53.21875 10.867188 53.191406 10.734375 C 53.167969 10.640625 53.132812 10.554688 53.078125 10.472656 C 53.027344 10.40625 52.964844 10.359375 52.886719 10.328125 C 52.746094 10.273438 52.597656 10.234375 52.449219 10.214844 L 52.449219 9.890625 L 53.941406 9.824219 L 54.316406 9.824219 Z M 54.347656 17.140625 " fill-opacity="1" fill-rule="nonzero"/><path fill="#006433" d="M 58.941406 16.757812 C 58.996094 17.066406 59.109375 17.351562 59.277344 17.617188 C 59.410156 17.832031 59.589844 17.988281 59.816406 18.089844 C 60.097656 18.203125 60.386719 18.253906 60.6875 18.242188 C 61.109375 18.265625 61.480469 18.140625 61.804688 17.867188 C 62.089844 17.550781 62.214844 17.179688 62.1875 16.757812 C 62.203125 16.476562 62.148438 16.210938 62.027344 15.960938 C 61.898438 15.71875 61.722656 15.519531 61.5 15.363281 C 61.148438 15.113281 60.773438 14.894531 60.382812 14.707031 C 59.972656 14.515625 59.589844 14.28125 59.226562 14.003906 C 58.96875 13.796875 58.757812 13.546875 58.597656 13.253906 C 58.457031 12.976562 58.390625 12.683594 58.390625 12.371094 C 58.378906 11.9375 58.488281 11.535156 58.71875 11.164062 C 58.953125 10.800781 59.273438 10.535156 59.675781 10.367188 C 60.136719 10.175781 60.617188 10.082031 61.117188 10.089844 C 61.425781 10.089844 61.734375 10.105469 62.042969 10.136719 C 62.421875 10.191406 62.796875 10.265625 63.167969 10.359375 L 63.167969 12.097656 L 62.554688 12.097656 C 62.484375 11.792969 62.363281 11.507812 62.195312 11.246094 C 62.066406 11.054688 61.894531 10.914062 61.683594 10.824219 C 61.425781 10.730469 61.160156 10.6875 60.886719 10.703125 C 60.636719 10.699219 60.394531 10.746094 60.160156 10.847656 C 59.980469 10.960938 59.839844 11.113281 59.738281 11.300781 C 59.601562 11.523438 59.539062 11.761719 59.546875 12.019531 C 59.539062 12.28125 59.59375 12.527344 59.707031 12.761719 C 59.832031 12.984375 59.996094 13.171875 60.199219 13.328125 C 60.515625 13.554688 60.847656 13.75 61.199219 13.910156 C 61.628906 14.121094 62.042969 14.371094 62.433594 14.652344 C 62.714844 14.871094 62.941406 15.136719 63.113281 15.449219 C 63.285156 15.765625 63.367188 16.109375 63.359375 16.46875 C 63.375 16.855469 63.304688 17.226562 63.152344 17.578125 C 63.023438 17.867188 62.835938 18.109375 62.585938 18.304688 C 62.324219 18.503906 62.035156 18.640625 61.714844 18.71875 C 61.351562 18.808594 60.984375 18.851562 60.609375 18.847656 C 59.835938 18.820312 59.082031 18.695312 58.34375 18.480469 L 58.34375 16.757812 Z M 68.128906 17.800781 L 68.035156 17.800781 C 67.742188 18.128906 67.40625 18.394531 67.019531 18.601562 C 66.699219 18.753906 66.363281 18.832031 66.007812 18.832031 C 65.726562 18.832031 65.460938 18.769531 65.210938 18.648438 C 64.972656 18.53125 64.789062 18.359375 64.660156 18.128906 C 64.519531 17.882812 64.453125 17.617188 64.460938 17.332031 C 64.457031 17.03125 64.53125 16.757812 64.6875 16.5 C 64.84375 16.246094 65.054688 16.050781 65.320312 15.917969 C 66.179688 15.53125 67.078125 15.339844 68.019531 15.34375 L 68.019531 14.9375 C 68.03125 14.59375 67.988281 14.257812 67.890625 13.925781 C 67.828125 13.695312 67.695312 13.511719 67.5 13.375 C 67.28125 13.25 67.042969 13.191406 66.789062 13.199219 C 66.492188 13.179688 66.222656 13.265625 65.992188 13.453125 C 65.761719 13.675781 65.613281 13.941406 65.546875 14.253906 L 64.746094 14.253906 L 64.746094 13.453125 C 65.070312 13.28125 65.402344 13.128906 65.746094 13 C 66.003906 12.902344 66.269531 12.824219 66.542969 12.769531 C 66.804688 12.714844 67.070312 12.683594 67.339844 12.679688 C 67.6875 12.667969 68.015625 12.734375 68.328125 12.878906 C 68.585938 13.015625 68.769531 13.214844 68.886719 13.480469 C 69.027344 13.875 69.089844 14.28125 69.070312 14.699219 L 69.070312 16.859375 C 69.070312 17.164062 69.070312 17.378906 69.070312 17.507812 C 69.058594 17.625 69.058594 17.742188 69.070312 17.859375 C 69.082031 17.953125 69.109375 18.039062 69.160156 18.121094 C 69.203125 18.191406 69.265625 18.246094 69.34375 18.28125 C 69.46875 18.34375 69.601562 18.394531 69.742188 18.425781 L 69.742188 18.726562 L 68.035156 18.726562 Z M 68.027344 15.855469 C 67.371094 15.824219 66.742188 15.9375 66.136719 16.191406 C 65.941406 16.277344 65.789062 16.40625 65.675781 16.582031 C 65.558594 16.757812 65.503906 16.953125 65.503906 17.164062 C 65.496094 17.367188 65.542969 17.554688 65.648438 17.730469 C 65.738281 17.863281 65.855469 17.957031 66.007812 18.007812 C 66.453125 18.15625 66.882812 18.113281 67.292969 17.882812 C 67.515625 17.753906 67.695312 17.582031 67.835938 17.363281 C 67.957031 17.171875 68.019531 16.960938 68.027344 16.734375 Z M 74.09375 13.375 L 72.613281 13.375 L 72.613281 17.140625 C 72.59375 17.347656 72.59375 17.554688 72.613281 17.761719 C 72.625 17.878906 72.664062 17.984375 72.730469 18.082031 C 72.78125 18.160156 72.851562 18.21875 72.9375 18.257812 C 73.066406 18.320312 73.203125 18.363281 73.347656 18.382812 L 73.347656 18.6875 L 70.800781 18.6875 L 70.800781 18.382812 C 70.9375 18.355469 71.070312 18.304688 71.191406 18.242188 C 71.273438 18.199219 71.332031 18.144531 71.375 18.066406 C 71.429688 17.972656 71.460938 17.871094 71.472656 17.761719 C 71.488281 17.554688 71.488281 17.347656 71.472656 17.140625 L 71.472656 13.375 L 70.722656 13.375 L 70.722656 13.054688 L 71.03125 13 L 71.183594 12.9375 C 71.234375 12.902344 71.273438 12.863281 71.304688 12.808594 C 71.351562 12.734375 71.382812 12.65625 71.398438 12.570312 C 71.429688 12.421875 71.453125 12.273438 71.464844 12.125 C 71.484375 11.746094 71.566406 11.378906 71.710938 11.03125 C 71.835938 10.746094 72.019531 10.503906 72.261719 10.304688 C 72.496094 10.109375 72.765625 9.972656 73.058594 9.890625 C 73.375 9.796875 73.699219 9.753906 74.03125 9.761719 C 74.300781 9.757812 74.566406 9.785156 74.828125 9.832031 L 74.828125 10.957031 L 74.214844 10.957031 C 74.167969 10.761719 74.074219 10.589844 73.9375 10.441406 C 73.8125 10.328125 73.664062 10.277344 73.496094 10.289062 C 73.375 10.285156 73.261719 10.300781 73.148438 10.34375 C 73.046875 10.382812 72.964844 10.441406 72.890625 10.519531 C 72.804688 10.609375 72.738281 10.714844 72.691406 10.832031 C 72.628906 10.988281 72.585938 11.15625 72.5625 11.324219 C 72.546875 11.589844 72.546875 11.855469 72.5625 12.125 L 72.5625 12.769531 L 74.09375 12.769531 Z M 79.167969 14.046875 L 77.574219 18.71875 L 76.703125 18.71875 L 75.210938 14.109375 C 75.15625 13.890625 75.074219 13.679688 74.972656 13.480469 C 74.871094 13.230469 74.6875 13.089844 74.421875 13.054688 L 74.421875 12.746094 L 76.878906 12.746094 L 76.878906 13.054688 C 76.699219 13.078125 76.53125 13.140625 76.386719 13.246094 C 76.289062 13.351562 76.246094 13.472656 76.257812 13.613281 C 76.246094 13.730469 76.246094 13.847656 76.257812 13.964844 C 76.257812 14.085938 76.320312 14.230469 76.367188 14.386719 L 77.34375 17.578125 L 78.9375 12.792969 L 79.816406 12.792969 L 81.164062 17.578125 L 82.238281 14.492188 C 82.296875 14.332031 82.347656 14.179688 82.382812 14.039062 C 82.414062 13.90625 82.433594 13.773438 82.4375 13.636719 C 82.449219 13.484375 82.402344 13.347656 82.296875 13.230469 C 82.15625 13.113281 81.996094 13.042969 81.816406 13.023438 L 81.816406 12.714844 L 83.984375 12.714844 L 83.984375 13.023438 C 83.898438 13.042969 83.8125 13.070312 83.730469 13.113281 C 83.664062 13.148438 83.605469 13.191406 83.554688 13.246094 C 83.480469 13.332031 83.421875 13.425781 83.371094 13.527344 C 83.273438 13.71875 83.191406 13.914062 83.117188 14.117188 L 81.3125 18.6875 L 80.515625 18.6875 Z M 88.253906 17.800781 L 88.164062 17.800781 C 87.871094 18.128906 87.53125 18.394531 87.144531 18.601562 C 86.828125 18.753906 86.492188 18.832031 86.140625 18.832031 C 85.859375 18.832031 85.59375 18.769531 85.34375 18.648438 C 85.105469 18.53125 84.921875 18.359375 84.792969 18.128906 C 84.652344 17.882812 84.589844 17.617188 84.601562 17.332031 C 84.597656 17.03125 84.679688 16.753906 84.839844 16.5 C 85.003906 16.246094 85.21875 16.054688 85.492188 15.925781 C 86.351562 15.539062 87.25 15.347656 88.191406 15.351562 L 88.191406 14.945312 C 88.199219 14.601562 88.160156 14.265625 88.070312 13.933594 C 88 13.707031 87.871094 13.523438 87.679688 13.382812 C 87.457031 13.257812 87.21875 13.199219 86.960938 13.207031 C 86.664062 13.191406 86.398438 13.277344 86.164062 13.464844 C 85.933594 13.683594 85.785156 13.949219 85.71875 14.261719 L 84.917969 14.261719 L 84.917969 13.464844 C 85.242188 13.289062 85.574219 13.140625 85.917969 13.007812 C 86.175781 12.90625 86.441406 12.832031 86.714844 12.777344 C 86.976562 12.71875 87.242188 12.691406 87.511719 12.6875 C 87.859375 12.671875 88.1875 12.738281 88.5 12.890625 C 88.757812 13.023438 88.941406 13.222656 89.058594 13.488281 C 89.207031 13.882812 89.265625 14.289062 89.242188 14.707031 L 89.242188 16.867188 C 89.242188 17.171875 89.242188 17.386719 89.242188 17.515625 C 89.234375 17.632812 89.234375 17.75 89.242188 17.867188 C 89.253906 17.960938 89.289062 18.046875 89.339844 18.128906 C 89.382812 18.203125 89.445312 18.253906 89.523438 18.289062 C 89.644531 18.355469 89.777344 18.402344 89.914062 18.433594 L 89.914062 18.734375 L 88.214844 18.734375 Z M 88.148438 15.855469 C 87.496094 15.828125 86.863281 15.9375 86.257812 16.191406 C 86.066406 16.277344 85.914062 16.40625 85.800781 16.582031 C 85.6875 16.761719 85.632812 16.953125 85.636719 17.164062 C 85.625 17.367188 85.675781 17.554688 85.78125 17.730469 C 85.867188 17.867188 85.988281 17.957031 86.140625 18.007812 C 86.304688 18.066406 86.476562 18.09375 86.648438 18.089844 C 86.9375 18.097656 87.203125 18.027344 87.449219 17.882812 C 87.667969 17.75 87.84375 17.578125 87.980469 17.363281 C 88.105469 17.171875 88.167969 16.960938 88.171875 16.734375 Z M 88.148438 15.855469 " fill-opacity="1" fill-rule="nonzero"/><path fill="#006433" d="M 95.03125 17.140625 C 95.019531 17.34375 95.019531 17.542969 95.03125 17.746094 C 95.042969 17.855469 95.074219 17.957031 95.128906 18.050781 C 95.175781 18.128906 95.242188 18.191406 95.320312 18.242188 C 95.453125 18.304688 95.589844 18.355469 95.734375 18.382812 L 95.734375 18.6875 L 93.109375 18.6875 L 93.109375 18.382812 C 93.296875 18.351562 93.46875 18.28125 93.621094 18.167969 C 93.71875 18.070312 93.777344 17.953125 93.796875 17.816406 C 93.8125 17.59375 93.8125 17.367188 93.796875 17.140625 L 93.796875 11.765625 C 93.8125 11.554688 93.8125 11.34375 93.796875 11.132812 C 93.78125 11.027344 93.746094 10.925781 93.691406 10.832031 C 93.644531 10.757812 93.578125 10.699219 93.5 10.65625 C 93.375 10.59375 93.242188 10.546875 93.101562 10.511719 L 93.101562 10.207031 L 95.726562 10.207031 L 95.726562 10.503906 C 95.589844 10.53125 95.457031 10.578125 95.328125 10.640625 C 95.253906 10.683594 95.191406 10.738281 95.136719 10.808594 C 95.082031 10.902344 95.046875 11.007812 95.03125 11.117188 C 95.003906 11.328125 94.988281 11.542969 94.992188 11.757812 Z M 103.167969 18.6875 L 100.71875 18.6875 L 100.71875 18.382812 C 100.839844 18.351562 100.957031 18.308594 101.070312 18.257812 C 101.144531 18.21875 101.203125 18.164062 101.246094 18.097656 C 101.308594 18.003906 101.34375 17.902344 101.359375 17.792969 C 101.375 17.585938 101.375 17.375 101.359375 17.164062 L 101.359375 15.570312 C 101.359375 15.269531 101.359375 15.003906 101.359375 14.769531 C 101.34375 14.574219 101.320312 14.382812 101.277344 14.1875 C 101.238281 13.953125 101.125 13.761719 100.9375 13.613281 C 100.855469 13.550781 100.769531 13.503906 100.671875 13.472656 C 100.542969 13.433594 100.410156 13.414062 100.273438 13.414062 C 100.113281 13.414062 99.960938 13.449219 99.820312 13.519531 C 99.640625 13.601562 99.480469 13.710938 99.339844 13.847656 C 99.183594 13.980469 99.054688 14.136719 98.957031 14.316406 C 98.875 14.480469 98.832031 14.65625 98.835938 14.84375 L 98.835938 17.164062 C 98.828125 17.414062 98.847656 17.660156 98.894531 17.90625 C 98.917969 18.03125 98.980469 18.132812 99.078125 18.21875 C 99.21875 18.3125 99.371094 18.378906 99.539062 18.410156 L 99.539062 18.710938 L 97.097656 18.710938 L 97.097656 18.410156 C 97.21875 18.378906 97.332031 18.335938 97.441406 18.28125 C 97.515625 18.242188 97.574219 18.1875 97.617188 18.121094 C 97.675781 18.027344 97.714844 17.925781 97.730469 17.816406 C 97.75 17.605469 97.75 17.394531 97.730469 17.179688 L 97.730469 14.46875 C 97.730469 14.203125 97.730469 13.988281 97.730469 13.828125 C 97.726562 13.695312 97.695312 13.5625 97.640625 13.4375 C 97.589844 13.339844 97.511719 13.269531 97.410156 13.222656 C 97.273438 13.164062 97.128906 13.125 96.980469 13.105469 L 96.980469 12.769531 L 98.4375 12.714844 L 98.8125 12.714844 L 98.820312 13.695312 L 98.910156 13.695312 C 99.136719 13.449219 99.386719 13.226562 99.652344 13.023438 C 99.828125 12.898438 100.015625 12.796875 100.21875 12.722656 C 100.414062 12.644531 100.621094 12.605469 100.832031 12.609375 C 101.035156 12.605469 101.234375 12.632812 101.429688 12.6875 C 101.605469 12.734375 101.761719 12.816406 101.902344 12.929688 C 102.039062 13.035156 102.148438 13.167969 102.226562 13.328125 C 102.324219 13.507812 102.390625 13.699219 102.425781 13.902344 C 102.472656 14.183594 102.496094 14.46875 102.492188 14.753906 L 102.492188 17.101562 C 102.480469 17.308594 102.480469 17.515625 102.492188 17.722656 C 102.5 17.828125 102.53125 17.925781 102.578125 18.015625 C 102.625 18.09375 102.683594 18.152344 102.761719 18.191406 C 102.890625 18.257812 103.027344 18.308594 103.167969 18.34375 Z M 103.847656 13.054688 C 104.027344 13.035156 104.191406 12.980469 104.347656 12.890625 C 104.476562 12.804688 104.578125 12.695312 104.652344 12.5625 C 104.734375 12.410156 104.789062 12.246094 104.820312 12.074219 C 104.867188 11.875 104.90625 11.589844 104.957031 11.214844 L 105.832031 11.214844 L 105.832031 12.746094 L 107.84375 12.746094 L 107.84375 13.375 L 105.832031 13.375 L 105.832031 16.144531 C 105.828125 16.464844 105.84375 16.78125 105.890625 17.101562 C 105.90625 17.300781 105.96875 17.488281 106.070312 17.660156 C 106.148438 17.785156 106.253906 17.882812 106.382812 17.953125 C 106.527344 18.015625 106.675781 18.046875 106.828125 18.042969 C 106.992188 18.039062 107.152344 18.003906 107.300781 17.9375 C 107.457031 17.859375 107.597656 17.761719 107.722656 17.640625 L 108.003906 17.976562 C 107.769531 18.226562 107.503906 18.433594 107.203125 18.601562 C 106.953125 18.722656 106.6875 18.785156 106.40625 18.792969 C 105.929688 18.828125 105.53125 18.667969 105.210938 18.3125 C 104.910156 17.863281 104.777344 17.367188 104.820312 16.828125 L 104.820312 13.375 L 103.847656 13.375 Z M 113.488281 17.632812 C 113.265625 17.875 113.023438 18.09375 112.757812 18.289062 C 112.535156 18.449219 112.292969 18.570312 112.03125 18.65625 C 111.746094 18.746094 111.453125 18.792969 111.152344 18.792969 C 110.378906 18.839844 109.730469 18.574219 109.214844 17.992188 C 108.726562 17.316406 108.511719 16.5625 108.570312 15.726562 C 108.558594 15.160156 108.667969 14.613281 108.894531 14.09375 C 109.105469 13.632812 109.421875 13.265625 109.84375 12.992188 C 110.28125 12.726562 110.753906 12.601562 111.265625 12.609375 C 111.636719 12.597656 111.992188 12.664062 112.332031 12.808594 C 112.613281 12.929688 112.847656 13.109375 113.035156 13.351562 C 113.230469 13.613281 113.367188 13.902344 113.449219 14.222656 C 113.558594 14.671875 113.613281 15.128906 113.609375 15.59375 L 109.703125 15.59375 L 109.703125 15.703125 C 109.6875 16.125 109.742188 16.535156 109.859375 16.941406 C 109.957031 17.265625 110.136719 17.53125 110.402344 17.738281 C 110.699219 17.945312 111.023438 18.039062 111.382812 18.027344 C 111.703125 18.03125 112.011719 17.964844 112.300781 17.835938 C 112.609375 17.679688 112.875 17.472656 113.097656 17.210938 Z M 112.445312 15.113281 C 112.433594 14.742188 112.378906 14.375 112.277344 14.011719 C 112.210938 13.757812 112.082031 13.539062 111.886719 13.359375 C 111.6875 13.199219 111.457031 13.125 111.199219 13.136719 C 110.769531 13.125 110.429688 13.292969 110.179688 13.648438 C 109.886719 14.09375 109.734375 14.582031 109.726562 15.113281 Z M 116.433594 13.78125 L 116.519531 13.78125 C 116.710938 13.542969 116.925781 13.324219 117.160156 13.128906 C 117.5625 12.789062 118.027344 12.621094 118.554688 12.625 C 118.773438 12.625 118.992188 12.640625 119.210938 12.664062 L 119.210938 14.09375 L 118.507812 14.09375 C 118.433594 13.910156 118.328125 13.746094 118.1875 13.605469 C 118.058594 13.496094 117.90625 13.445312 117.734375 13.453125 C 117.574219 13.453125 117.421875 13.496094 117.285156 13.582031 C 117.121094 13.6875 116.976562 13.8125 116.855469 13.964844 C 116.738281 14.105469 116.644531 14.257812 116.578125 14.429688 C 116.523438 14.597656 116.496094 14.769531 116.496094 14.945312 L 116.496094 17.125 C 116.484375 17.394531 116.507812 17.660156 116.570312 17.921875 C 116.605469 18.054688 116.679688 18.160156 116.792969 18.242188 C 116.941406 18.320312 117.101562 18.371094 117.269531 18.390625 L 117.269531 18.695312 L 114.773438 18.695312 L 114.773438 18.390625 C 114.890625 18.363281 115.003906 18.320312 115.109375 18.265625 C 115.183594 18.226562 115.242188 18.171875 115.292969 18.105469 C 115.347656 18.011719 115.386719 17.910156 115.40625 17.800781 C 115.421875 17.589844 115.421875 17.375 115.40625 17.164062 L 115.40625 14.453125 C 115.40625 14.1875 115.40625 13.972656 115.40625 13.8125 C 115.402344 13.679688 115.371094 13.546875 115.316406 13.421875 C 115.265625 13.324219 115.1875 13.253906 115.085938 13.207031 C 114.949219 13.148438 114.804688 13.109375 114.65625 13.089844 L 114.65625 12.761719 L 116.113281 12.699219 L 116.488281 12.699219 Z M 126.148438 18.6875 L 123.699219 18.6875 L 123.699219 18.382812 C 123.820312 18.355469 123.933594 18.3125 124.042969 18.257812 C 124.117188 18.21875 124.179688 18.164062 124.226562 18.097656 C 124.28125 18.003906 124.320312 17.902344 124.335938 17.792969 C 124.355469 17.585938 124.355469 17.375 124.335938 17.164062 L 124.335938 15.570312 C 124.335938 15.269531 124.335938 15.003906 124.335938 14.769531 C 124.328125 14.574219 124.296875 14.378906 124.25 14.1875 C 124.21875 14.0625 124.171875 13.941406 124.105469 13.828125 C 124.050781 13.75 123.984375 13.675781 123.90625 13.613281 C 123.828125 13.546875 123.742188 13.5 123.644531 13.472656 C 123.515625 13.433594 123.386719 13.414062 123.253906 13.414062 C 123.089844 13.414062 122.9375 13.449219 122.789062 13.519531 C 122.613281 13.601562 122.453125 13.710938 122.3125 13.847656 C 122.160156 13.980469 122.035156 14.136719 121.9375 14.316406 C 121.851562 14.480469 121.8125 14.65625 121.816406 14.84375 L 121.816406 17.164062 C 121.808594 17.414062 121.824219 17.660156 121.863281 17.90625 C 121.890625 18.035156 121.953125 18.136719 122.054688 18.21875 C 122.195312 18.3125 122.347656 18.375 122.511719 18.410156 L 122.511719 18.710938 L 120.078125 18.710938 L 120.078125 18.410156 C 120.195312 18.378906 120.3125 18.335938 120.421875 18.28125 C 120.492188 18.242188 120.550781 18.1875 120.597656 18.121094 C 120.65625 18.027344 120.695312 17.925781 120.707031 17.816406 C 120.726562 17.605469 120.726562 17.394531 120.707031 17.179688 L 120.707031 14.46875 C 120.707031 14.203125 120.707031 13.988281 120.707031 13.828125 C 120.710938 13.691406 120.679688 13.5625 120.621094 13.4375 C 120.574219 13.339844 120.496094 13.269531 120.398438 13.222656 C 120.257812 13.164062 120.117188 13.125 119.964844 13.105469 L 119.964844 12.769531 L 121.417969 12.714844 L 121.800781 12.714844 L 121.746094 13.695312 L 121.832031 13.695312 C 122.066406 13.453125 122.3125 13.230469 122.574219 13.023438 C 122.753906 12.902344 122.945312 12.800781 123.148438 12.722656 C 123.347656 12.644531 123.550781 12.605469 123.761719 12.609375 C 123.96875 12.605469 124.167969 12.632812 124.363281 12.6875 C 124.535156 12.734375 124.6875 12.816406 124.824219 12.929688 C 124.964844 13.039062 125.074219 13.171875 125.160156 13.328125 C 125.253906 13.507812 125.320312 13.699219 125.359375 13.902344 C 125.40625 14.183594 125.425781 14.46875 125.421875 14.753906 L 125.421875 17.101562 C 125.410156 17.308594 125.410156 17.515625 125.421875 17.722656 C 125.433594 17.828125 125.460938 17.925781 125.511719 18.015625 C 125.554688 18.089844 125.613281 18.148438 125.6875 18.191406 C 125.816406 18.261719 125.957031 18.308594 126.101562 18.34375 Z M 130.789062 17.800781 L 130.695312 17.800781 C 130.402344 18.125 130.066406 18.390625 129.683594 18.601562 C 129.363281 18.753906 129.023438 18.832031 128.667969 18.832031 C 128.390625 18.832031 128.125 18.769531 127.871094 18.648438 C 127.632812 18.53125 127.445312 18.359375 127.3125 18.128906 C 127.175781 17.882812 127.109375 17.617188 127.121094 17.332031 C 127.121094 17.03125 127.203125 16.75 127.367188 16.496094 C 127.53125 16.242188 127.75 16.054688 128.023438 15.925781 C 128.878906 15.539062 129.777344 15.347656 130.71875 15.351562 L 130.71875 14.945312 C 130.726562 14.601562 130.683594 14.265625 130.589844 13.933594 C 130.523438 13.703125 130.394531 13.523438 130.199219 13.382812 C 129.976562 13.253906 129.738281 13.195312 129.480469 13.207031 C 129.183594 13.191406 128.917969 13.277344 128.683594 13.464844 C 128.460938 13.683594 128.3125 13.953125 128.246094 14.261719 L 127.449219 14.261719 L 127.449219 13.464844 C 127.769531 13.289062 128.097656 13.140625 128.4375 13.007812 C 128.699219 12.910156 128.964844 12.832031 129.234375 12.777344 C 129.496094 12.71875 129.765625 12.691406 130.03125 12.6875 C 130.378906 12.671875 130.707031 12.738281 131.023438 12.890625 C 131.28125 13.019531 131.464844 13.21875 131.582031 13.488281 C 131.730469 13.878906 131.792969 14.285156 131.773438 14.707031 L 131.773438 16.867188 C 131.773438 17.171875 131.773438 17.386719 131.773438 17.515625 C 131.761719 17.632812 131.761719 17.75 131.773438 17.867188 C 131.789062 17.960938 131.820312 18.046875 131.867188 18.128906 C 131.914062 18.199219 131.976562 18.253906 132.050781 18.289062 C 132.175781 18.351562 132.304688 18.398438 132.441406 18.433594 L 132.441406 18.734375 L 130.726562 18.734375 Z M 130.6875 15.855469 C 130.03125 15.824219 129.402344 15.9375 128.796875 16.191406 C 128.601562 16.273438 128.449219 16.402344 128.332031 16.582031 C 128.21875 16.757812 128.164062 16.953125 128.167969 17.164062 C 128.15625 17.367188 128.203125 17.554688 128.308594 17.730469 C 128.398438 17.863281 128.519531 17.957031 128.667969 18.007812 C 128.835938 18.066406 129.007812 18.09375 129.1875 18.089844 C 129.472656 18.097656 129.738281 18.027344 129.984375 17.882812 C 130.207031 17.753906 130.386719 17.582031 130.519531 17.363281 C 130.644531 17.171875 130.710938 16.960938 130.71875 16.734375 Z M 133.03125 13.054688 C 133.210938 13.035156 133.382812 12.976562 133.542969 12.890625 C 133.667969 12.804688 133.765625 12.695312 133.835938 12.5625 C 133.921875 12.410156 133.980469 12.246094 134.011719 12.074219 C 134.011719 11.875 134.09375 11.589844 134.140625 11.214844 L 135.027344 11.214844 L 135.027344 12.746094 L 137.035156 12.746094 L 137.035156 13.375 L 135.027344 13.375 L 135.027344 16.144531 C 135.023438 16.464844 135.039062 16.78125 135.074219 17.101562 C 135.09375 17.300781 135.152344 17.488281 135.257812 17.660156 C 135.339844 17.78125 135.441406 17.878906 135.566406 17.953125 C 135.714844 18.015625 135.863281 18.046875 136.023438 18.042969 C 136.183594 18.039062 136.339844 18.003906 136.484375 17.9375 C 136.640625 17.859375 136.785156 17.761719 136.917969 17.640625 L 137.195312 17.976562 C 136.949219 18.230469 136.671875 18.4375 136.359375 18.601562 C 136.105469 18.722656 135.839844 18.789062 135.558594 18.792969 C 135.082031 18.828125 134.683594 18.667969 134.363281 18.3125 C 134.058594 17.863281 133.925781 17.371094 133.972656 16.828125 L 133.972656 13.375 L 133.046875 13.375 Z M 137.714844 18.382812 C 137.832031 18.351562 137.945312 18.308594 138.058594 18.257812 C 138.128906 18.214844 138.183594 18.164062 138.230469 18.097656 C 138.289062 18.003906 138.324219 17.902344 138.34375 17.792969 C 138.359375 17.582031 138.359375 17.367188 138.34375 17.15625 L 138.34375 14.445312 C 138.34375 14.179688 138.34375 13.964844 138.34375 13.804688 C 138.34375 13.667969 138.316406 13.539062 138.257812 13.414062 C 138.207031 13.316406 138.132812 13.246094 138.03125 13.199219 C 137.894531 13.140625 137.75 13.101562 137.601562 13.082031 L 137.601562 12.746094 L 139.046875 12.6875 L 139.429688 12.6875 L 139.429688 17.140625 C 139.421875 17.390625 139.4375 17.636719 139.476562 17.882812 C 139.5 18.007812 139.566406 18.113281 139.667969 18.191406 C 139.804688 18.289062 139.957031 18.351562 140.121094 18.382812 L 140.121094 18.6875 L 137.691406 18.6875 Z M 139.5 10.3125 L 139.5 11.515625 L 138.351562 11.515625 L 138.351562 10.3125 Z M 143.960938 18.792969 C 143.175781 18.835938 142.519531 18.566406 141.988281 17.992188 C 141.472656 17.332031 141.246094 16.582031 141.3125 15.746094 C 141.296875 15.136719 141.414062 14.558594 141.660156 14.003906 C 141.878906 13.550781 142.207031 13.199219 142.644531 12.953125 C 143.085938 12.71875 143.558594 12.601562 144.0625 12.609375 C 144.859375 12.558594 145.527344 12.824219 146.074219 13.40625 C 146.585938 14.0625 146.8125 14.804688 146.757812 15.632812 C 146.777344 16.238281 146.664062 16.816406 146.414062 17.371094 C 146.207031 17.855469 145.875 18.222656 145.417969 18.480469 C 144.949219 18.710938 144.449219 18.816406 143.925781 18.792969 Z M 142.484375 15.648438 C 142.445312 16.339844 142.578125 16.992188 142.890625 17.609375 C 143.003906 17.828125 143.164062 17.996094 143.375 18.121094 C 143.585938 18.246094 143.8125 18.304688 144.054688 18.296875 C 144.3125 18.304688 144.550781 18.238281 144.765625 18.097656 C 144.964844 17.953125 145.121094 17.773438 145.234375 17.554688 C 145.371094 17.304688 145.460938 17.039062 145.507812 16.757812 C 145.558594 16.445312 145.585938 16.132812 145.585938 15.816406 C 145.597656 15.300781 145.527344 14.792969 145.378906 14.300781 C 145.285156 13.949219 145.101562 13.65625 144.828125 13.414062 C 144.597656 13.226562 144.332031 13.132812 144.03125 13.136719 C 143.792969 13.128906 143.570312 13.183594 143.359375 13.300781 C 143.152344 13.417969 142.992188 13.582031 142.875 13.789062 C 142.5625 14.371094 142.421875 14.992188 142.453125 15.648438 Z M 154.074219 18.6875 L 151.625 18.6875 L 151.625 18.382812 C 151.742188 18.355469 151.859375 18.3125 151.96875 18.257812 C 152.042969 18.21875 152.101562 18.164062 152.152344 18.097656 C 152.207031 18.003906 152.246094 17.902344 152.261719 17.792969 C 152.277344 17.585938 152.277344 17.375 152.261719 17.164062 L 152.261719 15.570312 C 152.261719 15.269531 152.261719 15.003906 152.261719 14.769531 C 152.25 14.574219 152.222656 14.378906 152.175781 14.1875 C 152.144531 14.0625 152.097656 13.941406 152.03125 13.828125 C 151.976562 13.75 151.910156 13.675781 151.832031 13.613281 C 151.753906 13.546875 151.667969 13.5 151.570312 13.472656 C 151.441406 13.433594 151.3125 13.414062 151.175781 13.414062 C 151.015625 13.414062 150.859375 13.449219 150.714844 13.519531 C 150.539062 13.601562 150.378906 13.710938 150.238281 13.847656 C 150.085938 13.980469 149.960938 14.136719 149.863281 14.316406 C 149.777344 14.480469 149.738281 14.65625 149.742188 14.84375 L 149.742188 17.164062 C 149.734375 17.414062 149.75 17.660156 149.789062 17.90625 C 149.816406 18.035156 149.878906 18.136719 149.980469 18.21875 C 150.121094 18.3125 150.269531 18.375 150.4375 18.410156 L 150.4375 18.710938 L 148.003906 18.710938 L 148.003906 18.410156 C 148.121094 18.378906 148.238281 18.335938 148.347656 18.28125 C 148.417969 18.242188 148.476562 18.1875 148.523438 18.121094 C 148.582031 18.027344 148.617188 17.925781 148.632812 17.816406 C 148.648438 17.605469 148.648438 17.394531 148.632812 17.179688 L 148.632812 14.46875 C 148.632812 14.203125 148.632812 13.988281 148.632812 13.828125 C 148.632812 13.695312 148.605469 13.5625 148.554688 13.4375 C 148.5 13.339844 148.421875 13.269531 148.320312 13.222656 C 148.183594 13.164062 148.039062 13.125 147.890625 13.105469 L 147.890625 12.769531 L 149.34375 12.714844 L 149.726562 12.714844 L 149.664062 13.695312 L 149.75 13.695312 C 149.980469 13.453125 150.230469 13.230469 150.492188 13.023438 C 150.671875 12.902344 150.863281 12.800781 151.066406 12.722656 C 151.261719 12.644531 151.46875 12.605469 151.679688 12.609375 C 151.882812 12.605469 152.082031 12.632812 152.277344 12.6875 C 152.449219 12.734375 152.605469 12.8125 152.742188 12.929688 C 152.878906 13.039062 152.992188 13.171875 153.074219 13.328125 C 153.171875 13.507812 153.238281 13.699219 153.273438 13.902344 C 153.320312 14.183594 153.34375 14.46875 153.339844 14.753906 L 153.339844 17.101562 C 153.328125 17.308594 153.328125 17.515625 153.339844 17.722656 C 153.347656 17.828125 153.378906 17.925781 153.425781 18.015625 C 153.472656 18.089844 153.53125 18.148438 153.601562 18.191406 C 153.734375 18.261719 153.871094 18.308594 154.015625 18.34375 Z M 158.714844 17.800781 L 158.621094 17.800781 C 158.328125 18.125 157.988281 18.390625 157.605469 18.601562 C 157.285156 18.753906 156.949219 18.832031 156.59375 18.832031 C 156.3125 18.832031 156.046875 18.769531 155.796875 18.648438 C 155.558594 18.53125 155.371094 18.359375 155.238281 18.128906 C 155.097656 17.882812 155.035156 17.617188 155.046875 17.332031 C 155.046875 17.03125 155.128906 16.75 155.292969 16.496094 C 155.453125 16.242188 155.671875 16.054688 155.949219 15.925781 C 156.804688 15.539062 157.703125 15.347656 158.644531 15.351562 L 158.644531 14.945312 C 158.652344 14.601562 158.609375 14.265625 158.515625 13.933594 C 158.449219 13.703125 158.320312 13.523438 158.125 13.382812 C 157.902344 13.253906 157.664062 13.195312 157.40625 13.207031 C 157.109375 13.191406 156.84375 13.277344 156.609375 13.464844 C 156.382812 13.683594 156.238281 13.953125 156.171875 14.261719 L 155.375 14.261719 L 155.375 13.464844 C 155.691406 13.289062 156.023438 13.140625 156.363281 13.007812 C 156.621094 12.910156 156.886719 12.832031 157.160156 12.777344 C 157.421875 12.71875 157.6875 12.691406 157.957031 12.6875 C 158.304688 12.671875 158.632812 12.738281 158.945312 12.890625 C 159.207031 13.019531 159.394531 13.21875 159.503906 13.488281 C 159.65625 13.878906 159.71875 14.285156 159.695312 14.707031 L 159.695312 16.867188 C 159.695312 17.171875 159.695312 17.386719 159.695312 17.515625 C 159.6875 17.632812 159.6875 17.75 159.695312 17.867188 C 159.710938 17.960938 159.746094 18.046875 159.792969 18.128906 C 159.839844 18.199219 159.898438 18.253906 159.976562 18.289062 C 160.101562 18.351562 160.230469 18.398438 160.367188 18.433594 L 160.367188 18.734375 L 158.644531 18.734375 Z M 158.613281 15.855469 C 157.957031 15.824219 157.324219 15.9375 156.722656 16.191406 C 156.527344 16.273438 156.371094 16.402344 156.257812 16.582031 C 156.140625 16.757812 156.085938 16.953125 156.089844 17.164062 C 156.082031 17.367188 156.128906 17.554688 156.234375 17.730469 C 156.324219 17.863281 156.441406 17.957031 156.59375 18.007812 C 156.761719 18.066406 156.933594 18.09375 157.113281 18.089844 C 157.398438 18.097656 157.664062 18.027344 157.910156 17.882812 C 158.132812 17.753906 158.308594 17.582031 158.445312 17.363281 C 158.574219 17.171875 158.640625 16.964844 158.644531 16.734375 Z M 162.992188 17.140625 C 162.980469 17.390625 163 17.636719 163.046875 17.882812 C 163.070312 18.007812 163.132812 18.109375 163.230469 18.191406 C 163.371094 18.289062 163.523438 18.351562 163.691406 18.382812 L 163.691406 18.6875 L 161.21875 18.6875 L 161.21875 18.382812 C 161.371094 18.351562 161.515625 18.296875 161.648438 18.21875 C 161.730469 18.167969 161.789062 18.097656 161.824219 18.007812 C 161.871094 17.90625 161.898438 17.796875 161.90625 17.683594 C 161.90625 17.539062 161.90625 17.363281 161.90625 17.140625 L 161.90625 11.929688 C 161.90625 11.53125 161.90625 11.261719 161.90625 11.132812 C 161.902344 11 161.886719 10.867188 161.859375 10.734375 C 161.839844 10.640625 161.800781 10.550781 161.746094 10.472656 C 161.695312 10.40625 161.632812 10.359375 161.554688 10.328125 C 161.414062 10.269531 161.265625 10.234375 161.117188 10.214844 L 161.117188 9.890625 L 162.617188 9.824219 L 162.980469 9.824219 Z M 162.992188 17.140625 " fill-opacity="1" fill-rule="nonzero"/><g clip-path="url(#abade7f943)"><path fill="#006433" d="M 173.898438 15.542969 C 173.898438 15.910156 173.851562 16.277344 173.765625 16.632812 C 173.691406 16.902344 173.582031 17.152344 173.425781 17.382812 C 173.289062 17.585938 173.121094 17.757812 172.917969 17.898438 C 172.6875 18.054688 172.441406 18.167969 172.171875 18.234375 C 171.839844 18.320312 171.503906 18.359375 171.160156 18.355469 C 170.773438 18.363281 170.394531 18.3125 170.023438 18.214844 C 169.695312 18.117188 169.417969 17.945312 169.183594 17.699219 C 168.964844 17.449219 168.804688 17.167969 168.714844 16.851562 C 168.605469 16.445312 168.554688 16.03125 168.5625 15.609375 L 168.5625 11.785156 C 168.574219 11.582031 168.574219 11.375 168.5625 11.171875 C 168.546875 11.082031 168.515625 11 168.472656 10.917969 C 168.433594 10.855469 168.378906 10.800781 168.316406 10.761719 C 168.191406 10.695312 168.0625 10.648438 167.925781 10.617188 L 167.925781 10.335938 L 170.375 10.335938 L 170.375 10.617188 C 170.210938 10.648438 170.058594 10.707031 169.917969 10.796875 C 169.824219 10.878906 169.769531 10.984375 169.746094 11.105469 C 169.710938 11.332031 169.695312 11.558594 169.699219 11.785156 L 169.699219 15.917969 C 169.691406 16.238281 169.730469 16.554688 169.820312 16.867188 C 169.878906 17.09375 169.988281 17.292969 170.148438 17.464844 C 170.296875 17.609375 170.46875 17.710938 170.667969 17.773438 C 170.910156 17.847656 171.160156 17.878906 171.414062 17.871094 C 171.675781 17.878906 171.925781 17.832031 172.164062 17.726562 C 172.371094 17.625 172.542969 17.480469 172.679688 17.292969 C 172.832031 17.066406 172.921875 16.816406 172.957031 16.546875 C 173.015625 16.167969 173.042969 15.789062 173.039062 15.40625 L 173.039062 11.785156 C 173.046875 11.554688 173.027344 11.324219 172.984375 11.097656 C 172.964844 10.984375 172.910156 10.890625 172.820312 10.8125 C 172.679688 10.714844 172.519531 10.648438 172.351562 10.617188 L 172.351562 10.335938 L 174.675781 10.335938 L 174.675781 10.617188 C 174.507812 10.652344 174.355469 10.714844 174.214844 10.8125 C 174.125 10.894531 174.066406 10.992188 174.042969 11.113281 C 174.003906 11.335938 173.988281 11.558594 173.996094 11.785156 Z M 181.320312 18.289062 L 179.003906 18.289062 L 179.003906 18.003906 C 179.117188 17.976562 179.226562 17.9375 179.332031 17.882812 C 179.398438 17.847656 179.453125 17.796875 179.496094 17.734375 C 179.550781 17.648438 179.585938 17.554688 179.601562 17.449219 C 179.621094 17.253906 179.621094 17.054688 179.601562 16.859375 L 179.601562 15.363281 C 179.601562 15.082031 179.601562 14.832031 179.601562 14.613281 C 179.59375 14.429688 179.566406 14.246094 179.527344 14.066406 C 179.488281 13.847656 179.378906 13.667969 179.203125 13.53125 C 179.128906 13.46875 179.046875 13.425781 178.957031 13.394531 C 178.839844 13.359375 178.714844 13.339844 178.589844 13.34375 C 178.4375 13.339844 178.292969 13.371094 178.15625 13.441406 C 177.992188 13.519531 177.839844 13.621094 177.707031 13.746094 C 177.5625 13.871094 177.441406 14.019531 177.347656 14.1875 C 177.273438 14.34375 177.238281 14.507812 177.242188 14.683594 L 177.242188 16.859375 C 177.238281 17.09375 177.25 17.324219 177.289062 17.554688 C 177.3125 17.675781 177.371094 17.773438 177.46875 17.847656 C 177.597656 17.9375 177.738281 18 177.894531 18.027344 L 177.894531 18.3125 L 175.640625 18.3125 L 175.640625 18.027344 C 175.757812 18 175.867188 17.957031 175.972656 17.90625 C 176.035156 17.867188 176.085938 17.820312 176.128906 17.757812 C 176.1875 17.667969 176.222656 17.570312 176.234375 17.464844 C 176.253906 17.265625 176.253906 17.066406 176.234375 16.867188 L 176.234375 14.324219 C 176.234375 14.074219 176.234375 13.875 176.234375 13.722656 C 176.230469 13.597656 176.203125 13.472656 176.152344 13.355469 C 176.105469 13.265625 176.035156 13.199219 175.941406 13.15625 C 175.808594 13.101562 175.671875 13.0625 175.53125 13.042969 L 175.53125 12.730469 L 176.898438 12.675781 L 177.25 12.675781 L 177.191406 13.625 L 177.273438 13.625 C 177.488281 13.398438 177.71875 13.1875 177.96875 12.996094 C 178.136719 12.882812 178.3125 12.785156 178.5 12.714844 C 178.6875 12.640625 178.878906 12.605469 179.078125 12.609375 C 179.269531 12.605469 179.457031 12.628906 179.636719 12.683594 C 179.972656 12.777344 180.222656 12.976562 180.386719 13.28125 C 180.472656 13.453125 180.53125 13.632812 180.566406 13.820312 C 180.613281 14.085938 180.632812 14.351562 180.625 14.621094 L 180.625 16.820312 C 180.617188 17.015625 180.617188 17.210938 180.625 17.40625 C 180.636719 17.503906 180.664062 17.59375 180.707031 17.683594 C 180.75 17.753906 180.808594 17.808594 180.878906 17.847656 C 181.003906 17.910156 181.128906 17.957031 181.261719 17.988281 Z M 182.308594 18.003906 C 182.421875 17.976562 182.527344 17.9375 182.632812 17.882812 C 182.699219 17.847656 182.753906 17.796875 182.796875 17.734375 C 182.851562 17.648438 182.886719 17.554688 182.902344 17.449219 C 182.929688 17.25 182.941406 17.050781 182.9375 16.851562 L 182.9375 14.308594 C 182.9375 14.0625 182.9375 13.859375 182.9375 13.707031 C 182.9375 13.582031 182.914062 13.460938 182.863281 13.34375 C 182.8125 13.25 182.742188 13.183594 182.648438 13.140625 C 182.515625 13.085938 182.382812 13.046875 182.242188 13.027344 L 182.242188 12.714844 L 183.605469 12.660156 L 183.957031 12.660156 L 183.957031 16.835938 C 183.949219 17.070312 183.964844 17.300781 184 17.53125 C 184.023438 17.652344 184.085938 17.75 184.179688 17.824219 C 184.308594 17.914062 184.453125 17.972656 184.605469 18.003906 L 184.605469 18.289062 L 182.363281 18.289062 Z M 183.980469 10.429688 L 183.980469 11.5625 L 182.902344 11.5625 L 182.902344 10.429688 Z M 187.554688 12.714844 L 187.554688 12.976562 C 187.421875 13 187.296875 13.039062 187.171875 13.09375 C 187.105469 13.128906 187.050781 13.179688 187.007812 13.246094 C 186.964844 13.324219 186.945312 13.410156 186.949219 13.5 C 186.949219 13.609375 186.964844 13.722656 186.996094 13.828125 C 187.023438 13.964844 187.058594 14.09375 187.105469 14.226562 L 188.125 17.171875 L 189.3125 14.351562 C 189.378906 14.199219 189.433594 14.046875 189.480469 13.886719 C 189.507812 13.777344 189.523438 13.664062 189.523438 13.550781 C 189.53125 13.410156 189.492188 13.285156 189.394531 13.175781 C 189.253906 13.0625 189.089844 12.996094 188.910156 12.976562 L 188.910156 12.683594 L 191.09375 12.683594 L 191.09375 12.976562 C 190.964844 12.992188 190.847656 13.039062 190.742188 13.117188 C 190.640625 13.203125 190.558594 13.300781 190.496094 13.417969 C 190.410156 13.558594 190.3125 13.75 190.203125 14 L 188.242188 18.320312 L 187.554688 18.320312 L 185.976562 13.964844 C 185.902344 13.753906 185.8125 13.550781 185.714844 13.351562 C 185.601562 13.128906 185.421875 13.003906 185.175781 12.976562 L 185.175781 12.683594 Z M 196.273438 17.300781 C 196.0625 17.527344 195.832031 17.730469 195.585938 17.914062 C 195.375 18.0625 195.148438 18.179688 194.902344 18.257812 C 194.636719 18.34375 194.363281 18.386719 194.082031 18.386719 C 193.351562 18.429688 192.746094 18.183594 192.261719 17.636719 C 191.804688 17.003906 191.601562 16.292969 191.65625 15.511719 C 191.640625 14.976562 191.746094 14.464844 191.960938 13.976562 C 192.164062 13.558594 192.460938 13.222656 192.851562 12.976562 C 193.261719 12.726562 193.707031 12.609375 194.183594 12.617188 C 194.53125 12.605469 194.867188 12.667969 195.1875 12.804688 C 195.449219 12.917969 195.671875 13.085938 195.847656 13.3125 C 196.027344 13.558594 196.160156 13.832031 196.234375 14.128906 C 196.339844 14.550781 196.386719 14.980469 196.386719 15.414062 L 192.710938 15.414062 L 192.710938 15.519531 C 192.695312 15.925781 192.75 16.328125 192.867188 16.71875 C 192.960938 17.03125 193.136719 17.28125 193.40625 17.46875 C 193.675781 17.660156 193.972656 17.742188 194.296875 17.71875 C 194.597656 17.722656 194.882812 17.664062 195.15625 17.539062 C 195.445312 17.390625 195.695312 17.199219 195.90625 16.957031 Z M 195.292969 14.9375 C 195.28125 14.585938 195.230469 14.242188 195.136719 13.902344 C 195.074219 13.664062 194.949219 13.457031 194.769531 13.289062 C 194.582031 13.136719 194.367188 13.070312 194.125 13.082031 C 193.722656 13.070312 193.402344 13.230469 193.167969 13.558594 C 192.894531 13.976562 192.75 14.4375 192.742188 14.9375 Z M 199.035156 13.6875 L 199.117188 13.6875 C 199.296875 13.460938 199.496094 13.257812 199.714844 13.074219 C 200.09375 12.753906 200.53125 12.597656 201.023438 12.601562 C 201.230469 12.589844 201.433594 12.589844 201.636719 12.601562 L 201.636719 13.941406 L 200.980469 13.941406 C 200.910156 13.769531 200.808594 13.617188 200.679688 13.484375 C 200.558594 13.378906 200.414062 13.332031 200.253906 13.34375 C 200.101562 13.34375 199.964844 13.382812 199.835938 13.460938 C 199.679688 13.558594 199.546875 13.679688 199.429688 13.820312 C 199.191406 14.082031 199.078125 14.386719 199.09375 14.742188 L 199.09375 16.785156 C 199.082031 17.035156 199.101562 17.285156 199.160156 17.53125 C 199.195312 17.660156 199.265625 17.757812 199.371094 17.832031 C 199.511719 17.910156 199.660156 17.957031 199.820312 17.972656 L 199.820312 18.257812 L 197.46875 18.257812 L 197.46875 17.972656 C 197.578125 17.945312 197.683594 17.90625 197.785156 17.855469 C 197.851562 17.820312 197.90625 17.769531 197.949219 17.703125 C 198.007812 17.621094 198.042969 17.523438 198.054688 17.421875 C 198.074219 17.222656 198.074219 17.019531 198.054688 16.820312 L 198.054688 14.277344 C 198.054688 14.03125 198.054688 13.828125 198.054688 13.679688 C 198.050781 13.550781 198.023438 13.429688 197.972656 13.3125 C 197.921875 13.222656 197.847656 13.152344 197.753906 13.109375 C 197.625 13.054688 197.492188 13.015625 197.351562 12.996094 L 197.351562 12.691406 L 198.710938 12.632812 L 199.070312 12.632812 Z M 206.398438 13.992188 L 205.835938 13.992188 C 205.769531 13.792969 205.667969 13.605469 205.535156 13.441406 C 205.429688 13.3125 205.296875 13.222656 205.140625 13.164062 C 204.964844 13.101562 204.78125 13.074219 204.59375 13.082031 C 204.320312 13.0625 204.070312 13.132812 203.847656 13.296875 C 203.65625 13.453125 203.5625 13.652344 203.570312 13.894531 C 203.5625 14.054688 203.601562 14.203125 203.679688 14.335938 C 203.773438 14.472656 203.886719 14.582031 204.023438 14.667969 C 204.289062 14.820312 204.5625 14.953125 204.847656 15.0625 C 205.167969 15.195312 205.472656 15.355469 205.761719 15.542969 C 205.96875 15.671875 206.136719 15.839844 206.269531 16.042969 C 206.398438 16.25 206.460938 16.480469 206.457031 16.722656 C 206.460938 16.984375 206.410156 17.234375 206.300781 17.472656 C 206.195312 17.683594 206.046875 17.855469 205.851562 17.988281 C 205.644531 18.128906 205.421875 18.222656 205.175781 18.273438 C 204.894531 18.335938 204.605469 18.363281 204.316406 18.363281 C 204 18.367188 203.679688 18.339844 203.367188 18.289062 C 203.0625 18.242188 202.765625 18.179688 202.46875 18.101562 L 202.46875 16.902344 L 203.039062 16.902344 C 203.117188 17.199219 203.269531 17.449219 203.5 17.652344 C 203.757812 17.832031 204.042969 17.910156 204.355469 17.890625 C 204.492188 17.890625 204.628906 17.878906 204.765625 17.847656 C 204.894531 17.824219 205.015625 17.777344 205.125 17.703125 C 205.234375 17.636719 205.316406 17.542969 205.371094 17.429688 C 205.441406 17.292969 205.476562 17.148438 205.46875 16.992188 C 205.480469 16.820312 205.441406 16.65625 205.351562 16.507812 C 205.257812 16.363281 205.136719 16.25 204.992188 16.164062 C 204.714844 16.003906 204.425781 15.867188 204.128906 15.75 C 203.832031 15.632812 203.546875 15.488281 203.277344 15.316406 C 203.074219 15.1875 202.90625 15.023438 202.769531 14.824219 C 202.640625 14.613281 202.582031 14.386719 202.589844 14.144531 C 202.585938 13.835938 202.671875 13.558594 202.851562 13.3125 C 203.046875 13.058594 203.296875 12.878906 203.597656 12.773438 C 203.96875 12.640625 204.351562 12.578125 204.742188 12.585938 C 205.003906 12.585938 205.253906 12.585938 205.492188 12.585938 C 205.730469 12.585938 206.03125 12.660156 206.390625 12.734375 Z M 207.625 18.003906 C 207.734375 17.976562 207.84375 17.9375 207.945312 17.882812 C 208.015625 17.847656 208.070312 17.796875 208.109375 17.734375 C 208.15625 17.648438 208.179688 17.558594 208.1875 17.464844 C 208.207031 17.265625 208.207031 17.066406 208.1875 16.867188 L 208.1875 14.324219 C 208.1875 14.074219 208.1875 13.875 208.1875 13.722656 C 208.183594 13.597656 208.15625 13.472656 208.105469 13.355469 C 208.054688 13.265625 207.984375 13.195312 207.886719 13.15625 C 207.757812 13.097656 207.621094 13.0625 207.484375 13.042969 L 207.484375 12.730469 L 208.84375 12.675781 L 209.195312 12.675781 L 209.195312 16.851562 C 209.1875 17.085938 209.203125 17.316406 209.25 17.546875 C 209.273438 17.664062 209.328125 17.761719 209.421875 17.839844 C 209.550781 17.929688 209.695312 17.988281 209.855469 18.019531 L 209.855469 18.304688 L 207.566406 18.304688 Z M 209.292969 10.429688 L 209.292969 11.5625 L 208.1875 11.5625 L 208.1875 10.429688 Z M 210.574219 12.976562 C 210.742188 12.957031 210.898438 12.902344 211.042969 12.820312 C 211.164062 12.738281 211.257812 12.636719 211.328125 12.511719 C 211.40625 12.367188 211.457031 12.214844 211.484375 12.054688 C 211.53125 11.867188 211.566406 11.597656 211.613281 11.246094 L 212.4375 11.246094 L 212.4375 12.683594 L 214.320312 12.683594 L 214.320312 13.273438 L 212.4375 13.273438 L 212.4375 15.871094 C 212.433594 16.171875 212.453125 16.472656 212.488281 16.769531 C 212.503906 16.957031 212.5625 17.132812 212.660156 17.292969 C 212.738281 17.40625 212.835938 17.5 212.953125 17.570312 C 213.085938 17.628906 213.226562 17.65625 213.371094 17.652344 C 213.527344 17.652344 213.671875 17.617188 213.8125 17.554688 C 213.957031 17.480469 214.089844 17.390625 214.210938 17.277344 L 214.472656 17.59375 C 214.253906 17.828125 214.003906 18.023438 213.722656 18.175781 C 213.488281 18.292969 213.238281 18.351562 212.976562 18.355469 C 212.527344 18.390625 212.15625 18.242188 211.859375 17.90625 C 211.570312 17.488281 211.445312 17.023438 211.484375 16.515625 L 211.484375 13.304688 L 210.625 13.304688 Z M 217.425781 18.738281 C 217.253906 19.148438 217.046875 19.539062 216.804688 19.914062 C 216.628906 20.183594 216.40625 20.410156 216.132812 20.585938 C 215.871094 20.75 215.582031 20.828125 215.273438 20.816406 C 215.019531 20.8125 214.769531 20.789062 214.523438 20.742188 L 214.523438 19.613281 L 215.039062 19.613281 C 215.070312 19.742188 215.128906 19.851562 215.21875 19.949219 C 215.308594 20.015625 215.410156 20.046875 215.519531 20.039062 C 215.628906 20.042969 215.734375 20.019531 215.832031 19.972656 C 215.945312 19.914062 216.039062 19.835938 216.117188 19.738281 C 216.253906 19.585938 216.371094 19.417969 216.46875 19.238281 C 216.605469 19.015625 216.753906 18.730469 216.917969 18.386719 L 215.289062 13.992188 C 215.21875 13.789062 215.132812 13.59375 215.03125 13.402344 C 214.980469 13.304688 214.914062 13.214844 214.832031 13.140625 C 214.726562 13.070312 214.609375 13.027344 214.488281 13.003906 L 214.488281 12.714844 L 216.859375 12.714844 L 216.859375 12.976562 C 216.726562 13 216.597656 13.039062 216.476562 13.09375 C 216.410156 13.132812 216.355469 13.1875 216.3125 13.253906 C 216.277344 13.332031 216.257812 13.417969 216.261719 13.507812 C 216.261719 13.617188 216.273438 13.722656 216.296875 13.828125 C 216.296875 13.941406 216.363281 14.074219 216.417969 14.226562 L 217.457031 17.152344 L 218.660156 14.382812 C 218.726562 14.242188 218.773438 14.097656 218.8125 13.949219 C 218.847656 13.832031 218.867188 13.710938 218.871094 13.589844 C 218.882812 13.441406 218.839844 13.316406 218.738281 13.207031 C 218.59375 13.097656 218.4375 13.03125 218.257812 13.003906 L 218.257812 12.714844 L 220.441406 12.714844 L 220.441406 12.976562 C 220.3125 12.992188 220.195312 13.039062 220.089844 13.117188 C 219.988281 13.203125 219.90625 13.300781 219.84375 13.417969 C 219.757812 13.558594 219.664062 13.75 219.550781 14 Z M 217.425781 18.738281 " fill-opacity="1" fill-rule="nonzero"/></g></svg>